{"glyphs":{"0":{"ha":638,"x_min":24,"x_max":614,"o":"m 614 443 q 555 710 614 600 q 383 858 496 821 q 331 868 358 868 q 106 714 199 868 q 24 438 24 578 q 51 244 24 326 q 119 106 78 161 q 210 23 161 50 q 304 -4 260 -4 q 408 22 358 -4 q 497 92 457 47 q 565 199 536 138 q 606 331 593 260 l 606 329 q 614 443 614 375 m 478 368 q 472 278 478 319 q 453 206 465 236 q 423 158 440 175 q 383 140 406 140 q 263 206 328 140 l 264 206 q 228 256 246 228 q 190 319 210 285 l 190 318 q 151 497 151 400 q 159 582 151 540 q 179 657 167 624 q 209 710 192 690 q 247 731 226 731 q 298 717 271 731 q 352 680 325 703 q 402 626 379 657 q 440 561 425 596 q 478 368 478 474 z "},"1":{"ha":301,"x_min":21,"x_max":278,"o":"m 278 32 q 257 439 260 200 q 258 397 257 411 q 258 382 258 382 l 258 847 q 260 866 258 850 q 263 892 263 882 q 244 919 263 919 q 228 909 240 919 q 200 882 217 899 q 163 847 183 865 q 121 811 143 828 q 86 788 111 804 q 21 743 61 771 q 25 663 25 690 q 73 689 53 678 q 104 707 93 700 q 104 683 104 697 q 106 651 104 671 l 106 594 q 106 543 106 593 q 108 393 107 493 l 108 315 q 104 110 108 190 q 89 -26 100 31 q 197 7 150 -7 q 278 32 243 21 z "},"2":{"ha":694,"x_min":22,"x_max":671,"o":"m 671 214 q 611 194 631 214 l 613 194 q 569 157 599 179 l 289 156 q 348 216 319 186 q 404 278 376 246 l 403 278 q 490 377 456 338 q 540 439 525 417 q 614 629 614 544 q 593 719 614 678 l 593 718 q 571 756 582 739 q 549 785 560 772 l 550 783 q 324 882 472 882 q 203 874 213 882 q 190 848 196 860 q 181 826 183 836 l 181 828 q 93 656 150 756 l 107 656 q 131 653 122 656 l 150 649 q 174 678 163 663 q 198 706 185 693 q 228 726 211 718 q 267 733 244 733 q 329 723 299 733 q 384 693 360 713 q 423 647 408 674 q 438 585 438 619 l 438 586 q 350 382 429 475 q 299 324 343 374 q 174 182 256 274 q 22 8 22 10 q 43 -8 22 -8 q 53 -6 49 -8 q 78 -1 58 -4 q 140 5 97 3 q 267 7 183 7 q 392 5 339 7 q 482 -3 446 3 l 482 -4 q 539 -9 519 -7 q 560 -11 558 -11 q 626 119 599 64 q 671 214 653 175 z "},"3":{"ha":593,"x_min":24,"x_max":569,"o":"m 569 382 q 542 482 569 447 l 542 481 q 344 604 471 596 l 461 733 q 558 851 558 839 q 531 871 558 871 q 503 869 514 871 q 475 864 493 867 q 424 859 457 861 q 332 857 392 857 q 218 863 279 857 q 88 881 157 869 q 55 762 72 814 q 24 686 38 710 l 32 667 l 39 665 q 65 674 53 665 q 91 692 78 682 q 117 712 104 703 q 146 721 131 721 q 194 717 156 721 q 304 706 233 713 l 192 560 q 100 428 100 440 q 122 407 100 407 q 143 413 126 407 q 181 428 160 419 q 222 442 201 436 q 254 449 242 449 q 344 419 307 449 q 382 338 382 389 q 301 145 382 217 q 83 67 221 74 q 35 57 47 64 q 24 28 24 50 q 121 -8 24 -8 q 287 23 206 -8 q 431 107 368 54 q 531 231 493 160 q 569 382 569 303 z "},"4":{"ha":656,"x_min":19,"x_max":635,"o":"m 635 457 q 611 476 635 476 q 591 474 604 476 q 558 469 578 472 l 561 469 q 528 468 547 468 q 485 468 508 468 l 468 468 q 470 614 468 531 q 478 803 472 697 l 478 801 q 480 877 479 849 q 481 915 481 906 l 453 906 l 454 906 q 342 838 401 888 q 227 722 283 789 q 124 578 171 656 q 47 428 76 501 q 19 342 19 353 q 36 325 19 326 q 306 329 79 329 q 292 134 303 225 q 263 -39 281 43 q 446 24 385 0 l 444 22 l 468 29 q 467 90 468 49 q 467 178 467 132 q 466 266 467 225 q 465 326 465 307 l 544 326 q 570 356 554 336 q 600 397 586 376 q 624 434 614 417 q 635 457 635 451 m 311 625 q 307 469 311 546 q 154 465 167 469 q 181 509 161 479 q 224 572 200 539 q 272 633 249 604 q 310 678 294 663 l 310 651 q 311 635 311 642 q 311 625 311 628 z "},"5":{"ha":606,"x_min":22,"x_max":582,"o":"m 582 382 q 540 526 582 465 l 540 525 q 499 571 525 550 q 440 606 472 592 q 372 629 408 621 q 300 638 336 638 q 171 617 256 638 q 188 660 178 639 q 210 701 199 681 q 253 701 207 703 q 372 699 300 699 q 515 714 472 699 q 582 899 560 807 q 554 907 554 907 q 537 898 544 907 q 521 878 529 889 q 502 860 513 868 q 476 851 492 851 q 168 876 324 851 q 100 699 125 772 q 60 573 75 626 q 38 481 46 519 q 22 407 31 443 q 257 476 150 476 q 306 469 275 476 l 304 471 q 373 422 344 457 q 401 346 401 388 q 319 132 401 210 l 319 133 q 278 99 296 113 q 241 79 260 86 q 201 69 222 72 q 149 67 179 67 q 128 68 140 67 q 104 71 117 69 q 80 74 92 72 q 61 75 68 75 l 44 75 q 39 7 44 35 q 96 -1 69 1 q 146 -4 122 -4 q 364 51 278 -4 l 364 50 q 582 382 582 172 z "},"6":{"ha":614,"x_min":22,"x_max":590,"o":"m 590 344 q 574 442 590 397 q 530 521 558 488 q 461 574 501 554 q 372 597 421 594 l 374 597 q 360 599 367 599 q 344 599 353 599 q 265 581 306 599 l 267 581 q 203 543 229 569 q 310 746 238 682 q 504 858 338 769 q 508 889 508 879 q 503 931 508 903 q 338 874 388 907 l 339 874 q 101 646 181 772 q 22 344 22 519 q 26 265 22 300 q 42 199 31 231 q 71 140 53 168 q 117 82 89 111 q 290 -7 197 -7 q 393 28 328 -7 l 392 28 q 457 69 417 39 l 456 68 q 491 97 474 79 q 522 133 508 114 q 547 169 536 151 q 563 199 557 186 q 590 344 590 257 m 442 231 q 396 139 442 139 q 328 156 382 139 l 329 154 q 186 350 186 213 q 192 391 186 371 q 210 428 199 411 q 239 454 222 444 q 276 464 256 464 q 407 379 356 464 l 407 381 q 442 231 442 297 z "},"7":{"ha":650,"x_min":22,"x_max":629,"o":"m 629 890 l 629 893 q 606 908 629 908 l 579 907 q 542 883 558 892 q 508 869 526 875 q 469 863 490 864 q 415 861 447 861 q 142 889 260 861 l 126 881 q 91 806 107 838 q 63 753 75 774 l 46 722 l 53 740 l 22 671 q 53 658 40 664 q 75 650 65 653 q 128 717 114 717 q 156 711 140 717 l 154 711 q 317 703 206 703 q 449 707 390 703 q 265 305 339 486 q 151 -21 190 124 q 322 33 265 13 q 367 231 344 143 q 417 388 390 319 l 417 386 q 629 890 554 725 z "},"8":{"ha":613,"x_min":24,"x_max":589,"o":"m 589 254 q 535 443 589 357 l 536 442 q 431 529 504 490 q 538 708 538 628 q 524 776 538 744 q 488 831 511 807 q 435 868 465 854 q 368 882 404 882 q 258 865 311 882 q 164 816 204 847 q 99 742 124 785 q 75 650 75 700 q 138 524 75 579 l 138 525 q 165 501 151 511 q 193 482 179 490 q 24 238 24 383 q 32 178 24 211 l 32 179 q 203 10 63 50 l 201 11 q 304 -7 243 -7 q 406 14 356 -7 q 498 70 457 35 q 564 153 539 106 q 589 254 589 200 m 397 649 q 344 565 397 607 q 231 668 279 597 l 232 668 q 222 704 222 688 q 285 771 222 771 q 365 734 333 771 q 397 649 397 697 m 456 213 q 431 141 456 168 q 364 114 407 114 q 296 128 331 114 q 233 168 261 143 q 188 225 206 193 q 169 290 169 257 q 190 367 169 336 q 268 433 211 397 l 267 432 l 272 435 l 293 428 l 292 428 q 353 392 324 415 q 406 339 383 368 q 442 277 429 310 q 456 213 456 244 z "},"9":{"ha":614,"x_min":22,"x_max":592,"o":"m 592 514 q 586 574 592 550 l 586 572 l 582 588 q 324 886 500 886 q 178 833 258 886 l 179 835 q 22 549 22 715 q 39 433 22 486 q 85 341 56 381 q 157 279 115 301 q 249 257 199 257 q 325 272 286 257 l 324 271 q 406 318 357 275 q 179 -18 356 104 l 181 -17 q 146 -68 146 -33 q 196 -104 146 -104 q 253 -76 217 -104 l 251 -78 l 271 -65 l 269 -65 q 349 -3 307 -44 q 431 88 392 39 q 501 187 469 138 q 547 272 532 236 q 592 514 592 381 m 415 472 l 415 474 q 321 413 392 413 q 175 521 235 413 l 175 519 q 156 606 156 569 q 239 738 156 738 q 310 717 278 738 q 366 661 343 697 q 401 576 389 625 q 415 472 414 528 z "}," ":{"ha":449,"x_min":0,"x_max":0,"o":""}," ":{"ha":449,"x_min":0,"x_max":0,"o":""},"!":{"ha":217,"x_min":24,"x_max":193,"o":"m 172 954 q 144 997 172 997 l 131 996 l 132 996 q 44 967 50 972 q 29 875 29 951 q 30 810 29 851 q 32 717 31 768 q 34 611 33 667 q 36 505 35 556 q 38 413 38 454 q 39 347 39 371 l 39 285 q 76 244 46 244 q 104 254 90 244 l 104 253 q 157 294 142 271 q 172 954 172 318 m 193 108 q 179 130 193 118 q 147 152 165 142 q 110 169 128 163 q 82 175 92 175 q 67 160 76 175 q 47 125 57 144 q 31 88 38 106 q 24 65 24 71 q 35 42 24 54 q 64 19 47 29 q 97 3 81 10 q 122 -3 114 -3 q 141 13 129 -3 q 165 47 153 28 q 185 85 176 67 q 193 108 193 103 z "},"\"":{"ha":438,"x_min":24,"x_max":415,"o":"m 415 953 q 346 1026 415 1026 q 299 1004 324 1026 q 264 960 274 982 q 193 1026 260 1026 q 163 1015 179 1026 q 133 988 147 1004 q 107 956 118 972 q 93 926 96 939 l 24 626 l 100 603 q 192 783 160 719 q 229 860 224 846 l 176 626 l 254 603 q 276 642 264 618 q 303 699 288 667 l 303 697 q 415 953 415 919 z "},"#":{"ha":708,"x_min":22,"x_max":686,"o":"m 686 776 l 563 756 l 586 1061 l 438 1026 l 413 728 l 343 717 l 364 1019 l 215 999 l 186 696 l 57 675 l 44 521 l 176 542 l 163 404 l 35 382 l 22 229 l 150 249 l 126 -44 l 281 -14 l 300 267 l 374 281 l 350 -11 l 503 17 l 524 308 l 650 328 l 665 482 l 538 464 l 549 601 l 671 622 l 686 776 m 399 574 l 386 435 l 314 422 l 322 561 l 399 574 z "},"$":{"ha":947,"x_min":21,"x_max":925,"o":"m 925 396 q 878 550 925 481 q 753 657 832 619 l 754 657 q 715 678 731 669 q 688 692 699 686 q 701 713 694 703 q 715 733 708 722 l 715 732 q 854 968 854 921 q 845 1003 854 985 q 821 1021 836 1021 q 806 1008 817 1021 q 782 979 794 994 q 759 951 769 964 q 747 936 749 938 l 749 936 l 743 935 q 517 990 704 935 l 517 1144 l 438 1144 l 438 1011 q 419 1015 429 1015 q 388 1005 404 1015 q 358 981 372 994 q 333 954 344 968 q 317 935 322 940 q 285 906 310 928 q 230 857 261 885 q 169 801 199 829 q 122 751 139 772 q 110 606 110 703 q 117 561 110 575 q 213 517 121 554 q 319 478 301 481 q 201 360 256 419 q 107 248 147 301 q 44 149 67 194 q 21 74 21 104 l 22 49 q 81 13 50 13 q 103 21 94 13 q 117 42 113 29 q 125 68 122 54 q 128 93 128 82 l 131 100 q 154 106 136 106 q 367 51 210 106 l 365 51 q 415 32 397 39 q 438 24 433 25 l 438 -203 l 517 -203 l 517 -7 q 608 -25 576 -25 q 637 -7 613 -25 q 688 32 661 11 q 735 69 714 53 q 753 85 756 86 l 753 83 q 815 135 797 110 l 814 133 q 847 178 833 158 q 871 213 861 197 l 869 213 q 924 375 915 293 l 924 374 q 925 396 925 379 m 636 788 q 567 699 597 736 q 518 638 538 661 l 517 815 q 587 799 557 806 q 636 788 617 792 m 438 610 q 299 688 318 679 l 297 689 q 243 750 243 722 q 263 776 247 758 q 299 812 279 793 q 337 845 318 831 q 364 863 356 860 q 406 851 388 856 q 438 840 425 846 l 438 610 m 750 326 q 743 265 750 297 q 724 205 736 232 q 695 160 711 178 q 661 142 679 142 q 517 182 650 142 l 517 536 l 528 536 q 539 538 532 538 q 693 481 636 538 q 750 326 750 424 m 438 208 q 369 233 397 224 q 325 247 342 242 l 325 246 q 280 262 299 256 q 247 272 261 268 q 268 299 258 289 l 267 299 l 276 308 q 361 398 321 357 q 438 471 401 439 l 438 208 m 299 688 l 297 689 l 297 688 l 299 688 z "},"%":{"ha":881,"x_min":22,"x_max":858,"o":"m 858 265 q 821 435 858 364 q 708 529 783 507 q 689 531 704 531 q 611 508 646 531 l 613 510 q 563 465 585 493 q 524 404 540 438 q 498 333 507 371 q 489 258 489 296 q 503 164 489 211 q 540 79 517 117 q 597 18 564 42 q 667 -6 629 -6 q 743 17 708 -6 q 803 76 778 39 q 844 163 829 114 q 858 265 858 211 m 674 864 l 561 894 l 204 -22 l 314 -56 l 674 864 m 392 575 q 242 854 392 817 q 222 856 238 856 q 144 833 179 856 l 146 835 q 97 793 119 819 q 58 733 75 767 q 32 660 42 699 q 22 585 22 622 q 28 522 22 556 q 48 456 35 489 q 83 394 61 424 q 136 339 104 364 q 178 322 150 326 l 176 322 q 200 319 190 319 q 275 342 240 319 q 336 400 310 364 q 377 482 363 436 q 392 575 392 528 m 767 228 q 714 92 767 92 q 687 95 699 92 q 663 110 675 99 q 635 143 650 122 q 600 197 621 164 l 600 196 q 578 304 578 242 q 600 408 578 365 l 600 407 q 632 438 614 438 q 671 424 643 438 l 669 424 q 767 228 767 364 m 300 553 q 247 417 300 417 q 219 421 232 417 q 194 437 207 425 q 168 469 182 449 q 135 522 154 490 l 135 521 q 111 629 111 571 q 133 733 111 690 l 133 732 q 165 763 147 763 q 204 749 176 763 l 203 749 q 300 553 300 693 z "},"&":{"ha":829,"x_min":22,"x_max":807,"o":"m 807 138 q 643 229 721 171 q 674 344 674 296 q 663 395 674 371 q 635 439 653 419 q 593 471 617 458 q 543 488 569 483 q 532 465 532 476 l 522 438 q 608 347 608 404 q 589 278 608 314 q 562 295 574 286 q 530 322 550 304 q 478 371 510 340 q 396 454 447 401 q 492 517 454 489 q 553 572 531 546 q 585 624 576 599 q 594 678 594 649 q 585 725 594 704 l 586 725 q 428 839 569 789 q 333 747 367 781 q 292 706 299 714 q 185 558 203 610 l 185 560 q 174 508 174 535 q 196 425 174 474 q 22 178 22 318 q 385 -44 22 -44 l 425 -44 q 450 -43 440 -43 q 467 -43 460 -43 q 538 85 482 38 q 613 23 569 57 q 711 -51 656 -11 q 807 138 742 50 m 440 624 q 421 565 440 597 l 422 568 q 413 559 421 568 q 393 539 404 550 q 371 517 382 528 q 354 504 360 507 q 322 592 322 553 q 382 679 322 642 q 440 624 440 668 m 451 154 q 357 132 385 132 q 181 258 181 132 q 235 368 181 319 q 268 325 256 340 q 300 290 281 310 q 353 240 319 271 q 451 154 388 210 z "},"'":{"ha":200,"x_min":21,"x_max":181,"o":"m 181 942 q 142 989 181 989 q 101 958 119 989 l 103 960 q 50 811 75 926 q 35 728 43 769 q 21 646 28 686 l 47 631 q 94 733 71 682 q 138 828 118 785 q 169 903 157 872 q 181 942 181 933 z "},"(":{"ha":314,"x_min":24,"x_max":290,"o":"m 290 1064 q 267 1096 290 1096 q 147 996 236 1096 l 147 993 q 24 544 24 778 q 26 428 24 479 q 38 325 28 376 q 68 215 49 274 q 124 74 88 156 q 263 -112 203 -112 q 282 -85 282 -112 q 250 43 282 -61 l 251 43 l 242 69 l 242 68 l 235 93 q 236 90 236 92 q 236 90 236 90 l 238 90 q 174 543 174 311 q 178 626 174 578 q 189 738 182 674 l 189 736 q 272 1014 206 858 l 272 1013 q 290 1064 290 1047 z "},")":{"ha":314,"x_min":24,"x_max":290,"o":"m 290 456 q 282 617 290 542 q 255 763 274 693 q 207 898 236 832 q 135 1033 178 964 q 117 1058 128 1044 q 93 1085 106 1072 q 69 1106 81 1097 q 51 1114 57 1114 q 32 1085 32 1114 q 64 957 32 1061 l 63 957 q 79 907 72 924 l 76 911 q 140 457 140 690 q 136 374 140 422 q 125 264 132 326 l 125 265 q 42 -14 106 124 l 42 -12 q 24 -64 24 -44 q 49 -94 24 -94 q 73 -83 57 -94 q 107 -55 89 -71 q 142 -22 125 -39 q 167 6 158 -6 q 224 123 200 68 q 262 231 247 178 q 283 340 276 285 q 290 456 290 394 z "},"*":{"ha":788,"x_min":22,"x_max":765,"o":"m 765 617 q 758 678 760 656 q 756 706 756 700 q 764 804 756 739 q 599 767 683 785 q 456 744 515 749 q 480 778 471 765 q 497 801 489 790 q 515 822 506 811 q 542 853 525 833 q 585 903 558 872 q 654 981 613 933 q 561 1038 600 1014 q 499 1076 522 1061 q 469 1001 475 1024 l 469 1003 q 420 874 442 928 q 385 786 399 819 q 353 872 367 835 q 332 933 340 908 l 333 933 q 306 1013 318 979 q 286 1071 294 1047 q 128 983 203 1010 q 242 844 196 903 q 314 747 288 785 q 147 776 218 763 q 28 799 75 789 q 31 761 31 779 q 31 726 31 744 q 22 617 31 668 q 70 624 50 621 q 104 628 90 626 l 103 628 q 156 640 122 635 q 224 650 190 646 q 281 656 257 654 q 301 657 304 657 q 126 436 247 578 q 290 343 228 397 q 385 615 358 557 q 451 458 424 525 q 497 346 479 390 q 571 396 550 379 l 571 394 q 660 436 631 426 q 578 525 613 488 q 521 589 544 563 l 521 588 q 490 625 504 607 q 464 661 475 643 q 639 638 564 649 q 765 617 714 626 z "},"+":{"ha":678,"x_min":21,"x_max":657,"o":"m 657 367 l 657 504 l 410 504 l 410 763 l 274 763 l 274 504 l 21 504 l 21 367 l 274 367 l 274 135 l 410 135 l 410 367 l 657 367 z "},",":{"ha":261,"x_min":22,"x_max":240,"o":"m 240 140 q 207 171 240 171 q 180 168 196 171 q 147 160 164 165 q 117 149 131 156 q 99 138 104 143 q 88 114 94 133 q 72 69 81 94 q 55 13 64 43 q 39 -44 46 -18 q 27 -91 32 -71 q 22 -117 22 -111 q 24 -124 22 -121 l 24 -132 q 47 -140 38 -140 q 151 -69 119 -140 l 151 -71 q 240 140 240 93 z "},"-":{"ha":381,"x_min":24,"x_max":357,"o":"m 357 339 q 308 379 357 379 l 271 379 q 110 375 118 379 l 113 376 q 51 344 79 369 q 24 288 24 319 q 89 254 24 254 q 110 255 97 254 q 135 257 122 256 q 161 259 149 258 q 182 260 174 260 l 254 260 q 318 278 306 261 l 318 276 q 357 339 357 303 z "},"‐":{"ha":381,"x_min":24,"x_max":357,"o":"m 357 339 q 308 379 357 379 l 271 379 q 110 375 118 379 l 113 376 q 51 344 79 369 q 24 288 24 319 q 89 254 24 254 q 110 255 97 254 q 135 257 122 256 q 161 259 149 258 q 182 260 174 260 l 254 260 q 318 278 306 261 l 318 276 q 357 339 357 303 z "},".":{"ha":236,"x_min":24,"x_max":214,"o":"m 214 103 q 199 127 214 114 q 165 151 185 140 q 126 169 146 163 q 96 176 106 176 q 71 164 76 176 l 72 167 q 24 61 24 110 q 36 40 24 51 q 66 19 49 29 q 101 3 83 10 q 131 -3 119 -3 q 158 10 143 -3 q 185 39 172 22 q 206 74 197 56 q 214 103 214 92 z "},"/":{"ha":392,"x_min":19,"x_max":372,"o":"m 372 1063 l 268 1063 l 19 -197 l 129 -197 l 372 1063 z "},":":{"ha":244,"x_min":24,"x_max":221,"o":"m 221 514 q 207 542 221 526 q 174 569 193 557 q 136 590 156 582 q 106 599 117 599 q 79 586 88 599 l 81 586 q 26 469 26 521 q 28 461 26 465 l 28 453 q 144 399 96 399 q 221 514 221 461 m 215 114 q 202 141 215 126 q 171 169 189 156 q 134 190 153 182 q 103 199 115 199 q 75 184 89 199 q 49 149 61 169 q 31 106 38 128 q 24 71 24 85 q 36 44 24 57 q 66 20 49 31 q 104 3 83 10 q 142 -3 125 -3 q 215 114 215 68 z "},";":{"ha":288,"x_min":22,"x_max":267,"o":"m 267 515 q 254 544 267 529 q 224 572 242 560 q 186 593 206 585 q 154 601 167 601 q 127 586 142 601 q 100 550 113 571 q 79 506 88 529 q 71 468 71 483 q 72 461 71 465 l 72 454 q 178 397 144 397 q 185 399 181 397 l 192 399 q 218 425 204 410 q 242 457 232 440 q 260 489 253 474 q 267 515 267 504 m 244 146 q 210 178 244 178 q 92 132 122 178 q 53 3 78 111 l 53 1 q 22 -132 22 -69 l 24 -139 q 49 -146 40 -146 q 100 -131 63 -146 q 153 -74 128 -131 l 153 -75 q 244 146 244 100 z "},"<":{"ha":931,"x_min":21,"x_max":907,"o":"m 907 376 q 869 631 907 568 q 638 721 817 721 q 606 646 638 682 q 542 592 596 633 q 546 789 542 706 l 546 788 q 554 945 551 888 q 560 1018 557 1003 q 340 965 457 965 q 381 682 381 868 q 375 663 381 668 q 309 692 339 678 q 257 719 279 706 q 139 638 218 678 l 140 639 q 21 624 90 624 q 38 514 32 575 q 43 379 43 453 q 42 340 43 365 q 41 290 42 315 q 40 242 40 264 q 39 213 39 221 q 49 124 39 160 q 86 60 60 88 q 155 13 113 33 q 263 -25 197 -7 q 396 113 354 64 q 542 -29 426 14 q 674 182 600 29 l 653 196 l 653 194 l 624 217 q 583 165 606 165 q 563 172 571 165 q 551 198 556 179 q 544 249 546 217 q 543 332 543 282 l 543 426 q 544 482 544 458 q 544 522 544 507 q 617 564 575 564 q 710 528 683 564 q 738 413 738 492 q 735 219 738 297 q 728 97 732 140 q 661 -118 714 -36 l 663 -117 q 652 -131 663 -117 q 627 -165 642 -146 q 597 -201 613 -183 q 574 -225 582 -219 q 597 -257 576 -243 q 688 -192 642 -231 q 781 -100 733 -153 q 871 13 860 -11 q 907 376 907 92 m 381 182 q 322 132 343 132 q 215 186 304 132 q 204 253 204 206 l 204 342 q 206 466 204 408 q 210 572 207 524 q 332 522 303 522 q 359 556 347 542 q 379 579 371 569 q 381 539 381 560 q 381 496 381 518 l 381 374 q 380 351 381 375 q 378 278 379 326 l 378 249 q 378 213 378 229 q 381 182 379 196 z "},"=":{"ha":481,"x_min":24,"x_max":457,"o":"m 457 478 l 456 489 l 447 488 q 436 491 440 490 q 432 492 432 492 q 376 479 436 492 l 378 479 q 322 474 347 476 q 275 472 297 472 q 255 473 268 472 q 226 474 242 474 q 197 476 211 475 q 174 476 182 476 q 32 368 32 476 q 33 358 32 363 l 33 349 l 38 349 q 403 364 364 349 q 451 436 433 376 l 451 435 q 456 460 454 449 q 457 478 457 471 m 450 294 l 449 306 l 439 304 q 428 308 432 307 q 425 308 425 308 q 368 296 418 308 l 369 296 q 314 291 339 293 q 267 289 289 289 q 247 290 260 289 q 218 291 233 290 q 188 292 203 292 q 165 293 174 293 q 24 186 24 293 q 25 176 24 181 l 25 165 q 185 165 119 165 q 293 167 250 165 q 361 174 336 169 q 400 185 386 178 q 421 203 414 192 q 435 231 428 214 q 450 294 450 265 z "},">":{"ha":1033,"x_min":22,"x_max":1011,"o":"m 1011 182 q 982 211 1011 211 q 966 205 972 211 q 955 190 960 199 q 947 176 950 182 q 939 169 943 169 q 899 226 924 169 q 880 257 892 231 q 854 321 868 283 q 827 400 840 358 q 806 476 814 442 q 942 664 886 564 l 936 683 l 925 689 l 926 688 l 904 703 q 873 661 890 669 q 817 653 856 653 q 704 724 746 653 q 546 564 592 635 q 548 651 546 593 q 553 775 550 710 q 558 899 556 840 q 560 986 560 957 l 560 1013 q 343 961 458 961 q 382 696 382 874 q 374 665 382 665 q 261 718 343 665 q 206 674 236 694 q 140 636 176 654 l 142 638 q 22 622 93 622 q 43 415 43 526 q 42 372 43 400 q 40 314 42 343 q 38 260 39 285 q 38 226 38 236 q 49 130 38 169 q 88 62 61 90 q 158 14 114 33 q 264 -24 201 -6 q 292 -3 282 -10 q 312 16 301 4 q 341 49 322 28 q 397 114 360 71 q 546 -26 428 14 q 674 175 606 32 q 655 197 672 188 q 624 208 638 207 q 588 167 608 167 q 544 342 544 167 l 544 399 q 557 472 547 438 q 599 535 567 507 q 733 483 635 497 q 680 435 703 457 q 639 396 657 414 q 653 317 639 367 q 690 214 668 267 q 735 115 711 161 q 779 49 760 69 q 831 3 803 22 q 889 -29 858 -15 q 920 15 900 -17 q 960 80 940 46 q 996 144 981 114 q 1011 182 1011 174 m 383 182 q 325 132 347 132 q 215 186 304 132 q 207 251 207 204 l 207 339 q 208 465 207 407 q 213 571 210 522 q 335 521 306 521 q 354 547 342 532 q 382 578 367 561 q 380 479 381 529 q 378 379 379 429 l 378 339 q 379 255 378 294 q 383 182 381 215 z "},"?":{"ha":428,"x_min":22,"x_max":406,"o":"m 406 804 q 388 878 406 844 q 342 935 371 911 q 273 973 313 960 q 190 986 233 986 q 93 965 140 986 q 79 931 90 956 q 56 878 68 907 q 33 819 43 849 q 22 772 22 790 q 50 721 22 721 q 92 738 85 721 q 103 774 100 754 q 115 811 106 794 q 164 828 125 828 q 224 797 203 828 l 222 799 q 244 710 244 756 q 219 646 244 685 q 168 567 215 626 l 168 568 q 144 539 154 551 q 128 517 135 526 l 128 518 q 91 470 104 489 q 71 437 78 451 q 62 408 64 422 q 60 375 60 394 q 254 215 60 218 q 284 249 265 225 q 320 301 303 274 q 351 356 338 329 q 368 397 365 382 l 367 396 l 369 407 q 329 456 369 456 q 300 433 304 456 l 301 435 q 272 382 286 399 l 243 381 q 199 394 214 381 q 185 428 185 408 l 185 426 l 186 429 q 279 569 186 475 q 392 729 382 676 l 390 726 q 406 804 406 768 m 306 115 q 291 144 306 129 q 256 172 276 160 q 216 193 236 185 q 185 201 196 201 q 156 188 164 201 l 157 189 q 138 163 147 178 q 119 133 128 149 q 106 101 111 117 q 101 72 101 85 q 115 44 101 57 q 147 19 128 31 q 188 2 167 8 q 224 -4 208 -4 q 248 12 233 -4 q 275 48 263 28 q 297 88 288 68 q 306 115 306 107 z "},"@":{"ha":1279,"x_min":47,"x_max":1267,"o":"m 656 -308 q 1022 -202 867 -308 q 1267 121 1178 -96 l 1207 121 q 1120 -33 1175 36 q 993 -151 1065 -101 q 835 -226 921 -200 q 657 -253 750 -253 q 446 -214 542 -253 q 281 -105 350 -175 q 173 61 211 -35 q 135 272 135 157 q 182 524 135 411 q 310 719 229 638 q 498 844 390 800 q 725 889 606 889 q 896 858 818 889 q 1031 773 974 828 q 1119 640 1088 718 q 1151 469 1151 563 q 1117 286 1151 372 q 1007 129 1082 200 q 867 57 933 57 q 835 70 849 57 q 821 101 821 83 q 842 206 821 135 l 969 643 l 786 635 l 771 582 q 672 661 747 661 q 599 642 635 661 q 490 560 542 610 q 399 445 439 510 q 337 305 360 381 q 314 149 314 229 q 346 35 314 79 q 435 -8 378 -8 q 546 35 494 -8 q 650 167 597 79 q 646 117 646 139 q 688 23 646 54 q 792 -8 729 -8 q 949 28 874 -8 q 1081 128 1024 64 q 1173 283 1139 193 q 1207 483 1207 374 q 1174 664 1207 579 q 1077 812 1140 749 q 922 912 1014 875 q 711 949 829 949 q 454 901 575 949 q 243 769 333 854 q 100 563 153 683 q 47 296 47 443 q 93 53 47 164 q 220 -139 139 -58 q 413 -264 301 -219 q 656 -308 525 -308 m 689 596 q 729 517 729 596 q 717 426 729 476 q 686 327 706 376 q 640 234 667 278 q 583 163 613 190 q 538 132 553 132 q 506 186 506 132 q 526 311 506 240 q 575 445 546 382 q 635 552 604 508 q 689 596 667 596 z "},"A":{"ha":1065,"x_min":22,"x_max":1043,"o":"m 1043 206 l 988 243 q 946 172 968 172 q 909 200 924 172 q 894 283 894 228 l 894 583 q 884 755 894 683 q 857 871 874 826 l 857 869 q 678 994 811 994 l 679 994 q 667 996 674 996 q 651 996 660 996 q 453 1006 463 996 l 490 1028 l 479 1043 l 492 1068 q 428 1045 467 1065 q 352 999 389 1025 q 288 944 315 972 q 261 896 261 915 q 397 835 261 835 l 497 835 q 410 636 474 756 q 338 648 378 639 q 249 671 297 657 q 203 542 238 593 q 342 518 275 524 q 22 133 147 238 l 188 75 l 186 75 q 378 9 289 32 q 544 -19 467 -14 l 543 -8 q 641 113 604 69 q 693 193 678 157 l 671 215 q 640 228 651 228 q 621 185 628 200 q 606 163 614 169 q 585 154 597 156 q 554 153 574 153 q 487 163 524 153 q 410 188 450 172 q 327 223 369 204 q 243 260 285 242 q 337 388 293 326 q 419 508 381 450 l 589 508 q 658 507 629 507 q 707 507 688 507 q 714 297 714 388 q 726 142 714 207 q 773 33 739 76 q 883 -33 807 -10 q 908 -1 885 -32 q 959 72 931 31 q 1013 151 988 113 q 1043 206 1038 189 m 707 685 q 706 665 707 678 q 704 633 706 653 q 663 631 685 632 q 618 631 642 631 l 493 632 q 585 829 546 717 q 595 830 590 829 q 604 831 600 831 q 685 798 663 831 q 707 685 707 765 z "},"B":{"ha":1040,"x_min":22,"x_max":1017,"o":"m 1017 404 q 947 561 1017 481 l 946 561 q 829 663 894 619 q 888 719 872 689 q 904 810 904 750 q 904 835 904 822 q 903 858 904 847 l 903 857 l 903 996 q 893 1014 903 1004 q 875 1032 883 1024 q 754 1008 797 1008 q 603 1053 699 1008 q 544 1025 571 1043 q 493 978 518 1007 q 444 906 468 949 q 393 801 419 863 q 322 893 356 850 q 288 964 288 936 q 306 991 288 975 q 344 1024 325 1007 l 338 1028 q 329 1047 332 1039 q 324 1060 326 1054 q 221 1005 261 1028 q 157 963 181 982 q 124 924 133 943 q 115 885 115 906 q 153 792 115 847 l 151 793 q 212 694 182 746 q 274 588 242 643 l 272 594 q 281 577 272 594 q 298 536 289 560 q 315 485 307 513 q 324 440 324 458 q 318 404 324 426 q 304 358 313 382 q 287 312 296 333 q 271 278 278 290 q 218 285 236 285 q 159 268 188 285 q 106 221 131 251 q 59 149 81 190 q 22 58 38 108 q 60 43 40 58 q 125 111 99 111 q 159 104 135 111 q 216 87 183 97 q 287 63 249 76 q 363 39 325 50 q 543 -7 467 7 q 668 -22 619 -21 q 699 -22 686 -22 q 732 -6 713 -21 q 783 43 751 8 q 871 146 814 78 q 963 260 932 219 q 1005 323 993 300 q 1017 361 1017 346 q 1017 404 1017 378 m 844 239 q 828 176 844 199 q 749 165 799 165 q 338 257 604 165 q 358 284 349 271 q 378 311 368 297 l 378 310 q 413 367 396 340 q 442 425 429 394 q 464 492 456 456 q 472 578 472 529 q 469 608 472 588 q 460 651 465 629 q 452 693 456 674 q 449 721 449 713 q 510 871 449 764 q 562 851 543 858 q 597 840 581 843 q 629 835 613 836 q 674 835 646 835 l 707 835 l 707 754 q 671 633 707 661 q 546 585 654 622 l 546 538 q 766 459 688 538 q 844 239 844 381 z "},"C":{"ha":861,"x_min":22,"x_max":838,"o":"m 808 1019 q 784 1010 794 1019 q 762 990 774 1001 q 733 970 750 979 q 690 961 717 961 q 489 1008 582 961 q 468 983 483 1003 q 428 926 453 963 q 338 858 390 876 q 372 682 372 781 q 321 363 372 496 q 310 322 310 332 q 310 315 310 319 q 311 306 310 313 l 311 288 q 401 374 364 329 q 460 476 438 419 q 492 604 482 533 q 501 769 501 675 q 501 778 501 772 q 500 790 501 783 l 500 813 q 521 808 500 813 q 571 797 542 803 q 631 785 600 790 q 681 781 661 781 q 731 790 710 781 q 753 824 740 794 q 779 892 767 854 q 800 965 792 929 q 808 1019 808 1001 m 838 299 l 782 328 q 679 209 747 251 q 526 167 611 167 q 283 260 367 167 q 200 518 200 354 q 326 801 200 671 l 299 832 q 154 799 249 799 l 143 799 q 22 475 22 638 q 42 342 22 411 q 95 212 61 274 q 174 101 129 150 q 271 26 219 51 q 474 -17 358 -17 q 746 65 626 -17 q 838 299 760 153 z "},"D":{"ha":1160,"x_min":25,"x_max":1135,"o":"m 1135 565 q 1119 678 1135 622 q 1076 785 1104 735 q 1008 876 1049 835 q 917 943 968 917 q 513 1014 776 1014 q 472 1010 503 1014 q 404 1003 440 1007 q 336 995 368 999 q 293 992 304 992 l 286 992 q 305 1021 296 1008 q 322 1043 314 1033 q 283 1069 310 1057 q 240 1022 263 1050 q 200 963 218 993 q 170 904 182 933 q 158 856 158 875 q 226 817 158 817 q 281 821 244 817 q 358 829 318 825 q 433 838 397 833 q 488 842 469 842 q 680 819 593 842 q 829 753 767 796 q 926 649 892 711 q 960 507 960 586 q 931 304 960 414 q 825 157 892 157 q 606 197 743 157 q 458 242 513 225 q 389 261 404 258 l 392 261 l 346 272 q 417 324 386 303 q 469 361 449 346 l 468 361 q 539 606 539 421 q 538 630 539 614 q 536 664 538 646 q 534 698 535 682 q 533 721 533 714 q 554 756 533 746 q 594 776 575 765 q 590 822 590 794 l 490 806 q 435 790 457 800 q 399 756 413 781 q 378 685 385 731 q 367 563 371 639 q 322 361 360 399 q 284 325 300 340 q 257 300 268 310 q 218 306 236 306 q 169 298 190 306 q 130 273 147 290 q 97 227 113 256 q 65 156 82 199 q 25 68 40 89 l 49 49 l 47 50 l 74 32 q 176 129 108 129 q 231 117 189 129 q 322 90 272 106 q 422 56 372 74 q 503 28 472 39 q 536 17 533 18 q 842 -25 696 -25 q 942 146 910 88 q 1007 242 974 194 q 1072 339 1040 289 q 1119 447 1104 390 q 1135 565 1133 503 z "},"E":{"ha":938,"x_min":24,"x_max":913,"o":"m 897 1051 l 847 1063 q 848 1056 847 1060 q 849 1049 849 1051 q 837 1013 849 1025 q 807 994 825 1000 q 768 989 789 989 q 731 989 749 989 q 479 1029 643 989 q 358 865 444 926 q 403 656 399 810 q 358 658 378 657 q 325 658 339 658 q 282 563 301 603 q 247 496 263 522 q 275 497 256 496 q 315 497 294 497 q 356 498 338 497 q 383 499 375 499 q 337 397 357 440 q 301 325 317 353 q 342 342 319 328 q 385 381 364 357 q 428 435 407 404 q 467 499 450 465 q 519 499 483 499 q 593 500 554 500 q 669 501 633 500 q 721 501 704 501 q 822 492 789 501 q 860 642 832 606 l 846 664 q 690 656 801 656 l 521 656 q 529 758 529 703 q 525 842 529 793 q 633 828 588 832 q 710 824 678 824 q 839 838 769 824 q 897 1051 890 931 m 913 268 q 891 288 900 279 q 875 303 882 296 q 572 175 731 175 q 419 202 488 175 q 301 278 350 229 q 226 396 253 326 q 200 549 200 465 q 336 803 200 692 q 310 840 328 831 q 135 794 215 799 q 24 493 24 679 q 61 285 24 381 q 167 122 99 190 q 329 15 235 53 q 538 -24 424 -24 q 838 71 685 -24 q 913 268 851 174 z "},"F":{"ha":683,"x_min":22,"x_max":635,"o":"m 635 158 q 536 433 635 282 q 506 481 517 464 q 493 501 494 499 q 608 497 594 497 q 611 522 608 506 q 618 557 614 539 q 625 592 622 575 q 628 617 628 608 q 583 617 613 617 q 519 618 553 618 q 456 619 486 618 q 411 619 425 619 q 369 683 382 653 l 369 681 q 363 695 367 688 q 353 713 358 703 l 353 711 q 309 795 328 760 q 278 854 290 831 l 279 853 l 272 879 l 276 882 q 332 865 307 874 q 376 850 357 857 l 375 850 q 490 824 438 824 q 525 829 513 824 l 524 829 q 559 863 540 836 q 593 922 578 889 q 618 988 608 954 q 628 1043 628 1021 l 588 1071 l 581 1046 l 581 1047 q 554 1000 561 1007 l 529 999 q 433 1019 489 999 l 333 1061 q 121 821 264 907 q 106 772 106 799 q 179 617 106 707 l 57 617 q 38 551 47 581 q 22 499 29 522 q 115 497 57 497 q 256 496 172 496 q 324 394 289 444 q 390 290 358 343 q 438 175 424 238 q 453 46 451 113 q 411 -83 453 -11 q 353 -56 385 -76 q 292 -8 322 -36 q 235 51 261 19 q 196 113 210 83 l 196 111 q 183 174 183 149 q 194 226 183 197 l 193 225 q 240 299 222 265 l 240 297 q 256 344 251 315 q 238 347 247 346 q 219 350 229 347 q 207 338 213 343 q 197 331 201 333 l 199 332 q 145 284 171 311 q 99 230 119 257 q 67 177 79 203 q 54 133 54 151 q 140 -118 54 -24 q 371 -262 203 -185 q 460 -122 389 -190 q 547 -42 518 -69 q 576 -12 575 -14 q 635 158 635 60 z "},"G":{"ha":1028,"x_min":25,"x_max":1003,"o":"m 853 989 q 853 997 853 992 q 851 1011 853 1004 l 851 1035 l 806 1035 q 782 971 806 971 q 526 1025 664 971 q 481 1038 494 1038 q 347 892 436 943 q 400 664 400 783 q 272 351 400 517 l 301 350 q 376 391 339 350 q 444 494 414 432 q 494 633 475 557 q 514 778 514 708 q 513 802 514 789 q 511 833 513 815 q 739 793 661 793 q 776 797 761 793 q 803 813 792 801 q 822 842 814 824 q 836 888 829 860 q 853 989 853 943 m 1003 708 q 828 683 933 683 q 717 688 771 683 q 611 703 664 693 q 574 597 606 656 l 574 599 l 565 583 l 567 585 q 503 501 549 551 l 525 493 l 524 493 l 546 476 q 581 513 569 500 q 593 526 592 525 q 728 514 664 514 q 801 518 765 514 l 801 517 q 788 332 788 439 l 788 236 q 778 160 788 175 q 675 142 754 142 q 490 165 582 142 l 492 165 q 379 213 431 182 l 381 213 q 258 339 301 258 q 214 511 214 419 q 224 589 214 543 q 244 679 233 635 l 243 678 q 324 829 282 788 q 308 850 314 840 q 296 867 301 860 q 139 817 238 819 q 25 488 25 707 q 49 330 25 406 q 119 191 74 254 q 226 81 164 128 q 364 10 289 33 q 639 -22 468 -22 l 649 -17 l 647 -18 q 799 70 738 28 q 900 154 861 113 q 956 240 939 196 q 972 336 972 285 l 972 524 q 983 622 975 575 q 1003 708 990 668 z "},"H":{"ha":981,"x_min":21,"x_max":957,"o":"m 957 411 q 928 537 957 474 q 854 652 900 600 q 750 737 808 704 q 632 769 692 769 q 367 621 540 769 q 338 824 338 735 q 372 872 338 854 q 438 855 397 864 q 522 838 478 846 q 608 824 567 829 q 675 819 650 819 q 731 825 713 819 l 729 825 q 767 855 750 831 q 797 913 785 879 q 817 984 810 946 q 824 1057 824 1022 l 769 1057 q 763 1003 769 1028 q 690 997 751 997 q 428 1057 543 997 q 393 1008 419 1036 q 333 952 367 981 q 260 899 299 924 q 188 860 221 875 q 143 701 143 751 q 151 619 143 674 q 170 505 160 565 q 190 390 181 444 q 199 308 199 336 q 21 140 199 197 q 105 81 51 108 q 221 31 158 53 q 351 -3 283 10 q 478 -18 418 -17 q 496 13 479 -12 q 533 71 513 39 q 572 133 553 103 q 594 179 590 164 l 585 197 q 546 214 563 203 q 522 166 535 182 q 481 150 508 150 q 331 189 407 150 l 328 190 l 329 190 q 295 210 310 201 q 274 222 281 218 q 349 342 326 283 l 349 340 q 376 443 365 399 q 392 518 386 488 l 392 517 q 410 555 397 535 q 438 593 422 575 q 472 623 454 611 q 503 635 489 635 q 599 610 556 635 q 675 542 643 585 q 725 443 707 500 q 743 324 743 386 q 672 22 743 161 q 469 -210 600 -117 l 494 -239 q 544 -222 513 -235 l 543 -222 q 687 -128 618 -185 q 810 -3 756 -71 q 902 139 865 65 q 950 282 939 213 q 955 338 953 306 q 957 411 957 371 z "},"I":{"ha":692,"x_min":22,"x_max":663,"o":"m 663 1047 q 464 1004 563 1004 q 204 1064 340 1004 q 163 953 190 1008 q 94 843 135 899 l 132 811 q 189 856 165 856 q 238 850 201 856 q 317 838 274 844 q 401 825 360 831 q 464 819 442 819 q 444 690 444 774 q 446 610 444 664 q 449 499 447 557 q 453 387 451 440 q 454 307 454 333 q 436 132 454 164 q 367 158 413 132 q 277 222 322 185 q 198 298 232 258 q 164 363 164 338 q 185 410 164 386 q 233 442 206 433 l 233 444 q 217 482 233 458 q 76 408 131 465 q 22 271 22 350 q 153 81 22 176 q 374 -22 268 -1 q 394 14 376 -6 q 436 54 411 33 q 492 97 461 75 q 551 143 522 119 q 603 191 585 169 q 631 237 622 213 q 643 290 640 261 q 647 360 646 318 q 647 385 647 374 q 646 406 647 396 l 646 404 q 638 836 638 597 q 663 1047 638 915 z "},"J":{"ha":767,"x_min":22,"x_max":764,"o":"m 764 636 l 653 636 q 655 788 653 728 q 663 894 657 849 q 678 977 668 939 q 704 1063 688 1015 q 463 1011 588 1011 q 217 1067 318 1011 q 104 836 188 943 l 133 833 l 133 835 l 151 821 q 185 856 167 839 q 217 878 203 874 q 482 849 335 849 q 477 801 479 826 q 475 747 475 776 l 475 638 l 354 638 q 332 556 343 585 l 332 557 q 323 537 326 546 q 317 519 319 528 l 474 519 q 472 474 472 497 q 471 428 471 451 q 472 357 471 404 q 476 258 474 310 q 480 158 478 206 q 482 88 482 111 q 440 -103 482 -68 l 442 -103 q 422 -110 435 -110 q 384 -97 408 -110 q 332 -66 360 -85 q 277 -26 304 -47 q 232 14 250 -4 q 174 163 174 74 q 231 263 174 213 q 261 284 236 267 q 332 333 286 301 q 307 372 324 356 q 267 352 283 361 q 239 336 250 343 l 240 336 q 205 318 221 326 q 176 300 189 310 l 178 300 q 22 79 22 199 q 356 -289 22 -100 q 481 -150 392 -224 q 560 -80 529 -110 q 604 -32 590 -50 q 661 154 661 46 q 660 208 661 172 q 657 283 658 244 q 654 358 656 322 q 653 413 653 394 l 653 467 q 654 500 654 486 q 654 521 654 514 l 743 521 q 764 636 761 581 z "},"K":{"ha":906,"x_min":22,"x_max":896,"o":"m 769 -18 q 822 93 769 21 q 896 228 881 169 l 847 240 q 824 206 838 206 q 744 296 801 206 l 746 294 q 672 465 679 394 q 720 499 696 482 q 764 533 744 515 q 795 573 783 551 q 807 622 807 594 q 783 692 807 658 q 724 751 760 725 q 645 793 689 778 q 563 808 601 808 q 502 792 533 808 q 440 748 471 776 q 380 681 408 719 q 329 599 351 643 q 321 724 321 629 q 326 786 321 754 q 340 843 331 818 q 361 884 349 868 q 388 900 374 900 q 407 896 396 900 q 754 833 583 833 q 867 1008 793 833 l 869 1028 q 831 1050 840 1043 q 767 999 804 999 q 500 1064 656 999 q 453 1022 482 1046 q 392 975 424 997 q 333 935 361 953 q 290 913 306 918 q 218 890 253 900 q 172 865 183 881 q 128 679 128 804 q 135 606 128 654 q 153 505 143 558 q 170 403 163 451 q 178 331 178 356 q 172 277 178 300 q 150 233 167 254 q 103 192 133 213 q 22 144 72 171 q 413 -18 178 1 q 476 108 458 40 l 475 107 q 502 155 490 135 q 524 189 514 175 q 478 210 508 199 q 421 153 443 154 l 424 153 q 330 180 378 160 q 232 219 282 200 q 340 414 308 290 q 389 585 382 572 q 536 658 429 658 q 573 648 554 658 q 606 622 592 638 q 630 586 621 606 q 639 550 639 567 q 500 424 639 478 q 683 26 543 150 q 769 -18 735 -18 z "},"L":{"ha":864,"x_min":21,"x_max":863,"o":"m 863 1049 q 835 1054 847 1051 q 815 1060 822 1057 q 772 994 796 994 q 722 1001 753 994 q 656 1019 690 1008 q 588 1043 621 1029 q 533 1069 556 1057 q 471 989 503 1021 q 407 939 439 957 l 408 939 l 389 928 l 390 928 q 352 907 371 917 q 317 889 333 897 l 318 889 q 250 740 250 851 q 254 685 250 719 q 265 610 258 651 q 280 525 272 569 q 294 439 288 481 q 306 362 301 397 q 310 306 310 326 l 310 297 q 268 246 310 246 q 188 247 188 246 q 191 248 188 247 q 201 249 194 249 q 169 244 182 247 q 144 228 156 240 q 118 190 132 215 q 83 121 104 164 q 44 42 60 72 q 21 1 28 13 l 68 -28 q 165 67 108 67 q 230 60 189 67 q 320 44 271 54 q 423 24 369 35 q 526 4 476 14 q 619 -12 576 -6 q 688 -18 661 -18 q 775 -10 733 -18 q 786 39 776 8 q 808 101 796 69 q 831 157 821 132 q 844 190 842 182 q 808 203 824 200 l 801 214 q 742 165 776 165 l 743 165 q 665 176 708 168 q 575 193 622 183 q 478 214 528 203 q 382 235 429 225 q 497 406 497 333 q 492 463 497 426 q 481 542 488 499 q 467 633 475 586 q 452 723 458 681 q 441 798 446 765 q 436 847 436 831 q 450 888 436 879 q 481 881 461 888 q 524 865 501 874 q 565 847 546 856 q 594 838 585 839 l 593 838 q 694 815 639 815 q 738 822 721 815 q 767 842 754 828 q 793 881 781 857 q 822 942 806 906 q 863 1049 858 1018 z "},"M":{"ha":1388,"x_min":24,"x_max":1378,"o":"m 1378 196 q 1322 225 1346 201 q 1300 189 1307 189 q 1243 329 1267 189 q 1228 428 1233 385 q 1224 506 1224 472 q 1325 958 1224 790 l 1324 958 q 1335 981 1329 968 q 1346 1010 1340 993 q 1221 985 1285 985 q 1050 1019 1128 985 q 1019 993 1035 1004 q 989 975 1004 982 l 990 976 q 839 860 911 932 q 635 1029 782 978 q 596 1006 622 1018 q 540 984 569 994 q 485 964 511 974 q 444 946 458 954 q 338 822 385 907 q 314 851 322 840 q 298 872 306 863 q 281 892 290 881 q 253 921 271 903 q 225 965 225 951 q 247 994 225 981 l 244 993 l 265 1011 l 229 1046 q 57 879 57 936 q 107 786 57 850 q 167 708 143 740 q 201 658 190 676 q 251 489 251 572 q 207 297 251 393 l 207 299 q 24 143 168 226 q 91 88 60 111 q 156 48 122 65 q 231 17 190 31 q 329 -11 272 3 l 335 -12 q 369 3 351 -12 q 406 44 386 18 q 446 102 425 69 q 490 168 467 135 l 490 171 q 484 187 490 182 q 471 199 478 192 q 476 217 476 204 l 476 229 q 415 165 433 165 q 395 172 413 165 q 365 183 378 178 q 349 189 351 188 l 350 189 q 299 213 321 203 q 261 229 276 222 q 342 319 311 279 q 392 395 374 358 q 417 469 410 432 q 424 551 424 506 q 419 588 424 564 q 410 635 415 611 q 401 678 406 658 q 397 700 397 697 q 424 823 397 774 q 497 872 450 872 q 603 819 546 872 q 671 635 671 757 l 507 633 l 507 511 l 669 510 q 463 93 657 279 q 548 58 494 78 q 656 22 601 39 q 756 -6 710 6 q 819 -18 801 -18 q 848 1 831 -18 q 883 47 865 19 q 916 106 900 75 q 939 163 932 138 l 939 161 l 964 211 l 911 215 q 869 174 896 174 q 672 226 819 174 q 839 510 806 332 q 897 511 860 511 q 992 511 936 511 l 992 572 q 990 608 990 594 q 990 633 990 624 l 849 633 q 929 854 849 772 q 1015 824 965 831 q 1114 811 1065 818 q 1026 442 1026 663 q 1035 286 1026 354 q 1065 163 1044 218 q 1119 61 1086 107 q 1200 -26 1151 15 q 1229 -1 1213 -19 q 1263 39 1246 18 q 1294 78 1279 60 q 1317 103 1308 96 q 1378 196 1351 161 z "},"N":{"ha":1017,"x_min":25,"x_max":1004,"o":"m 1004 207 q 981 221 992 218 l 982 221 l 957 236 l 940 194 q 881 335 906 199 q 863 506 863 438 q 918 853 863 664 l 917 853 l 953 960 l 951 958 q 963 991 958 978 q 969 1014 967 1004 q 808 986 871 986 q 588 1043 693 986 q 510 988 543 1013 q 458 946 478 964 l 460 946 q 364 836 413 906 q 318 903 338 875 q 285 951 299 932 l 286 950 q 279 971 279 964 q 322 1013 279 990 q 303 1039 311 1028 q 289 1057 294 1050 q 214 1020 249 1040 q 154 978 179 1000 q 115 935 129 957 q 100 896 100 914 q 160 768 100 858 q 239 629 229 658 q 261 456 261 568 q 25 139 261 279 q 66 120 39 133 q 122 92 93 107 q 176 63 150 76 q 215 44 203 50 q 431 -26 353 -8 q 495 31 474 11 q 518 51 517 50 q 590 144 550 83 l 590 143 l 610 172 q 571 201 583 194 q 503 153 528 156 q 501 154 503 153 l 497 154 q 447 160 475 154 q 388 178 418 167 q 330 203 358 189 q 281 233 301 218 l 286 238 l 286 236 q 350 290 319 257 q 403 363 381 324 q 440 443 426 401 q 454 524 454 485 q 415 740 454 614 l 413 743 q 465 836 429 817 q 646 792 546 792 q 699 794 674 792 q 749 799 725 796 q 703 703 721 744 q 676 621 686 661 q 662 537 665 581 q 658 436 658 493 q 704 124 658 263 q 722 84 711 101 q 751 50 733 67 q 798 16 769 33 q 869 -24 826 -1 q 1004 207 982 135 z "},"O":{"ha":1119,"x_min":24,"x_max":1103,"o":"m 1103 579 q 1025 864 1103 778 l 1026 863 q 910 969 969 933 l 911 969 q 572 1064 775 1064 q 510 1062 543 1064 q 440 1054 476 1060 q 336 894 440 950 q 400 671 400 781 q 356 486 400 599 q 313 365 313 378 l 321 365 q 329 364 325 364 q 365 390 335 364 q 435 450 394 417 q 521 732 521 629 q 481 875 521 814 q 561 882 504 882 q 932 581 872 882 l 932 582 q 935 557 932 575 q 942 517 939 539 q 947 474 944 494 q 950 440 950 453 q 886 208 950 251 q 665 143 792 143 q 492 175 574 143 q 349 263 410 207 q 251 397 288 319 q 215 567 215 475 q 281 781 215 669 l 279 779 q 343 854 314 831 l 326 868 l 326 890 q 160 839 243 846 q 102 778 128 814 q 59 699 76 743 q 33 608 42 656 q 24 510 24 560 q 64 318 24 414 q 615 -17 206 -17 q 625 -17 619 -17 q 642 -15 632 -17 l 668 -15 q 1103 579 1103 186 z "},"P":{"ha":894,"x_min":24,"x_max":872,"o":"m 217 1010 l 214 1017 l 213 1017 q 217 1010 215 1011 m 872 1028 q 713 989 799 989 q 492 1033 585 989 q 303 825 344 886 q 249 888 272 861 q 208 932 226 915 l 210 932 l 200 953 l 201 960 q 209 972 201 968 q 228 975 217 975 l 244 975 q 215 1011 219 997 l 203 1024 q 146 985 176 1008 q 89 936 115 961 q 45 888 63 911 q 28 850 28 865 q 39 824 28 842 q 65 788 50 807 q 93 751 79 768 q 111 726 107 733 q 140 621 140 674 l 140 253 q 24 51 50 203 q 49 33 38 40 q 67 21 60 26 q 81 60 75 44 q 94 83 86 75 q 114 97 103 92 q 143 104 125 101 l 143 -169 q 129 -310 143 -236 q 219 -269 136 -310 q 292 -234 264 -247 q 336 -218 321 -221 l 336 64 q 415 33 375 49 q 492 6 454 18 q 563 -15 529 -7 q 621 -25 596 -24 q 692 100 638 25 l 692 99 q 749 154 719 126 q 801 213 778 182 q 840 278 825 243 q 856 356 856 313 q 852 457 856 389 q 845 601 849 525 q 838 744 842 676 q 835 846 835 813 q 872 1028 835 915 m 675 240 l 675 243 q 671 192 672 217 q 663 167 669 167 q 504 207 633 167 q 419 235 461 221 q 336 263 378 249 q 337 328 336 283 q 338 422 338 374 q 340 516 339 471 q 340 582 340 561 q 425 844 340 751 q 592 811 501 811 q 625 812 611 811 q 650 814 639 813 q 642 717 642 778 q 644 664 642 696 q 650 601 647 632 q 656 549 653 571 q 658 529 658 528 q 675 240 675 326 z "},"Q":{"ha":1153,"x_min":24,"x_max":1144,"o":"m 1144 181 l 1126 189 l 1128 188 l 1113 194 l 1114 193 l 1093 199 q 1049 140 1068 140 q 939 206 1008 140 q 1044 343 985 253 l 1044 342 q 1113 582 1113 440 q 1073 767 1113 686 q 960 905 1033 849 q 783 991 888 961 q 550 1021 679 1021 q 453 1013 540 1021 q 449 949 453 974 q 433 905 444 924 q 401 872 422 886 q 344 839 379 857 q 415 538 415 685 q 340 250 415 404 q 286 310 311 275 q 242 384 261 344 q 211 465 222 424 q 200 542 200 506 q 228 660 200 593 l 228 658 q 338 792 281 753 l 328 814 l 328 813 l 315 842 q 136 789 251 789 q 24 460 24 656 q 59 279 24 364 q 156 131 94 194 q 302 31 218 68 q 482 -7 386 -7 q 801 82 657 -7 q 1025 -28 915 -22 q 1047 10 1031 -15 q 1081 66 1063 36 q 1118 127 1100 96 q 1144 181 1136 158 m 953 478 q 879 267 953 368 q 823 331 850 299 q 767 389 796 363 q 708 431 739 415 q 640 447 676 447 q 489 407 586 447 q 558 656 558 539 q 524 836 558 711 q 582 843 549 843 q 728 815 660 843 q 846 738 796 788 q 924 622 896 689 q 953 478 953 556 m 729 153 q 629 143 690 143 q 381 218 481 143 q 405 259 396 244 q 415 276 414 274 l 415 275 q 492 338 450 338 q 729 153 558 338 z "},"R":{"ha":1067,"x_min":22,"x_max":1054,"o":"m 1054 190 q 1045 210 1054 203 q 1026 224 1036 217 q 976 183 993 183 q 944 207 961 183 l 944 206 q 769 550 850 321 q 907 643 885 615 q 940 807 940 686 q 956 1035 940 971 q 817 989 885 989 q 592 1025 757 989 q 479 922 488 932 l 481 922 q 414 822 449 889 q 350 963 350 915 q 379 996 350 972 l 358 1032 q 269 994 307 1017 l 271 994 q 219 967 238 979 q 191 944 200 956 q 179 917 182 932 q 176 882 176 903 q 247 690 176 829 q 318 449 318 550 q 265 256 318 329 q 200 272 221 272 q 164 267 179 272 q 134 250 149 263 q 103 215 119 238 q 65 156 88 192 l 67 156 q 44 124 56 139 q 22 97 33 110 q 41 83 32 90 q 57 68 50 75 q 128 106 99 106 l 132 104 q 165 96 139 104 q 226 76 192 88 q 299 49 261 64 q 369 23 338 35 q 422 3 401 11 q 442 -4 443 -4 l 440 -4 q 572 -25 515 -25 q 627 78 600 24 q 665 178 654 132 l 642 185 l 646 185 l 618 193 q 582 143 597 143 q 503 165 565 143 l 504 165 q 476 176 489 172 q 456 183 464 181 l 457 183 q 401 203 425 194 q 361 218 376 211 l 363 218 l 326 232 q 500 553 500 382 q 471 707 500 608 q 489 794 478 756 q 515 860 500 832 q 692 815 628 815 q 742 821 721 815 q 740 796 740 814 q 742 764 740 785 q 747 721 744 743 q 753 681 750 699 q 756 657 756 663 l 756 658 q 707 596 749 615 l 708 596 q 695 588 710 597 q 659 567 681 578 q 614 545 638 556 q 574 533 590 535 q 638 342 607 422 q 703 201 668 261 q 778 97 738 142 q 875 14 819 53 q 914 -13 899 -1 q 939 -35 929 -25 q 959 9 943 -22 q 1003 89 975 40 q 1054 190 1054 178 z "},"S":{"ha":967,"x_min":22,"x_max":950,"o":"m 950 457 q 851 625 950 556 q 667 717 806 660 q 737 785 710 757 q 775 826 764 813 l 775 825 q 853 972 853 915 q 850 1000 853 982 q 842 1046 847 1018 q 804 1029 821 1029 l 792 1029 q 724 944 792 944 q 622 961 685 944 l 624 960 q 521 1005 571 978 q 424 1071 471 1032 q 424 1063 424 1068 q 425 1050 424 1057 l 425 1029 q 329 938 425 983 q 153 846 182 865 q 57 675 57 776 q 228 442 57 531 l 226 442 l 253 426 q 185 350 218 388 q 117 274 151 313 q 22 110 22 160 q 65 26 22 71 q 104 58 90 38 q 81 94 81 82 q 136 135 81 135 q 386 68 224 135 q 639 -22 578 -10 l 636 -21 l 664 -25 q 763 132 685 43 q 888 279 879 265 q 950 457 950 368 m 625 774 q 538 690 589 738 q 421 585 488 643 q 249 729 249 644 q 363 872 249 796 q 625 774 486 790 m 757 333 q 689 164 757 233 q 611 187 658 169 q 518 223 564 204 q 438 257 472 242 q 397 275 403 272 q 236 311 333 297 q 368 443 306 390 l 367 443 q 397 472 375 453 q 442 509 418 490 q 485 542 465 528 q 507 556 504 556 q 710 454 588 556 q 757 333 757 415 z "},"T":{"ha":696,"x_min":22,"x_max":693,"o":"m 693 1060 l 650 1063 q 581 1008 647 1008 q 560 1011 574 1008 q 529 1017 546 1014 q 497 1024 513 1021 q 474 1026 482 1026 l 467 1026 l 468 1026 q 281 1064 343 1053 l 282 1064 q 224 1071 243 1071 q 169 1048 199 1071 q 111 988 139 1025 q 60 905 83 951 q 22 813 36 858 l 39 807 l 38 807 q 58 799 54 799 l 68 799 q 95 868 78 851 q 153 885 113 885 q 389 858 253 885 q 330 824 351 836 q 303 806 308 811 q 268 713 268 775 q 272 643 268 689 q 279 547 275 597 q 287 449 283 496 q 290 381 290 403 q 214 204 290 289 q 172 164 208 197 q 69 68 136 131 q 496 -17 306 -17 q 560 -15 528 -17 q 625 -10 593 -12 q 682 194 631 85 l 639 208 q 623 182 631 196 q 604 157 615 168 q 577 139 593 146 q 536 132 561 132 q 269 175 411 132 q 315 201 286 183 q 372 240 343 219 q 426 283 401 261 q 461 319 451 304 q 485 428 485 356 q 481 496 485 450 q 474 592 478 542 q 467 688 471 642 q 464 756 464 733 q 492 838 464 814 q 529 833 504 838 q 567 828 554 828 q 610 847 589 828 q 647 897 631 865 q 676 971 664 929 q 693 1060 688 1013 z "},"U":{"ha":1015,"x_min":22,"x_max":1003,"o":"m 1003 181 q 979 199 989 192 q 963 213 969 207 q 925 167 943 167 q 857 326 869 167 q 855 395 856 344 q 854 533 854 446 q 857 748 854 632 q 865 1001 860 864 l 865 1000 q 867 1034 867 1015 q 868 1075 868 1053 q 639 974 792 1015 q 668 865 664 932 l 668 207 q 554 161 611 161 q 293 243 454 161 q 358 321 333 289 q 397 378 383 353 q 415 426 410 403 q 419 476 419 449 q 347 739 419 576 q 276 951 276 903 q 342 1022 276 1006 q 333 1053 338 1040 q 326 1074 329 1065 q 108 975 186 1031 q 81 906 81 956 q 107 785 81 843 l 106 786 q 156 650 138 692 l 156 651 q 185 570 169 611 q 211 490 200 529 q 230 417 222 451 q 238 354 238 382 q 164 225 238 278 q 22 156 129 199 q 492 -24 269 29 q 686 133 588 35 q 867 -26 738 36 q 932 51 913 19 l 931 49 q 1003 181 972 94 z "},"V":{"ha":943,"x_min":22,"x_max":919,"o":"m 919 507 q 917 582 919 532 q 912 688 915 632 q 906 794 908 743 q 904 869 904 844 q 919 1018 904 964 l 901 1035 q 736 1006 819 1006 q 521 1049 640 1006 l 490 1026 l 490 1028 q 308 857 381 958 q 263 922 282 894 q 231 968 244 950 l 232 967 q 228 977 229 974 q 228 981 228 981 q 264 1008 228 992 l 246 1053 q 149 1008 186 1026 q 92 974 113 989 q 65 943 72 958 q 58 908 58 928 q 70 841 58 876 q 100 768 82 806 q 140 692 118 731 q 182 614 163 653 q 215 515 206 567 q 225 411 225 463 q 22 150 225 261 q 196 76 124 106 q 311 32 268 46 q 619 -26 442 -10 q 659 31 635 1 q 715 93 683 61 q 811 197 772 147 q 874 295 850 246 q 909 396 899 344 q 919 507 919 447 m 719 279 q 667 143 719 143 q 592 153 639 143 q 489 178 544 163 q 376 212 433 193 q 272 250 319 231 q 414 526 414 371 q 350 785 414 615 q 365 817 351 799 q 418 881 379 836 q 642 840 531 840 q 713 847 685 840 q 699 693 699 800 q 702 606 699 664 q 709 485 706 549 q 716 365 713 422 q 719 279 719 307 z "},"W":{"ha":1321,"x_min":24,"x_max":1310,"o":"m 1310 1054 q 1172 1015 1232 1015 q 1006 1056 1101 1015 q 953 1041 976 1050 q 905 1017 929 1032 q 852 976 881 1001 q 786 913 824 951 q 569 1061 672 1026 q 283 844 394 1003 q 241 913 263 879 q 219 972 219 947 q 264 1014 219 986 l 247 1061 q 166 1005 196 1025 q 129 978 136 985 q 56 864 56 917 q 143 644 56 815 q 209 497 186 561 q 232 385 232 432 l 232 381 q 224 313 232 343 q 194 258 215 283 q 137 210 174 233 q 44 163 100 188 l 50 164 l 47 163 q 24 146 33 160 q 293 15 150 54 l 292 15 q 392 -13 350 -3 q 457 -28 433 -24 q 534 56 503 24 q 581 101 565 88 q 982 -26 789 -1 q 1086 108 1026 56 l 1086 107 q 1235 251 1210 215 q 1283 450 1283 324 q 1281 522 1283 474 q 1276 623 1279 569 q 1270 724 1272 676 q 1268 796 1268 772 q 1310 1054 1268 951 m 1093 279 q 1090 239 1093 260 q 1082 201 1088 218 q 1069 174 1076 185 q 1053 163 1061 163 q 1040 164 1049 163 q 1026 165 1031 165 l 1029 165 q 828 215 853 206 l 829 215 q 772 240 801 226 q 713 268 743 253 q 813 508 807 363 q 885 507 849 508 q 961 503 922 506 l 957 633 l 822 633 q 822 667 822 647 q 824 715 822 688 l 824 799 q 834 860 824 839 q 879 901 844 882 q 1054 858 965 858 q 1073 860 1061 858 q 1090 861 1085 861 q 1075 722 1075 818 q 1088 376 1075 518 q 1092 321 1090 344 q 1093 279 1093 297 m 651 635 l 488 635 l 488 508 l 650 510 q 565 167 639 333 q 456 183 515 167 l 457 183 q 369 208 414 194 q 278 240 325 222 q 401 503 401 324 q 365 658 401 567 q 331 769 331 746 q 426 913 331 829 q 597 848 543 913 q 651 635 651 783 z "},"X":{"ha":1026,"x_min":24,"x_max":1003,"o":"m 1003 238 l 972 240 l 976 240 l 956 242 q 933 208 943 208 q 864 247 911 208 q 736 471 756 338 q 762 472 744 471 q 799 473 779 472 q 835 474 818 474 q 863 475 853 475 q 939 647 893 585 q 722 617 856 617 q 751 826 722 732 q 864 786 836 786 q 902 808 882 786 q 939 860 922 829 q 966 923 956 890 q 976 979 976 956 q 975 992 976 986 l 975 1006 l 950 1006 q 935 1004 942 1004 q 926 1004 929 1004 q 906 965 925 965 q 793 999 899 965 l 788 1007 q 772 985 789 1008 q 731 926 754 961 q 683 854 707 892 q 649 790 660 817 l 649 792 q 608 694 622 739 q 588 611 593 650 q 567 610 581 610 l 550 610 q 533 740 547 683 q 491 838 519 796 q 418 908 463 879 q 311 957 374 938 l 313 957 l 303 961 l 304 961 q 293 978 293 968 q 306 1010 293 986 l 304 1008 l 310 1035 q 274 1050 293 1035 q 132 872 132 921 q 186 807 132 840 q 293 736 279 750 q 364 610 354 683 q 274 611 313 610 q 210 615 236 613 q 198 537 207 581 q 174 438 189 493 q 363 467 233 463 q 290 169 347 274 q 189 238 243 238 q 139 222 164 238 q 92 181 114 207 q 53 118 71 154 q 24 40 35 82 l 64 8 q 114 75 81 75 q 156 -10 156 75 q 184 -22 171 -17 q 208 -29 197 -26 q 250 25 222 -3 q 306 78 278 53 l 306 76 q 390 163 350 115 q 460 262 429 210 q 513 367 492 314 q 543 471 535 421 l 579 471 l 579 464 q 584 403 579 442 q 599 311 589 365 q 874 -32 636 103 q 1003 238 1000 143 m 46 26 l 42 28 l 43 28 l 46 26 z "},"Y":{"ha":839,"x_min":24,"x_max":815,"o":"m 815 985 q 799 1019 800 1018 q 710 1001 757 1018 q 624 955 663 983 q 559 891 585 926 q 533 818 533 856 q 536 792 533 817 q 543 730 539 768 q 551 644 547 692 q 560 551 556 597 q 567 462 564 504 q 569 392 569 419 q 555 353 569 371 q 519 320 540 335 q 470 297 497 306 q 418 289 443 289 q 215 428 286 289 q 326 501 303 478 q 375 624 375 550 q 263 863 375 738 l 264 863 q 194 958 194 944 l 196 968 l 196 967 q 247 1010 207 992 l 279 1011 l 258 1031 q 257 1043 257 1036 q 256 1060 257 1050 q 190 1033 221 1046 q 131 1007 158 1021 l 132 1007 q 98 993 117 1004 q 63 965 79 982 q 35 930 46 949 q 24 894 24 911 q 114 731 24 850 q 206 550 206 611 q 140 449 206 493 l 142 450 q 83 417 111 432 q 26 388 54 401 q 62 306 47 339 q 91 249 76 272 q 125 208 106 225 q 175 176 144 192 q 318 143 239 143 q 393 154 360 143 l 392 153 q 574 276 449 167 q 575 238 574 264 q 578 185 576 213 q 582 131 581 157 q 583 93 583 106 q 543 -43 583 1 q 244 11 349 11 q 176 2 210 11 q 115 -24 142 -7 q 73 -63 89 -40 q 57 -112 57 -86 q 72 -161 57 -139 q 111 -199 86 -183 q 171 -223 136 -214 q 246 -232 206 -232 q 433 -192 346 -232 q 615 -242 546 -242 q 673 -219 644 -242 q 724 -164 701 -197 q 762 -92 747 -131 q 778 -22 776 -54 q 751 -16 763 -19 q 728 -8 739 -12 q 694 -85 722 -85 q 615 -68 667 -85 q 690 38 664 -24 l 690 36 q 721 104 717 86 l 719 103 q 771 435 771 218 q 769 494 771 457 q 763 577 767 532 q 756 672 760 622 q 748 767 751 721 q 742 849 744 813 q 740 908 740 886 q 815 985 740 953 m 351 -156 q 244 -168 294 -168 q 144 -154 188 -168 l 146 -154 q 113 -118 113 -136 q 182 -90 113 -90 q 265 -112 221 -90 q 351 -156 310 -133 z "},"Z":{"ha":790,"x_min":24,"x_max":768,"o":"m 768 242 q 724 414 768 346 l 724 413 q 542 588 646 532 q 604 636 579 613 q 644 688 629 660 q 666 750 660 717 q 672 826 672 783 q 615 961 672 921 q 424 1001 558 1001 q 228 1006 240 1001 q 247 1040 239 1029 q 207 1065 224 1065 q 71 903 71 949 q 268 843 71 843 q 285 844 274 843 q 310 844 297 844 q 337 845 324 844 q 358 846 350 846 q 518 738 518 846 q 478 614 518 658 q 438 618 457 617 q 401 619 419 619 q 251 600 318 619 q 153 400 183 493 q 289 440 226 440 q 394 421 343 440 q 487 368 446 401 q 552 290 528 335 q 576 194 576 246 q 569 61 576 114 q 544 -23 561 8 q 501 -67 528 -54 q 435 -81 474 -81 q 341 -67 389 -81 q 253 -30 293 -53 q 188 24 214 -7 q 163 89 163 54 q 196 158 163 122 q 268 231 229 194 q 253 228 260 231 q 247 219 247 226 l 246 226 l 225 244 q 78 137 133 204 q 24 -8 24 69 q 40 -72 24 -40 q 81 -130 56 -103 q 140 -178 107 -157 q 208 -208 174 -199 l 207 -208 q 314 -256 274 -239 q 369 -278 354 -272 q 529 -121 388 -231 q 713 47 682 -1 l 711 46 q 768 242 768 135 z "},"[":{"ha":274,"x_min":25,"x_max":250,"o":"m 250 -19 q 236 15 250 0 q 203 29 222 29 l 196 29 l 196 996 q 231 1016 215 1000 q 247 1051 247 1032 q 185 1101 247 1101 l 25 1101 l 25 -67 l 196 -67 q 250 -19 250 -67 z "},"\\":{"ha":404,"x_min":4,"x_max":383,"o":"m 383 1006 q 347 1028 365 1010 q 322 983 336 988 q 210 1028 272 996 q 146 875 185 924 q 106 760 111 832 q 104 721 104 753 q 104 633 104 689 q 4 551 79 590 q 96 504 86 528 q 103 440 101 493 q 110 290 106 388 q 124 52 115 193 q 153 -278 133 -89 l 192 -278 q 269 193 243 -19 q 294 579 294 406 q 244 843 294 743 q 308 831 290 831 q 342 846 329 831 q 363 886 356 861 q 375 942 371 911 q 383 1006 379 974 z "},"]":{"ha":274,"x_min":24,"x_max":247,"o":"m 247 -64 l 247 1099 l 89 1099 q 25 1049 25 1099 q 42 1012 25 1028 q 79 993 58 996 l 79 31 q 33 15 43 24 q 24 -21 24 6 q 78 -64 24 -64 l 247 -64 z "},"^":{"ha":490,"x_min":24,"x_max":467,"o":"m 467 699 q 456 717 467 704 q 429 748 446 729 q 394 790 413 767 q 358 840 375 814 l 292 949 q 244 988 267 988 q 199 950 221 988 q 108 815 142 863 q 55 745 74 768 q 30 715 36 722 q 24 700 24 708 q 64 657 24 657 q 190 753 83 657 l 189 751 q 208 770 200 763 q 222 783 217 778 l 222 782 q 235 794 229 789 q 243 801 240 799 q 299 749 271 775 q 353 703 328 724 q 397 669 378 682 q 425 657 417 657 q 467 699 467 657 z "},"_":{"ha":1232,"x_min":26,"x_max":1207,"o":"m 1207 -140 l 1207 -21 l 26 -21 l 26 -140 l 1207 -140 z "},"`":{"ha":463,"x_min":65,"x_max":311,"o":"m 311 765 l 246 1035 l 65 1035 l 258 765 l 311 765 z "},"a":{"ha":640,"x_min":38,"x_max":632,"o":"m 632 167 l 625 185 q 585 218 594 204 q 553 172 560 172 q 540 197 546 172 q 531 260 535 222 q 524 340 526 297 q 521 419 521 383 q 522 463 521 442 q 524 506 522 485 l 524 504 q 531 534 524 507 q 546 592 538 561 q 561 651 554 624 q 568 682 568 678 l 568 685 q 492 675 528 675 q 292 707 408 675 q 189 643 235 661 l 190 643 q 38 628 142 628 q 46 372 46 519 q 44 334 46 360 q 42 281 43 308 q 40 228 42 254 q 39 190 39 203 q 45 134 39 160 q 67 83 51 108 q 109 32 83 58 q 174 -28 135 6 q 376 118 325 67 q 468 -18 414 33 q 626 161 574 75 l 625 158 l 632 167 m 360 549 q 344 351 344 476 l 344 292 q 353 190 344 229 q 312 158 343 171 q 256 144 281 144 q 211 164 228 144 q 194 211 194 183 q 197 262 194 228 q 201 333 199 296 q 205 406 203 371 q 207 457 207 440 q 203 571 207 514 q 324 546 278 546 q 344 547 335 546 q 360 549 353 547 z "},"b":{"ha":628,"x_min":38,"x_max":589,"o":"m 589 449 q 310 718 589 681 q 217 601 267 643 q 222 783 217 689 q 236 981 226 876 l 214 993 q 181 976 203 985 q 135 962 160 968 q 88 951 111 956 q 47 947 64 947 l 38 947 q 52 820 47 889 q 57 671 57 751 l 57 515 q 56 478 57 506 q 55 417 56 450 q 53 354 54 385 q 53 307 53 324 q 57 206 53 247 q 69 135 61 164 q 90 85 78 106 q 119 50 103 65 q 153 26 131 39 q 203 1 175 13 q 260 -17 231 -10 q 314 -25 289 -25 l 326 -25 q 381 42 349 6 q 458 122 414 78 q 524 196 499 163 q 563 266 549 229 q 583 346 578 303 q 589 449 589 389 m 432 358 q 390 146 432 275 q 363 143 376 143 q 222 217 247 143 l 222 215 q 215 290 215 246 l 215 511 q 243 556 215 556 q 286 549 260 556 q 339 533 313 543 q 386 511 365 524 q 413 488 407 499 q 432 358 432 446 z "},"c":{"ha":424,"x_min":24,"x_max":413,"o":"m 413 165 l 389 208 q 314 131 335 131 q 210 185 294 131 q 200 310 200 200 l 200 403 q 201 484 200 444 q 203 561 201 524 q 257 529 233 542 q 297 510 281 517 l 301 503 q 363 576 354 560 l 363 575 q 394 616 379 597 q 408 650 408 635 q 378 674 408 674 l 374 672 q 349 650 360 654 l 350 650 q 326 658 340 651 q 298 675 313 665 q 272 695 283 685 q 256 714 260 706 q 136 629 210 668 l 138 631 q 24 615 89 615 q 44 375 44 517 q 44 337 44 361 q 42 288 43 313 q 41 240 42 263 q 40 210 40 218 q 51 120 40 157 q 88 57 63 83 q 155 13 114 31 q 256 -22 196 -6 q 413 165 374 71 z "},"d":{"ha":613,"x_min":24,"x_max":590,"o":"m 590 447 q 568 576 590 518 l 569 575 q 545 631 564 599 q 498 697 526 663 q 436 766 469 732 q 368 829 403 800 l 369 829 q 303 890 333 861 q 274 936 274 918 q 285 949 274 949 q 322 935 296 949 q 328 1008 322 981 q 182 982 233 1000 l 183 983 q 93 925 119 968 l 93 926 q 83 893 83 915 q 96 844 83 868 q 128 798 108 821 q 173 751 147 775 q 225 704 199 728 q 24 607 146 635 q 56 421 51 532 l 56 426 q 54 232 54 426 q 58 152 54 183 q 76 98 63 121 q 115 58 90 75 q 181 21 140 40 q 258 -8 217 3 q 349 -24 300 -18 q 388 32 360 -6 q 449 113 417 69 q 510 197 481 156 q 551 263 539 238 q 590 447 590 344 m 422 340 q 383 142 422 229 q 299 171 304 168 q 239 231 249 194 l 239 229 q 218 540 218 318 q 269 660 218 646 l 268 660 l 282 664 l 279 663 q 308 635 289 658 q 346 581 326 611 q 381 520 365 550 q 401 474 397 490 l 400 475 q 422 340 422 392 z "},"e":{"ha":485,"x_min":24,"x_max":463,"o":"m 463 574 q 306 700 372 629 q 35 622 210 642 l 24 606 q 31 559 29 582 q 33 515 33 536 q 33 499 33 508 q 32 478 33 490 l 32 440 l 32 442 q 28 360 29 399 q 26 289 26 322 q 151 18 26 36 l 150 18 l 161 14 l 160 14 q 321 -21 233 -21 q 334 13 321 -10 q 363 57 347 35 q 391 96 378 79 q 404 113 404 113 l 403 111 q 460 211 438 160 q 421 219 438 215 q 393 226 404 224 q 342 154 364 154 q 288 160 314 154 q 240 175 261 165 q 207 199 219 185 q 194 231 194 213 q 279 347 194 250 l 278 347 q 463 574 401 493 m 306 471 l 279 439 l 279 440 q 233 385 253 408 q 199 346 213 361 q 206 470 203 417 q 213 560 210 524 q 306 471 256 513 z "},"f":{"ha":364,"x_min":13,"x_max":360,"o":"m 360 963 q 343 990 360 990 q 333 985 339 990 q 320 973 328 979 q 304 961 313 967 q 288 956 296 956 q 199 988 269 956 q 174 926 189 956 q 145 874 160 897 q 119 832 131 850 q 106 804 108 814 q 89 650 89 756 q 13 564 89 599 l 15 540 q 71 524 53 538 q 95 488 89 510 q 101 438 101 467 q 100 376 100 410 q 102 237 100 310 q 108 93 104 164 q 116 -42 111 22 q 127 -153 121 -106 q 142 -230 133 -201 q 160 -258 150 -258 q 174 -244 168 -258 q 185 -208 181 -231 q 194 -154 190 -185 q 203 -89 199 -124 l 201 -92 q 253 450 253 136 l 253 533 l 338 533 l 338 646 l 250 646 q 233 721 247 685 l 233 719 q 217 817 218 764 l 219 817 q 275 801 258 801 q 299 809 289 801 q 315 828 308 817 q 326 853 321 839 q 335 879 331 867 l 333 874 q 360 963 360 940 z "},"g":{"ha":638,"x_min":25,"x_max":604,"o":"m 604 681 q 486 658 546 658 q 317 722 358 658 q 260 657 285 682 q 206 618 235 632 q 138 599 176 604 q 39 594 99 594 q 69 451 69 539 q 69 410 69 438 q 67 353 68 383 q 65 295 65 322 q 64 254 64 268 q 93 106 64 149 l 92 106 q 260 25 122 46 q 403 138 321 90 q 400 104 400 124 q 403 17 400 50 q 406 -15 406 -15 q 385 -126 406 -93 q 153 -31 207 -31 q 106 -50 129 -31 q 65 -99 83 -69 q 36 -163 47 -128 q 25 -232 25 -199 l 75 -232 l 75 -226 q 96 -196 75 -196 q 296 -297 185 -196 q 415 -185 358 -235 q 525 -100 472 -136 q 572 239 572 -32 q 571 463 572 463 l 571 461 q 604 681 575 586 m 407 510 q 402 466 404 490 q 400 414 400 442 l 400 376 q 401 350 401 361 q 401 329 401 339 q 317 154 401 154 q 232 246 232 154 q 233 306 232 265 q 237 390 235 346 q 240 474 239 435 q 242 531 242 514 q 369 508 294 508 q 376 508 372 508 q 388 510 381 508 l 407 510 z "},"h":{"ha":635,"x_min":35,"x_max":590,"o":"m 590 367 q 556 619 590 560 q 326 711 503 711 q 324 682 326 694 q 313 656 322 669 q 284 626 303 643 q 232 582 265 608 q 236 781 232 697 l 236 779 q 245 936 242 879 q 250 1008 249 993 q 35 956 147 956 q 74 689 74 853 l 74 372 q 73 346 74 364 q 72 307 72 328 q 72 269 72 288 q 71 243 71 251 q 107 59 71 124 q 232 -37 143 -6 q 361 172 285 15 l 340 186 l 340 185 l 311 207 q 274 157 296 157 q 253 164 261 157 q 241 190 246 171 q 235 240 236 208 q 233 322 233 272 l 233 417 q 235 472 235 449 q 235 513 235 497 q 306 554 261 554 q 396 521 368 554 q 424 408 424 488 q 422 206 424 286 q 415 92 419 126 q 343 -125 401 -39 l 344 -124 l 339 -131 q 250 -233 303 -189 q 292 -274 269 -254 q 467 -110 379 -206 l 468 -110 q 526 -39 504 -67 q 554 3 547 -11 q 590 367 590 79 m 343 -124 l 339 -131 q 343 -124 342 -125 z "},"i":{"ha":375,"x_min":21,"x_max":353,"o":"m 313 944 l 132 944 q 75 768 131 881 l 218 769 q 313 944 278 850 m 353 169 l 342 189 q 322 193 331 192 q 308 196 314 194 q 278 156 293 156 q 254 204 254 156 l 254 479 q 250 576 254 539 q 233 638 246 614 q 197 678 221 661 q 136 713 174 694 q 21 557 118 654 q 96 533 83 557 q 101 447 101 522 q 101 390 101 428 q 100 310 100 351 q 99 229 100 268 q 99 172 99 190 q 133 33 99 78 q 254 -24 168 -11 q 353 169 308 50 z "},"j":{"ha":331,"x_min":21,"x_max":310,"o":"m 310 975 l 132 975 q 75 797 131 910 l 217 799 q 270 883 247 839 q 310 975 293 928 m 254 189 l 254 497 q 239 640 254 601 q 138 735 218 697 q 24 579 117 672 l 31 579 q 100 547 85 579 q 104 454 104 535 q 103 362 104 424 q 103 231 103 300 q 102 101 103 163 q 101 8 101 39 q 98 -70 101 -37 q 86 -130 94 -103 q 62 -183 78 -157 q 21 -239 46 -208 q 54 -276 43 -258 q 186 -147 154 -189 l 185 -149 q 217 -97 204 -125 q 239 -29 231 -68 q 251 63 247 10 q 254 189 254 115 z "},"k":{"ha":717,"x_min":35,"x_max":696,"o":"m 696 190 l 646 210 q 628 167 636 167 q 603 185 617 167 q 574 231 589 203 q 545 294 560 258 q 519 363 531 329 q 499 428 507 397 q 489 476 490 458 q 528 516 506 489 q 571 574 550 543 q 606 634 592 604 q 619 682 619 664 q 582 703 592 692 q 567 667 575 682 q 540 653 560 653 q 535 653 543 653 q 513 656 528 654 l 514 656 q 390 713 418 671 q 233 561 289 649 q 234 626 233 586 q 236 710 235 665 q 240 803 238 756 q 243 892 242 850 q 246 965 244 933 q 247 1010 247 996 q 35 958 146 958 q 76 603 76 847 q 76 542 76 581 q 74 465 75 504 q 73 394 74 426 q 72 351 72 361 q 83 126 72 174 q 233 -29 113 15 q 364 181 288 22 l 342 193 l 342 192 q 325 205 332 199 q 313 214 318 211 q 274 164 296 164 q 232 339 232 164 l 232 396 q 235 435 233 429 q 238 447 236 442 l 238 446 q 283 535 265 514 q 421 485 322 503 q 340 426 376 446 q 333 399 333 406 q 375 215 333 365 l 375 218 q 391 167 379 196 q 417 111 403 139 q 449 60 432 83 q 479 26 465 36 l 478 28 q 571 -32 529 -15 q 696 190 642 39 z "},"l":{"ha":326,"x_min":31,"x_max":315,"o":"m 315 171 l 276 206 q 219 153 240 153 q 209 163 214 153 q 200 188 204 174 q 193 218 196 203 q 190 243 190 233 l 190 433 q 199 729 190 590 q 226 990 208 868 q 123 959 176 975 q 31 943 69 943 q 33 902 31 929 q 40 845 36 875 q 47 788 44 815 q 50 747 50 761 q 49 687 50 725 q 45 601 47 649 q 41 503 43 554 q 37 406 39 453 q 33 319 35 358 q 32 258 32 281 q 72 65 32 133 q 206 -28 113 -3 q 274 101 247 51 q 315 171 301 151 z "},"m":{"ha":996,"x_min":0,"x_max":972,"o":"m 972 188 l 944 188 l 922 200 q 876 144 900 144 q 850 213 850 144 q 851 242 850 215 q 852 307 851 269 q 853 384 853 344 q 854 451 854 424 l 854 486 q 851 558 853 528 q 842 612 849 589 q 824 651 836 635 q 790 681 811 667 l 792 681 q 692 708 756 708 l 674 708 q 660 675 667 689 q 642 648 654 661 q 608 620 629 635 q 551 583 586 606 q 365 708 510 692 q 253 585 338 636 q 133 704 228 658 q 0 583 79 629 q 75 411 75 531 q 74 369 75 397 q 71 309 72 340 q 68 250 69 278 q 67 208 67 222 q 76 110 67 150 q 104 43 85 69 q 154 1 124 17 q 229 -22 185 -14 q 350 169 308 83 q 300 197 325 179 q 257 146 271 146 q 242 175 242 146 l 242 335 q 242 413 242 379 q 243 472 243 447 l 243 496 q 331 538 293 538 q 381 458 381 538 q 379 406 381 442 q 377 332 378 371 q 375 258 376 293 q 374 206 374 222 q 412 33 374 85 q 542 -25 450 -19 q 601 66 569 15 q 667 181 632 117 q 638 185 657 181 q 608 189 618 189 q 565 143 585 143 q 549 188 549 143 q 549 253 549 208 q 551 346 550 297 q 552 439 551 394 q 553 504 553 483 q 621 539 596 539 q 672 506 654 539 q 690 424 690 472 q 690 393 690 417 q 688 341 689 369 q 685 284 686 313 q 685 242 685 256 q 695 110 685 158 q 728 36 706 63 q 785 -3 750 10 q 868 -26 819 -15 q 964 158 932 50 l 963 158 l 972 188 z "},"n":{"ha":692,"x_min":11,"x_max":669,"o":"m 669 161 q 646 186 669 186 q 619 169 629 186 l 621 169 q 586 143 604 143 q 567 194 567 143 l 567 283 q 567 315 567 293 q 568 360 568 336 q 569 404 568 383 q 569 435 569 425 q 557 555 569 506 q 519 636 544 604 q 452 684 493 668 q 353 704 411 700 q 244 592 329 638 q 136 715 224 669 q 11 582 92 633 q 47 560 33 572 q 66 527 60 549 q 74 472 72 506 q 75 383 75 438 q 75 353 75 372 q 74 311 75 335 l 74 238 q 96 44 74 75 q 232 -19 131 -6 q 300 80 275 39 q 333 144 325 121 l 333 143 q 339 164 339 153 q 318 185 339 185 q 302 179 310 185 q 287 167 294 174 q 273 156 279 161 q 263 151 267 151 l 251 165 q 252 238 251 189 q 253 342 253 288 q 253 444 253 396 q 254 517 254 493 q 322 550 297 550 q 393 451 393 550 q 392 405 393 436 q 391 338 392 374 q 390 270 390 303 q 389 221 389 238 q 394 120 389 164 q 418 47 400 76 q 470 -1 436 17 q 563 -22 504 -18 q 668 150 618 47 l 668 156 q 669 161 669 158 z "},"o":{"ha":621,"x_min":24,"x_max":599,"o":"m 599 390 q 576 495 599 443 q 513 593 553 547 q 417 676 472 639 q 299 738 363 714 q 254 677 276 701 q 202 635 232 653 q 129 607 172 618 q 24 586 86 596 q 40 329 40 508 q 40 306 40 321 q 39 276 39 292 q 38 249 39 263 q 38 229 38 236 q 100 76 38 132 l 99 78 q 361 -21 210 -21 q 413 68 364 21 l 439 97 l 438 97 q 490 157 465 128 q 538 217 515 186 l 536 215 q 599 390 599 299 m 426 322 q 397 149 426 188 l 386 147 q 243 204 308 147 q 218 251 229 218 q 207 339 207 285 l 207 492 q 209 543 207 519 q 214 586 211 567 q 313 539 272 564 q 378 483 353 514 q 415 413 404 451 q 426 322 426 374 z "},"p":{"ha":676,"x_min":24,"x_max":656,"o":"m 656 428 q 635 528 656 481 q 579 615 615 576 q 494 680 543 653 q 385 719 444 707 q 286 611 356 647 q 267 662 278 642 q 241 694 257 682 q 203 713 225 707 q 147 721 181 718 l 132 710 q 92 645 125 678 q 24 576 60 613 q 69 552 51 565 q 98 517 88 539 q 113 459 108 494 q 117 368 117 424 q 116 273 117 319 q 114 179 115 226 q 24 29 29 126 q 50 38 39 35 q 68 43 61 40 l 68 42 l 111 53 l 113 -190 q 96 -285 113 -237 l 114 -299 q 199 -241 153 -258 q 292 -207 244 -224 q 275 49 275 -122 q 436 -47 382 11 q 524 106 463 28 q 614 231 599 200 q 656 428 656 311 m 497 263 q 474 156 497 210 q 286 222 375 203 l 286 542 q 324 547 308 544 q 347 549 339 549 q 416 534 388 549 q 463 486 444 519 q 489 398 481 453 q 497 263 497 343 z "},"q":{"ha":642,"x_min":21,"x_max":607,"o":"m 607 701 q 453 681 525 681 q 288 710 360 681 q 21 588 171 588 q 28 556 21 567 l 25 560 q 43 458 43 511 l 43 293 q 43 207 43 239 q 44 168 43 176 q 79 54 50 82 q 120 21 96 36 q 172 -6 144 6 q 228 -23 200 -17 q 282 -29 257 -29 q 381 107 289 11 q 381 70 381 94 q 383 19 382 46 q 384 -33 383 -8 q 385 -69 385 -58 q 380 -206 385 -144 q 365 -318 375 -267 q 599 -212 522 -212 q 564 36 571 -115 q 563 108 563 46 q 563 289 563 171 q 607 701 563 596 m 385 519 q 381 433 381 488 q 381 399 381 418 q 382 361 382 381 l 382 315 q 381 253 382 281 q 376 204 379 225 q 347 150 372 175 q 292 125 321 125 q 235 158 256 125 q 214 235 214 190 l 214 440 q 215 481 214 456 q 217 540 215 506 q 350 518 288 518 q 368 518 360 518 q 385 519 376 518 z "},"r":{"ha":492,"x_min":1,"x_max":468,"o":"m 468 689 q 451 700 460 700 l 449 701 l 454 700 q 438 713 444 707 q 426 722 432 718 q 396 682 411 682 q 304 713 378 682 q 254 610 276 646 q 153 713 219 689 q 115 675 138 696 q 63 629 92 654 l 64 629 l 47 614 l 49 615 q 25 597 38 607 q 1 572 13 586 q 89 481 72 536 q 96 349 96 453 q 95 321 96 340 q 94 280 94 301 q 92 239 93 258 q 92 210 92 219 q 131 51 92 103 q 265 -18 171 -1 q 300 -24 293 -24 q 417 171 390 88 q 392 190 403 182 q 372 203 381 197 q 332 138 351 138 q 275 176 310 138 q 267 350 267 186 l 267 517 q 315 496 286 506 q 379 476 343 486 q 468 689 444 561 z "},"s":{"ha":640,"x_min":22,"x_max":617,"o":"m 297 717 l 294 717 l 296 715 l 297 717 m 617 331 q 583 438 617 394 q 463 525 549 482 q 553 701 553 640 l 549 701 q 513 711 536 701 q 482 667 501 667 q 326 706 435 667 l 328 706 q 313 710 321 708 q 296 715 304 713 l 281 711 q 238 660 267 689 q 165 597 210 632 q 58 468 86 535 q 63 405 58 431 q 78 358 67 379 q 110 315 89 336 q 164 267 131 294 q 22 26 22 117 q 43 -25 22 1 l 50 -25 q 57 -26 54 -26 q 89 -14 64 -26 q 81 22 81 7 q 90 40 81 35 l 89 39 q 160 51 119 51 q 260 35 210 51 l 258 35 q 375 -65 343 -1 q 426 9 399 -28 q 479 68 453 46 l 472 65 q 524 115 499 82 q 571 185 550 147 q 604 261 592 222 q 617 331 617 300 m 378 504 q 365 490 378 504 q 328 447 353 475 q 268 410 296 410 q 240 417 253 410 q 215 438 226 425 q 198 465 204 450 q 192 496 192 481 q 235 550 192 550 q 324 524 246 550 l 322 525 q 378 504 351 511 m 485 204 q 444 121 485 150 q 389 171 415 150 q 334 204 363 192 q 274 223 306 217 q 203 231 243 229 q 299 341 263 304 q 360 378 336 378 q 408 363 385 378 q 448 323 431 347 q 475 267 465 299 q 485 204 485 236 z "},"t":{"ha":438,"x_min":19,"x_max":415,"o":"m 415 194 q 391 197 407 194 q 367 200 375 200 q 342 165 354 165 q 313 190 324 165 q 303 238 303 214 q 303 302 303 258 q 304 393 304 346 q 305 485 304 442 q 306 550 306 529 q 325 550 313 550 q 360 549 339 550 l 414 549 l 414 667 q 372 665 399 665 q 308 664 344 664 q 317 890 308 783 q 170 709 244 793 q 19 553 96 625 q 70 551 39 551 q 142 550 101 550 l 142 150 q 300 -25 142 8 q 415 194 383 58 z "},"u":{"ha":744,"x_min":22,"x_max":722,"o":"m 722 179 l 679 204 q 646 167 663 167 q 628 174 635 167 q 618 201 622 182 q 613 251 614 219 q 611 333 611 283 q 613 374 611 347 q 615 432 614 401 q 617 490 615 463 q 618 531 618 517 q 599 631 618 596 l 599 629 q 515 722 581 667 q 372 588 457 650 q 436 510 415 565 l 435 513 q 440 472 438 493 q 442 424 442 450 q 440 328 442 388 q 435 186 438 269 q 406 160 419 171 q 379 143 392 149 l 381 144 q 357 140 365 140 q 282 285 282 140 q 284 340 282 303 q 288 417 286 376 q 292 494 290 457 q 294 549 294 531 q 289 611 294 585 q 269 657 283 638 q 230 691 254 676 q 168 719 206 706 q 22 579 119 643 q 95 544 75 565 q 115 485 115 524 l 114 469 l 114 471 q 109 388 111 447 q 107 232 107 328 q 110 168 107 194 q 121 119 113 142 q 146 78 129 97 q 190 35 163 58 q 294 -24 242 -7 l 307 -21 l 444 117 q 574 -26 467 7 q 662 92 625 42 q 722 179 699 143 z "},"v":{"ha":672,"x_min":25,"x_max":647,"o":"m 647 686 l 635 704 q 496 688 536 688 q 361 713 436 688 q 317 666 342 693 q 263 603 292 639 q 144 726 244 675 q 25 572 122 654 q 94 449 81 540 q 94 436 94 454 q 96 386 94 418 q 100 313 97 354 q 108 230 103 271 q 122 153 114 189 q 143 97 131 118 q 187 47 160 69 q 249 9 214 25 q 323 -15 283 -7 q 403 -24 363 -24 q 444 25 417 -3 q 499 78 471 53 q 551 125 528 104 q 582 154 575 146 q 621 276 621 203 q 620 319 621 292 q 618 378 619 347 q 616 435 617 408 q 615 475 615 461 q 643 675 615 583 l 643 678 l 647 686 m 453 529 q 445 460 447 493 q 443 394 443 426 q 444 340 443 376 q 447 265 446 304 q 449 189 447 225 q 450 135 450 153 q 415 129 438 129 q 358 142 386 129 q 309 175 331 154 q 274 223 288 196 q 261 279 261 250 q 262 320 261 293 q 264 377 263 347 q 266 434 265 407 q 267 475 267 461 q 290 550 267 518 q 400 524 342 524 q 453 529 432 524 z "},"w":{"ha":976,"x_min":24,"x_max":953,"o":"m 953 714 q 842 693 882 693 q 663 726 772 693 q 593 608 651 667 q 388 713 556 686 q 350 675 368 694 q 314 633 332 656 l 314 635 l 282 597 q 261 640 274 622 q 231 672 249 658 q 188 698 213 686 q 129 721 163 710 q 24 579 111 663 q 53 556 38 567 q 79 532 68 546 q 98 500 90 518 q 106 454 106 482 q 105 403 106 438 q 103 332 104 369 q 101 261 101 294 q 100 211 100 228 q 114 125 100 167 q 153 51 128 83 q 212 0 178 19 q 288 -19 246 -19 q 442 135 367 32 q 678 -29 504 -6 q 722 20 692 -8 q 785 78 751 49 q 847 133 818 107 q 888 174 876 158 q 935 340 935 238 q 932 386 935 356 q 926 450 929 417 q 919 515 922 483 q 917 561 917 546 q 953 714 917 621 m 763 144 q 742 129 756 129 q 604 211 663 129 l 606 211 q 601 258 601 228 q 603 304 601 274 q 606 369 604 335 q 608 433 607 403 q 610 479 610 464 q 609 506 610 490 q 607 543 608 522 l 624 558 q 749 524 700 528 q 744 465 744 504 q 746 418 744 449 q 749 350 747 388 q 753 274 751 313 q 758 206 756 236 q 761 158 760 175 q 763 144 763 140 m 432 474 q 431 422 432 457 q 429 349 431 388 q 427 277 428 311 q 426 226 426 243 q 376 149 413 189 q 315 157 342 149 l 317 157 q 275 242 285 168 l 275 236 l 274 239 q 276 299 274 258 q 282 386 279 340 q 288 473 285 432 q 290 533 290 514 q 338 565 315 565 q 360 557 346 565 q 390 538 375 549 q 417 515 406 526 q 431 497 429 504 q 432 474 432 490 z "},"x":{"ha":618,"x_min":24,"x_max":594,"o":"m 594 682 l 582 681 q 554 703 569 686 q 522 643 533 643 q 490 673 515 653 q 442 700 465 693 q 381 615 406 651 q 343 553 357 579 q 313 616 333 586 q 267 667 293 646 q 208 701 240 689 q 140 714 175 714 q 57 549 113 611 q 123 532 97 540 q 165 510 149 524 q 190 474 181 496 q 206 418 199 453 l 114 418 l 92 314 l 232 314 q 235 297 235 306 q 201 175 235 264 q 128 199 167 199 q 24 -18 28 199 l 69 -18 q 97 15 75 15 q 157 -15 126 15 l 190 -15 q 272 190 240 71 q 338 44 310 83 q 476 -25 388 -24 q 514 26 496 -3 q 547 82 532 54 q 569 135 561 110 q 578 179 578 161 q 554 181 569 179 q 531 182 539 182 q 499 142 514 142 q 477 160 490 142 q 449 205 464 178 q 422 262 435 232 q 400 317 408 292 l 485 317 l 510 415 l 382 415 q 406 514 388 485 q 474 497 436 497 q 594 682 557 497 z "},"y":{"ha":567,"x_min":24,"x_max":544,"o":"m 544 671 q 510 692 544 692 q 463 681 486 692 q 422 651 440 669 q 392 610 403 633 q 381 564 381 588 q 383 523 381 550 q 388 465 385 496 q 392 407 390 435 q 394 365 394 379 q 390 283 394 331 q 291 438 331 381 q 228 528 251 494 q 196 583 206 563 q 186 628 186 603 q 213 651 186 651 q 247 643 224 651 l 285 688 q 215 714 246 714 q 159 699 192 714 q 97 660 126 683 q 45 608 67 636 q 24 556 24 581 q 49 463 24 531 l 49 464 q 94 383 75 410 l 93 385 q 224 183 201 225 q 288 -44 288 65 q 275 -101 288 -92 l 279 -100 q 272 -101 278 -101 q 235 -92 256 -101 q 195 -66 214 -82 q 164 -31 176 -50 q 151 6 151 -12 q 185 79 151 38 q 174 103 185 90 q 151 115 163 115 l 133 115 l 140 114 q 84 54 106 79 q 51 8 63 29 q 35 -31 39 -12 q 31 -69 31 -49 q 328 -294 31 -226 q 364 -142 338 -236 q 433 83 390 -49 q 497 296 474 201 q 524 458 521 390 q 526 523 525 490 q 530 583 528 556 q 535 631 532 611 q 542 658 538 651 q 543 665 542 661 q 544 671 544 669 z "},"z":{"ha":503,"x_min":22,"x_max":479,"o":"m 479 124 q 417 317 479 201 q 354 476 354 431 q 365 533 354 503 q 392 595 375 564 q 431 655 408 626 q 478 704 453 683 l 456 744 q 333 690 386 690 q 311 692 326 690 q 272 696 296 693 l 274 696 q 129 744 206 708 q 22 507 108 610 q 88 482 72 493 q 135 522 111 518 q 170 509 153 515 q 206 499 188 503 q 146 388 146 422 q 167 310 146 361 l 165 311 l 172 293 q 53 138 81 228 l 54 138 q 40 14 40 100 q 59 -81 40 -33 q 111 -169 78 -128 q 189 -245 144 -211 q 285 -300 233 -279 q 316 -243 293 -281 q 364 -164 339 -206 q 411 -84 389 -122 q 443 -26 433 -46 q 479 124 479 53 m 308 -39 q 293 -78 308 -78 q 247 -58 271 -78 q 205 -8 224 -37 q 174 53 186 21 q 163 111 163 86 q 208 222 163 189 q 251 147 235 178 q 276 97 268 117 q 308 -39 308 22 z "},"{":{"ha":475,"x_min":21,"x_max":453,"o":"m 453 -89 l 453 -4 q 342 15 357 0 q 310 154 310 50 q 310 192 310 165 q 313 247 311 218 q 315 304 314 276 q 315 344 315 332 q 242 557 315 513 q 315 761 315 601 q 314 800 315 774 q 312 855 313 826 q 310 910 311 883 q 308 949 308 936 q 310 1009 308 982 q 319 1057 313 1036 q 342 1091 326 1078 q 383 1111 357 1104 q 410 1116 393 1114 q 453 1121 426 1118 l 453 1204 l 438 1204 q 328 1200 372 1204 q 256 1187 285 1196 q 210 1161 226 1178 q 181 1119 193 1144 l 182 1119 q 149 958 149 1063 q 150 914 149 943 q 153 852 151 885 q 157 790 156 819 q 158 747 158 761 q 138 615 158 665 q 21 568 106 583 l 21 544 q 136 488 108 526 l 135 489 q 153 394 153 458 l 153 138 q 272 -76 153 -43 q 453 -89 315 -89 z "},"|":{"ha":199,"x_min":25,"x_max":174,"o":"m 174 -85 l 174 1165 l 25 1165 l 25 -85 l 174 -85 z "},"}":{"ha":475,"x_min":22,"x_max":454,"o":"m 454 535 l 454 558 q 338 614 367 578 l 339 614 q 321 708 321 649 q 322 764 321 729 q 323 834 322 799 q 324 899 324 869 q 325 940 325 929 q 310 1067 325 1018 q 261 1143 296 1115 q 168 1181 226 1171 q 22 1192 110 1192 l 22 1107 q 97 1104 69 1106 q 133 1100 125 1103 q 160 904 160 1043 l 160 844 q 158 810 158 825 q 158 786 158 796 q 233 543 158 581 q 186 486 200 519 l 188 488 q 160 340 160 440 q 160 303 160 328 q 163 250 161 278 q 165 197 164 222 q 165 160 165 172 q 163 84 165 115 q 147 32 161 53 q 105 -1 133 11 q 22 -19 76 -12 l 22 -101 l 74 -101 q 294 -17 247 -101 l 293 -17 q 325 135 325 39 q 324 178 325 149 q 320 238 322 207 q 317 299 318 269 q 315 342 315 328 q 339 476 315 422 l 338 475 q 454 535 375 517 z "},"~":{"ha":568,"x_min":24,"x_max":544,"o":"m 544 576 l 499 721 l 479 688 l 479 689 q 383 606 435 606 q 360 610 374 606 l 360 608 q 326 627 340 619 q 303 642 313 635 l 306 640 q 175 689 228 689 q 24 594 89 689 l 61 454 q 139 549 106 532 l 136 546 q 189 560 158 560 q 231 546 206 560 q 283 515 256 532 q 335 485 310 499 q 381 471 361 471 q 544 576 464 471 z "},"‚":{"ha":268,"x_min":22,"x_max":247,"o":"m 247 239 q 185 311 247 311 q 155 300 171 311 q 125 273 139 289 q 101 240 111 257 q 89 211 92 224 l 22 -83 l 96 -107 q 151 3 124 -51 q 199 104 178 57 q 234 187 221 151 q 247 239 247 222 z "},"ƒ":{"ha":678,"x_min":10,"x_max":669,"o":"m 669 940 l 549 972 q 472 918 517 947 q 368 856 426 889 l 331 693 l 267 693 l 249 617 l 313 617 l 163 -31 l 72 -89 l 29 -47 l 10 -65 l 138 -193 q 333 -89 239 -117 l 342 -72 q 310 -7 310 -49 q 322 59 310 1 q 353 205 333 117 q 399 401 374 293 q 450 617 424 510 l 556 617 l 574 693 l 467 693 l 506 856 l 622 826 l 669 940 z "},"„":{"ha":468,"x_min":24,"x_max":446,"o":"m 446 238 q 375 311 446 311 q 345 300 361 311 q 315 273 329 289 q 289 240 300 257 q 275 210 278 222 l 207 -89 l 282 -96 q 342 10 313 -42 q 394 108 371 63 q 431 187 417 153 q 446 238 446 221 m 261 229 q 196 315 261 315 q 165 304 182 315 q 133 277 149 293 q 107 244 118 261 q 93 215 96 228 l 24 -79 l 101 -103 q 161 9 132 -46 q 213 109 190 64 q 248 186 235 154 q 261 229 261 218 z "},"…":{"ha":708,"x_min":24,"x_max":686,"o":"m 686 103 q 672 127 686 114 q 638 151 657 140 q 598 169 618 163 q 568 176 578 176 q 543 164 549 176 l 544 167 q 496 61 496 110 q 508 40 496 51 q 538 19 521 29 q 574 3 556 10 q 603 -3 592 -3 q 630 10 615 -3 q 657 39 644 22 q 678 74 669 56 q 686 103 686 92 m 450 103 q 435 127 450 114 q 401 151 421 140 q 362 169 382 163 q 332 176 342 176 q 307 164 313 176 l 308 167 q 260 61 260 110 q 272 40 260 51 q 302 19 285 29 q 338 3 319 10 q 367 -3 356 -3 q 394 10 379 -3 q 421 39 408 22 q 442 74 433 56 q 450 103 450 92 m 214 103 q 199 127 214 114 q 165 151 185 140 q 126 169 146 163 q 96 176 106 176 q 71 164 76 176 l 72 167 q 24 61 24 110 q 36 40 24 51 q 66 19 49 29 q 101 3 83 10 q 131 -3 119 -3 q 158 10 143 -3 q 185 39 172 22 q 206 74 197 56 q 214 103 214 92 z "},"†":{"ha":654,"x_min":21,"x_max":633,"o":"m 633 788 q 537 769 593 776 q 407 760 481 763 l 407 792 q 428 1042 407 956 l 203 1042 q 240 757 240 968 q 111 768 165 760 q 21 788 57 776 l 21 568 q 236 589 110 589 q 236 557 236 578 q 238 506 236 538 l 238 422 q 237 337 238 394 q 235 217 236 279 q 234 97 235 154 q 233 11 233 39 q 193 -149 233 -83 q 263 -144 236 -146 q 300 -143 289 -143 q 435 -156 364 -143 q 406 214 406 -33 q 407 319 406 238 q 408 513 408 401 q 408 554 408 535 q 407 589 407 574 l 419 589 q 536 585 485 589 q 628 575 588 582 q 620 617 622 597 q 618 657 618 638 q 633 788 618 707 z "},"‡":{"ha":1317,"x_min":21,"x_max":1288,"o":"m 447 1008 q 411 1031 429 1013 q 386 986 400 990 q 226 1028 240 1019 q 163 875 201 924 q 122 760 128 832 q 121 721 121 753 q 121 633 121 689 q 21 551 96 590 q 113 504 103 528 q 120 440 118 493 q 127 290 122 388 q 141 52 132 193 q 169 -278 150 -89 l 208 -278 q 285 193 260 -19 q 311 579 311 406 q 261 843 311 743 q 372 833 294 833 q 406 849 393 833 q 427 889 419 864 q 439 945 435 914 q 447 1008 443 976 m 1288 376 q 1250 631 1288 568 q 1018 721 1197 721 q 986 646 1018 682 q 922 592 976 633 q 926 789 922 706 l 926 788 q 935 945 932 888 q 940 1018 938 1003 q 721 965 838 965 q 761 682 761 868 q 756 663 761 668 q 690 692 719 678 q 638 719 660 706 q 519 638 599 678 l 521 639 q 401 624 471 624 q 418 514 413 575 q 424 379 424 453 q 423 340 424 365 q 422 290 422 315 q 420 242 421 264 q 419 213 419 221 q 430 124 419 160 q 467 60 440 88 q 535 13 493 33 q 643 -25 578 -7 q 776 113 735 64 q 922 -29 807 14 q 1054 182 981 29 l 1033 196 l 1033 194 l 1004 217 q 964 165 986 165 q 944 172 951 165 q 931 198 936 179 q 925 249 926 217 q 924 332 924 282 l 924 426 q 925 482 925 458 q 925 522 925 507 q 997 564 956 564 q 1091 528 1064 564 q 1118 413 1118 492 q 1115 219 1118 297 q 1108 97 1113 140 q 1042 -118 1094 -36 l 1043 -117 q 1033 -131 1043 -117 q 1008 -165 1022 -146 q 978 -201 993 -183 q 954 -225 963 -219 q 978 -257 957 -243 q 1068 -192 1022 -231 q 1161 -100 1114 -153 q 1251 13 1240 -11 q 1288 376 1288 92 m 761 182 q 703 132 724 132 q 596 186 685 132 q 585 253 585 206 l 585 342 q 586 466 585 408 q 590 572 588 524 q 713 522 683 522 q 740 556 728 542 q 760 579 751 569 q 761 539 761 560 q 761 496 761 518 l 761 374 q 760 351 761 375 q 758 278 760 326 l 758 249 q 759 213 758 229 q 761 182 760 196 z "},"ˆ":{"ha":640,"x_min":65,"x_max":493,"o":"m 493 768 l 360 1039 l 203 1039 l 65 768 l 124 768 l 281 911 l 436 768 l 493 768 z "},"‰":{"ha":1268,"x_min":24,"x_max":1246,"o":"m 1246 264 q 1233 367 1246 317 q 1195 458 1219 418 q 1137 521 1171 497 q 1063 544 1103 544 q 986 521 1021 544 q 926 458 951 497 q 888 369 901 419 q 875 263 875 318 q 890 165 875 214 q 930 78 904 117 q 990 15 956 39 q 1063 -8 1024 -8 q 1133 15 1100 -8 q 1192 78 1167 39 q 1231 165 1217 117 q 1246 264 1246 214 m 865 264 q 825 436 865 360 l 825 435 q 679 544 774 544 q 529 435 581 544 l 529 436 q 490 263 490 364 q 505 165 490 214 q 545 78 519 117 q 605 16 571 40 q 679 -8 639 -8 q 752 15 718 -8 q 811 78 786 39 q 851 165 836 117 q 865 264 865 214 m 679 871 l 567 901 l 206 -15 l 317 -49 l 679 871 m 400 589 q 386 694 400 643 q 347 784 372 744 q 288 847 322 824 q 211 871 253 871 q 65 761 117 871 l 65 763 q 24 590 24 685 q 38 495 24 543 q 78 409 53 447 q 138 347 104 371 q 211 322 172 322 q 285 346 250 322 q 345 408 319 369 q 385 493 371 446 q 400 589 400 540 m 1119 174 q 1085 83 1119 89 l 1088 83 q 1052 107 1068 83 q 1025 170 1036 131 q 1008 263 1014 210 q 1001 375 1001 315 q 1044 451 1001 451 l 1049 453 q 1077 426 1064 451 q 1099 360 1090 400 q 1114 272 1108 321 q 1119 174 1119 222 m 738 178 q 701 83 738 90 l 704 83 q 667 103 683 83 q 640 161 651 124 q 624 251 629 199 q 618 368 618 304 q 665 453 618 453 q 695 430 682 453 q 717 368 708 407 q 732 280 726 329 q 738 178 738 231 m 272 500 q 238 408 272 408 q 182 478 197 408 l 182 476 q 157 683 157 593 q 194 783 157 783 q 226 760 211 783 q 251 697 240 736 q 267 606 261 657 q 272 500 272 554 z "},"Š":{"ha":950,"x_min":22,"x_max":926,"o":"m 926 394 q 842 594 926 501 l 843 593 q 753 654 815 626 l 754 654 q 715 675 731 667 q 688 689 699 683 q 701 710 694 700 q 715 731 708 719 l 715 729 q 752 781 739 763 q 776 813 765 799 q 796 843 786 828 q 824 885 806 858 q 854 963 854 928 q 821 1015 854 1015 q 806 1003 817 1015 q 782 974 794 990 q 759 945 769 958 q 747 932 749 932 l 749 932 l 744 931 q 710 936 735 931 q 661 948 686 942 q 617 959 636 954 q 601 964 599 964 l 603 963 q 517 986 554 976 q 457 1003 481 996 l 458 1001 q 424 1011 433 1011 q 367 984 393 1011 q 317 931 340 957 q 285 901 310 924 q 229 852 260 879 q 169 797 199 825 q 122 749 139 768 q 114 694 117 726 q 111 617 111 661 q 112 577 111 590 q 122 556 113 564 q 152 538 131 547 q 217 513 174 529 q 287 486 261 494 q 319 476 313 478 q 203 363 257 422 q 108 249 149 304 q 45 149 68 194 q 22 74 22 103 l 24 50 q 81 14 47 14 q 104 19 92 14 q 122 74 117 56 q 131 99 128 92 q 139 107 135 107 q 154 107 143 107 q 390 42 232 107 q 610 -24 549 -24 q 635 -6 613 -24 q 685 31 658 11 q 732 68 711 51 q 753 85 753 85 l 753 83 q 815 135 797 111 l 814 133 q 871 213 850 175 l 869 213 q 925 375 918 297 l 925 374 q 926 394 926 379 m 636 785 q 563 685 592 722 q 521 635 535 649 l 521 636 q 468 603 481 603 q 431 611 460 603 l 431 610 q 403 624 421 613 q 365 647 385 635 q 326 670 344 660 q 299 685 308 681 l 297 686 q 243 747 243 719 q 263 769 244 751 q 301 808 281 788 q 341 843 322 828 q 364 858 360 858 q 558 806 490 824 q 636 785 626 788 m 750 326 q 743 265 750 297 q 724 205 736 232 q 695 160 711 178 q 661 142 679 142 q 378 231 635 142 l 325 249 l 325 247 q 283 261 301 254 q 250 274 265 268 q 268 297 260 289 l 267 297 l 278 310 l 276 308 q 539 536 483 536 q 694 480 639 536 q 750 326 750 424 m 299 685 l 297 686 l 297 685 l 299 685 m 304 1369 l 438 1099 l 594 1099 l 731 1369 l 674 1369 l 517 1226 l 361 1369 l 304 1369 z "},"‹":{"ha":329,"x_min":18,"x_max":304,"o":"m 304 504 l 304 638 l 18 322 l 301 24 l 301 143 l 193 317 l 304 504 z "},"Œ":{"ha":1454,"x_min":24,"x_max":1429,"o":"m 1429 1006 l 1368 1006 q 1335 972 1353 978 l 1310 972 q 1293 971 1300 971 q 1285 971 1288 971 q 963 1010 1065 971 q 889 967 924 996 l 889 965 q 835 900 867 949 q 763 956 797 933 q 692 991 728 978 q 615 1010 656 1004 q 524 1017 574 1017 q 503 1016 515 1017 q 478 1015 492 1015 q 452 1015 464 1015 q 432 1014 440 1014 q 325 892 379 942 q 407 563 407 735 q 340 319 407 449 q 354 247 351 290 l 358 244 l 358 238 q 226 385 269 306 l 226 383 q 192 525 192 458 q 328 804 192 649 q 316 819 321 813 q 308 831 311 825 l 310 857 q 163 797 246 797 q 107 746 132 778 q 63 673 82 714 q 34 587 44 632 q 24 499 24 542 q 65 294 24 388 q 178 133 106 201 q 350 27 251 65 q 565 -11 449 -11 q 634 -7 604 -11 q 691 7 664 -3 q 744 33 718 17 q 801 72 771 49 q 1083 -12 928 -12 q 1211 -4 1161 -12 q 1294 24 1261 4 q 1345 74 1326 43 q 1379 149 1364 104 l 1404 210 l 1403 204 q 1411 238 1411 225 q 1386 263 1411 263 q 1267 214 1364 263 q 1096 165 1169 165 q 964 192 1026 165 l 963 190 q 868 244 899 218 q 926 301 913 272 l 925 300 q 968 379 949 332 q 1001 490 988 426 q 1099 486 1054 488 q 1179 485 1143 485 q 1342 504 1318 485 q 1363 533 1351 514 q 1382 576 1374 553 q 1396 620 1390 599 q 1401 656 1401 642 q 1379 682 1401 682 q 1333 656 1368 682 q 1226 639 1310 639 q 1093 639 1147 639 q 1013 640 1040 639 q 1005 746 1010 699 q 993 831 1000 793 q 1063 828 1017 831 q 1158 824 1108 826 q 1253 821 1208 822 q 1322 819 1299 819 q 1363 828 1346 819 q 1393 859 1381 838 q 1414 916 1406 881 q 1429 1006 1422 951 m 903 632 q 876 613 888 622 q 852 592 865 604 q 821 560 839 579 q 776 513 803 542 q 897 494 826 497 q 883 405 890 443 q 871 342 876 367 l 871 343 l 869 331 l 869 335 q 858 291 863 310 q 851 260 854 272 q 793 343 819 293 l 793 342 q 747 553 747 443 q 847 860 747 710 q 888 751 874 808 q 903 632 901 694 m 683 172 q 664 170 672 171 q 649 169 656 169 q 378 225 460 169 q 490 401 440 256 q 533 617 533 526 q 490 844 533 724 q 531 849 513 847 q 565 851 550 851 q 681 832 631 851 q 571 486 571 718 q 683 172 571 285 z "},"Ž":{"ha":790,"x_min":24,"x_max":768,"o":"m 768 242 q 724 414 768 346 l 724 413 q 542 588 646 532 q 604 636 579 613 q 644 688 629 660 q 666 750 660 717 q 672 826 672 783 q 615 961 672 921 q 424 1001 558 1001 q 228 1006 240 1001 q 247 1040 239 1029 q 207 1065 224 1065 q 71 903 71 949 q 268 843 71 843 q 285 844 274 843 q 310 844 297 844 q 337 845 324 844 q 358 846 350 846 q 518 738 518 846 q 478 614 518 658 q 438 618 457 617 q 401 619 419 619 q 251 600 318 619 q 153 400 183 493 q 289 440 226 440 q 394 421 343 440 q 487 368 446 401 q 552 290 528 335 q 576 194 576 246 q 569 61 576 114 q 544 -23 561 8 q 501 -67 528 -54 q 435 -81 474 -81 q 341 -67 389 -81 q 253 -30 293 -53 q 188 24 214 -7 q 163 89 163 54 q 196 158 163 122 q 268 231 229 194 q 253 228 260 231 q 247 219 247 226 l 246 226 l 225 244 q 78 137 133 204 q 24 -8 24 69 q 40 -72 24 -40 q 81 -130 56 -103 q 140 -178 107 -157 q 208 -208 174 -199 l 207 -208 q 314 -256 274 -239 q 369 -278 354 -272 q 529 -121 388 -231 q 713 47 682 -1 l 711 46 q 768 242 768 135 m 203 1369 l 336 1099 l 493 1099 l 629 1369 l 572 1369 l 415 1226 l 260 1369 l 203 1369 z "},"‘":{"ha":269,"x_min":22,"x_max":249,"o":"m 249 282 q 183 357 249 357 q 153 346 169 357 q 124 319 138 335 q 100 286 110 304 q 88 256 90 268 l 22 -37 l 96 -62 q 140 25 118 -18 q 186 111 163 68 q 249 282 249 238 z "},"’":{"ha":268,"x_min":21,"x_max":246,"o":"m 246 1007 l 175 1032 q 119 920 146 975 q 69 819 92 865 q 34 741 47 774 q 21 697 21 708 q 88 613 21 613 q 115 624 100 613 q 144 652 131 636 q 169 685 158 668 q 182 714 179 703 l 246 1007 z "},"“":{"ha":479,"x_min":22,"x_max":456,"o":"m 456 1000 l 378 1024 l 226 735 q 215 692 215 713 l 217 668 q 240 625 236 628 q 283 606 256 606 q 312 616 296 606 q 344 642 328 626 q 372 674 360 657 q 386 706 383 692 l 456 1000 m 261 1006 l 186 1031 l 29 726 q 22 685 22 710 q 93 611 22 611 q 124 622 107 611 q 155 649 140 633 q 180 683 169 665 q 193 713 190 700 l 261 1006 z "},"”":{"ha":481,"x_min":24,"x_max":458,"o":"m 458 954 q 388 1029 458 1029 q 358 1018 374 1029 q 327 991 342 1007 q 301 958 313 975 q 288 928 290 940 l 219 635 l 296 610 q 343 697 319 654 q 390 783 367 740 q 458 954 458 914 m 263 953 q 196 1026 263 1026 q 165 1015 182 1026 q 134 988 149 1004 q 108 956 119 972 q 94 926 97 939 l 24 632 l 103 608 q 162 718 133 664 q 213 819 190 772 q 249 901 235 865 q 263 953 263 936 z "},"•":{"ha":553,"x_min":24,"x_max":529,"o":"m 529 393 q 508 488 529 443 q 453 567 488 533 q 372 620 418 600 q 276 640 326 640 q 179 621 225 640 q 99 568 133 601 q 44 490 64 535 q 24 393 24 444 q 44 296 24 340 q 99 219 64 251 q 179 167 133 186 q 276 149 225 149 q 372 168 326 149 q 453 221 418 188 q 508 299 488 254 q 529 393 529 343 z "},"–":{"ha":929,"x_min":25,"x_max":904,"o":"m 904 360 l 904 468 l 25 468 l 25 360 l 904 360 z "},"—":{"ha":1172,"x_min":25,"x_max":1147,"o":"m 1147 357 l 1147 461 l 25 461 l 25 357 l 1147 357 z "},"˜":{"ha":640,"x_min":74,"x_max":529,"o":"m 529 949 l 489 949 q 425 888 465 888 q 381 897 410 888 q 322 919 353 907 q 262 940 290 931 q 219 950 233 950 q 74 768 99 950 l 117 768 q 176 828 138 828 q 213 819 186 828 q 270 798 239 810 q 331 777 301 786 q 378 768 361 768 q 529 949 511 768 z "},"™":{"ha":1361,"x_min":11,"x_max":1346,"o":"m 1060 364 l 1346 364 l 1346 404 q 1303 408 1318 406 q 1281 418 1289 410 q 1272 442 1274 426 q 1271 486 1271 458 l 1271 803 q 1273 848 1271 832 q 1283 872 1275 864 q 1306 883 1290 881 q 1346 886 1321 885 l 1346 928 l 1143 928 l 969 551 l 789 928 l 582 928 l 582 886 q 621 885 606 886 q 644 875 636 883 q 656 849 653 867 q 658 801 658 832 l 658 486 q 656 441 658 457 q 646 417 654 425 q 622 408 638 410 q 582 406 607 406 l 582 364 l 806 364 l 806 406 l 774 406 q 745 408 756 406 q 728 419 735 411 q 720 444 722 428 q 718 486 718 460 l 718 775 l 914 364 l 946 364 l 1140 781 l 1140 485 q 1138 442 1140 458 q 1126 418 1135 426 q 1102 408 1118 410 q 1060 406 1086 406 l 1060 364 m 513 775 l 553 775 l 536 928 l 26 928 l 11 775 l 50 775 q 65 822 56 804 q 88 851 74 840 q 122 867 101 863 q 172 871 143 871 l 215 871 l 215 486 q 214 446 215 461 q 206 422 213 431 q 186 410 200 414 q 147 404 172 406 l 147 364 l 418 364 l 418 404 q 378 408 393 406 q 356 419 364 411 q 347 443 349 428 q 346 486 346 458 l 346 871 l 389 871 q 479 849 453 871 q 513 775 506 828 z "},"š":{"ha":640,"x_min":22,"x_max":617,"o":"m 297 714 l 294 714 l 296 713 l 297 714 m 617 328 q 583 435 617 392 q 464 522 549 479 q 554 699 554 638 q 518 707 535 699 l 513 710 q 482 664 501 664 q 365 690 440 664 l 367 690 q 343 697 353 694 q 326 703 333 700 l 328 703 q 296 713 318 707 l 282 708 q 240 660 271 689 q 173 599 208 632 q 105 532 138 567 q 58 465 72 497 q 63 399 58 426 q 81 350 68 372 q 113 308 93 328 q 165 264 133 288 q 22 24 22 117 q 44 -28 22 -1 l 51 -28 q 57 -29 54 -29 q 89 -17 65 -29 q 82 19 82 4 q 90 38 82 33 l 89 36 q 161 49 122 49 q 288 18 228 49 q 376 -68 349 -12 q 454 43 443 29 q 532 131 504 99 q 565 169 560 163 q 617 328 617 242 m 379 501 q 351 470 365 486 q 323 440 338 454 q 294 416 308 425 q 268 407 281 407 q 240 415 254 407 q 216 435 226 422 q 199 463 206 447 q 193 493 193 478 q 235 547 193 547 q 324 521 249 547 l 322 522 q 379 501 364 506 m 486 201 q 444 118 486 149 q 390 168 417 147 q 335 202 364 189 q 274 222 307 215 q 203 228 242 228 q 360 375 325 375 q 409 359 386 375 q 449 318 432 343 q 476 263 467 293 q 486 201 486 232 m 118 1039 l 251 768 l 408 768 l 544 1039 l 488 1039 l 331 896 l 175 1039 l 118 1039 z "},"›":{"ha":318,"x_min":25,"x_max":300,"o":"m 300 325 l 25 621 l 25 524 l 132 325 l 25 135 l 25 35 l 300 325 z "},"œ":{"ha":854,"x_min":24,"x_max":831,"o":"m 831 586 q 782 624 831 611 l 783 624 q 738 638 739 636 l 740 638 q 601 696 664 656 l 604 694 q 569 715 585 715 q 551 703 568 715 q 515 676 535 690 q 478 649 494 661 q 460 636 461 636 q 349 701 406 682 l 350 700 q 311 708 329 708 q 264 694 300 708 q 190 664 228 681 q 122 633 151 647 q 93 619 92 619 q 25 565 42 601 l 25 556 q 24 547 24 551 q 24 532 24 540 q 25 517 24 524 l 25 518 q 26 432 26 499 q 26 250 26 367 q 55 131 26 176 q 149 46 83 86 l 147 46 q 203 15 178 26 q 264 -8 228 4 l 263 -7 q 290 -14 276 -14 q 428 67 318 -14 q 667 -24 543 -11 q 717 15 689 -11 q 768 74 744 42 q 808 138 792 106 q 824 192 824 169 q 785 242 824 242 q 732 193 757 242 l 732 194 q 685 150 707 150 l 685 149 q 654 157 678 149 q 604 176 631 165 q 556 199 578 188 q 529 218 533 211 q 554 239 546 232 l 553 239 q 790 503 706 358 l 789 501 q 801 519 796 513 q 810 532 807 526 l 808 531 q 831 586 831 561 m 657 482 q 629 454 647 474 q 591 413 611 435 q 551 370 571 390 q 522 340 532 350 q 521 372 522 350 q 517 417 519 393 q 514 461 515 440 q 513 493 513 482 q 522 572 513 551 q 564 528 539 567 q 591 513 579 519 q 611 504 603 507 l 610 504 q 628 496 624 497 l 626 496 l 657 482 m 356 154 q 342 147 349 150 q 332 142 336 144 q 278 167 308 143 l 279 165 q 247 188 261 176 q 221 210 232 199 l 222 208 q 194 506 194 260 l 194 547 q 210 556 194 556 q 351 508 258 556 l 351 365 q 353 215 351 263 q 356 154 356 168 z "},"ž":{"ha":503,"x_min":22,"x_max":501,"o":"m 479 124 q 417 317 479 201 q 354 476 354 431 q 365 533 354 503 q 392 595 375 564 q 431 655 408 626 q 478 704 453 683 l 456 744 q 333 690 386 690 q 311 692 326 690 q 272 696 296 693 l 274 696 q 129 744 206 708 q 22 507 108 610 q 88 482 72 493 q 135 522 111 518 q 170 509 153 515 q 206 499 188 503 q 146 388 146 422 q 167 310 146 361 l 165 311 l 172 293 q 53 138 81 228 l 54 138 q 40 14 40 100 q 59 -81 40 -33 q 111 -169 78 -128 q 189 -245 144 -211 q 285 -300 233 -279 q 316 -243 293 -281 q 364 -164 339 -206 q 411 -84 389 -122 q 443 -26 433 -46 q 479 124 479 53 m 308 -39 q 293 -78 308 -78 q 247 -58 271 -78 q 205 -8 224 -37 q 174 53 186 21 q 163 111 163 86 q 208 222 163 189 q 251 147 235 178 q 276 97 268 117 q 308 -39 308 22 m 75 1039 l 208 768 l 365 768 l 501 1039 l 444 1039 l 288 896 l 132 1039 l 75 1039 z "},"Ÿ":{"ha":839,"x_min":24,"x_max":815,"o":"m 815 985 q 799 1019 800 1018 q 710 1001 757 1018 q 624 955 663 983 q 559 891 585 926 q 533 818 533 856 q 536 792 533 817 q 543 730 539 768 q 551 644 547 692 q 560 551 556 597 q 567 462 564 504 q 569 392 569 419 q 555 353 569 371 q 519 320 540 335 q 470 297 497 306 q 418 289 443 289 q 215 428 286 289 q 326 501 303 478 q 375 624 375 550 q 263 863 375 738 l 264 863 q 194 958 194 944 l 196 968 l 196 967 q 247 1010 207 992 l 279 1011 l 258 1031 q 257 1043 257 1036 q 256 1060 257 1050 q 190 1033 221 1046 q 131 1007 158 1021 l 132 1007 q 98 993 117 1004 q 63 965 79 982 q 35 930 46 949 q 24 894 24 911 q 114 731 24 850 q 206 550 206 611 q 140 449 206 493 l 142 450 q 83 417 111 432 q 26 388 54 401 q 62 306 47 339 q 91 249 76 272 q 125 208 106 225 q 175 176 144 192 q 318 143 239 143 q 393 154 360 143 l 392 153 q 574 276 449 167 q 575 238 574 264 q 578 185 576 213 q 582 131 581 157 q 583 93 583 106 q 543 -43 583 1 q 244 11 349 11 q 176 2 210 11 q 115 -24 142 -7 q 73 -63 89 -40 q 57 -112 57 -86 q 72 -161 57 -139 q 111 -199 86 -183 q 171 -223 136 -214 q 246 -232 206 -232 q 433 -192 346 -232 q 615 -242 546 -242 q 673 -219 644 -242 q 724 -164 701 -197 q 762 -92 747 -131 q 778 -22 776 -54 q 751 -16 763 -19 q 728 -8 739 -12 q 694 -85 722 -85 q 615 -68 667 -85 q 690 38 664 -24 l 690 36 q 721 104 717 86 l 719 103 q 771 435 771 218 q 769 494 771 457 q 763 577 767 532 q 756 672 760 622 q 748 767 751 721 q 742 849 744 813 q 740 908 740 886 q 815 985 740 953 m 351 -156 q 244 -168 294 -168 q 144 -154 188 -168 l 146 -154 q 113 -118 113 -136 q 182 -90 113 -90 q 265 -112 221 -90 q 351 -156 310 -133 m 783 1275 l 603 1275 q 546 1099 601 1211 l 689 1100 q 783 1275 749 1181 m 544 1275 l 364 1275 q 307 1099 363 1211 l 450 1100 q 544 1275 510 1181 z "},"¡":{"ha":217,"x_min":24,"x_max":193,"o":"m 193 929 q 181 951 193 939 q 153 974 169 964 q 121 990 138 983 q 94 997 104 997 q 76 982 88 997 q 52 947 64 967 q 32 910 40 928 q 24 886 24 892 q 37 864 24 875 q 69 842 50 853 q 106 826 88 832 q 135 819 124 819 q 150 835 140 819 q 169 870 160 850 q 186 908 179 890 q 193 929 193 925 m 188 119 q 187 185 188 143 q 185 277 186 226 q 183 383 183 328 q 181 490 182 439 q 178 582 179 540 q 178 647 178 624 l 178 710 q 140 750 171 750 q 113 740 126 750 l 113 742 q 83 728 94 733 q 65 704 72 722 q 53 647 57 686 q 47 533 49 608 q 44 339 44 458 q 44 40 44 219 q 72 -3 44 -3 l 86 -1 l 85 -1 q 172 28 165 21 q 188 119 188 43 z "},"¢":{"ha":521,"x_min":79,"x_max":489,"o":"m 489 119 l 478 165 l 400 110 l 278 165 l 378 519 l 403 506 l 485 625 l 418 663 l 479 874 l 417 874 l 365 693 l 294 733 q 121 610 208 649 l 121 218 q 112 143 121 165 q 79 104 103 121 l 79 78 q 181 53 142 65 l 118 -165 l 182 -165 l 238 29 q 271 13 253 22 q 313 -10 289 3 l 489 119 m 325 551 l 276 383 l 276 578 l 325 551 z "},"£":{"ha":940,"x_min":46,"x_max":901,"o":"m 901 144 q 593 208 740 208 q 435 188 524 208 q 494 365 494 285 l 494 389 l 701 389 l 749 525 l 468 525 q 439 661 439 610 q 494 828 439 751 l 774 656 l 883 788 l 626 949 l 282 776 q 256 650 256 718 q 278 525 256 588 l 104 525 l 56 389 l 319 389 q 367 199 367 278 q 366 185 367 193 q 364 168 365 178 q 46 21 186 110 l 64 -10 q 426 67 267 67 q 818 -10 589 67 l 901 144 z "},"¤":{"ha":875,"x_min":3,"x_max":864,"o":"m 818 643 l 864 753 q 533 897 719 897 q 401 873 464 897 q 286 805 338 849 q 199 701 235 761 q 146 568 163 640 l 49 568 l 3 461 l 129 461 l 129 432 l 49 432 l 3 325 l 146 325 q 202 191 165 251 q 290 87 239 131 q 402 19 340 43 q 533 -4 464 -4 q 832 107 696 -4 l 832 265 q 533 103 692 103 q 365 163 438 103 q 258 325 293 224 l 683 325 l 729 432 l 238 432 l 238 461 l 742 461 l 786 568 l 257 568 q 297 654 269 614 q 362 724 325 694 q 442 772 399 754 q 533 790 486 790 q 818 643 693 790 z "},"¥":{"ha":1013,"x_min":25,"x_max":989,"o":"m 989 819 q 860 890 915 858 q 768 946 806 921 l 590 517 l 421 806 q 229 946 338 946 q 25 775 88 946 l 53 742 q 171 825 115 825 q 229 806 201 825 q 256 769 233 803 q 310 684 278 736 q 382 569 343 632 q 457 442 421 506 l 457 403 l 272 403 l 231 283 l 457 283 l 457 108 q 371 66 408 85 q 308 32 333 47 l 322 -10 q 610 38 474 38 q 703 25 633 38 l 760 154 q 682 165 711 165 q 645 163 663 165 q 611 158 628 161 l 611 283 l 797 283 l 838 403 l 611 403 l 611 443 l 753 778 l 932 706 l 989 819 z "},"¦":{"ha":786,"x_min":328,"x_max":454,"o":"m 454 472 l 454 967 l 328 967 l 328 472 l 454 472 m 454 -187 l 454 306 l 328 306 l 328 -187 l 454 -187 z "},"§":{"ha":700,"x_min":24,"x_max":676,"o":"m 676 435 q 636 549 676 493 q 513 650 596 606 q 379 716 446 686 q 247 781 313 746 l 249 781 q 206 857 206 815 q 254 932 206 900 l 254 931 q 350 943 275 943 q 406 935 378 943 q 458 913 435 928 q 494 879 481 899 q 508 836 508 860 q 500 814 508 828 q 481 785 492 800 q 463 758 471 771 q 454 739 454 746 q 469 718 454 725 l 475 717 l 471 718 l 482 714 q 581 785 510 714 q 615 890 615 819 q 599 956 615 925 q 555 1008 582 986 q 492 1044 528 1031 q 419 1057 457 1057 q 261 1017 333 1057 l 263 1017 q 208 976 239 1006 q 149 912 176 947 q 103 839 122 876 q 85 774 85 801 q 124 675 85 718 q 76 634 94 653 q 45 597 57 615 q 28 556 33 578 q 24 506 24 533 q 65 404 24 456 q 193 308 107 353 q 324 247 258 275 q 453 188 389 219 l 451 188 q 514 83 514 156 q 503 49 514 64 q 477 22 493 33 q 441 5 461 11 q 401 -1 421 -1 q 240 31 336 -1 l 242 31 q 178 86 193 46 l 179 86 q 172 121 172 110 q 243 231 172 178 l 242 229 q 261 253 261 242 q 242 271 261 271 q 178 253 211 271 q 116 208 144 235 q 69 148 88 181 q 49 85 50 115 l 47 46 q 76 -31 47 4 q 153 -90 104 -65 q 266 -127 201 -114 q 403 -140 331 -140 q 467 -99 418 -140 q 556 -22 526 -47 q 586 6 585 4 q 650 144 650 74 q 603 286 650 229 q 676 435 676 375 m 564 389 l 564 392 q 547 333 561 356 q 333 437 417 399 q 217 494 250 475 l 218 494 q 143 572 143 532 q 171 632 143 604 q 215 606 186 621 q 277 573 243 590 q 348 538 311 556 q 419 505 385 521 q 479 476 453 489 q 519 454 506 463 q 564 389 564 426 z "},"¨":{"ha":640,"x_min":75,"x_max":551,"o":"m 551 944 l 371 944 q 314 768 369 881 l 457 769 q 551 944 517 850 m 313 944 l 132 944 q 75 768 131 881 l 218 769 q 313 944 278 850 z "},"©":{"ha":1056,"x_min":39,"x_max":1018,"o":"m 528 -29 q 712 8 624 -29 q 868 110 800 44 q 977 265 936 175 q 1018 460 1018 354 q 983 639 1018 551 q 883 795 947 726 q 728 906 818 864 q 528 949 638 949 q 349 913 436 949 q 192 813 261 878 q 81 659 124 749 q 39 460 39 569 q 76 274 39 363 q 178 119 113 186 q 334 11 244 51 q 528 -29 424 -29 m 740 835 q 831 767 790 807 q 899 678 871 728 q 943 574 928 629 q 958 460 958 518 q 926 297 958 375 q 835 160 893 219 q 698 65 776 100 q 528 29 619 29 q 363 63 442 29 q 226 154 285 96 q 132 291 167 213 q 97 460 97 369 q 128 618 97 540 q 217 756 160 696 q 353 853 274 817 q 528 890 432 890 q 740 835 638 890 m 531 146 q 803 296 700 146 l 763 315 q 554 204 681 204 q 338 475 338 204 q 394 665 338 600 q 547 731 451 731 q 747 571 700 731 l 788 571 l 774 778 l 733 778 q 706 747 721 747 q 683 751 697 747 q 554 778 604 778 q 418 753 481 778 q 308 686 356 729 q 235 584 261 643 q 208 456 208 525 q 233 332 208 389 q 302 234 258 275 q 405 169 346 193 q 531 146 464 146 z "},"ª":{"ha":419,"x_min":19,"x_max":410,"o":"m 289 583 l 410 663 l 389 697 q 363 682 365 686 q 356 678 360 678 q 339 757 339 678 l 339 851 q 342 900 339 881 q 352 934 346 919 q 366 962 358 949 q 382 990 374 975 l 351 1013 q 317 983 328 983 q 303 988 313 983 l 211 1021 q 138 992 163 992 q 85 1003 122 992 l 63 968 l 108 860 q 19 704 19 783 q 101 583 19 642 l 232 665 q 289 583 242 614 m 231 911 l 231 839 l 146 879 l 117 949 l 231 911 m 231 794 l 231 714 l 165 672 q 126 765 126 715 q 146 836 126 786 l 231 794 z "},"«":{"ha":483,"x_min":19,"x_max":458,"o":"m 458 33 l 458 140 l 344 325 l 454 524 l 454 629 l 218 325 l 458 33 m 301 36 l 297 139 l 190 325 l 297 524 l 301 624 l 19 329 l 301 36 z "},"¬":{"ha":678,"x_min":19,"x_max":653,"o":"m 653 71 l 653 385 l 19 385 l 19 254 l 490 254 l 490 71 l 653 71 z "},"­":{"ha":683,"x_min":25,"x_max":658,"o":"m 658 222 l 658 336 l 25 336 l 25 222 l 658 222 z "},"−":{"ha":683,"x_min":25,"x_max":658,"o":"m 658 222 l 658 336 l 25 336 l 25 222 l 658 222 z "},"®":{"ha":1056,"x_min":39,"x_max":1018,"o":"m 528 -29 q 712 8 624 -29 q 868 110 800 44 q 977 265 936 175 q 1018 460 1018 354 q 983 639 1018 551 q 883 795 947 726 q 728 906 818 864 q 528 949 638 949 q 349 913 436 949 q 192 813 261 878 q 81 659 124 749 q 39 460 39 569 q 76 274 39 363 q 178 119 113 186 q 334 11 244 51 q 528 -29 424 -29 m 740 835 q 831 767 790 807 q 899 678 871 728 q 943 574 928 629 q 958 460 958 518 q 926 297 958 375 q 835 160 893 219 q 698 65 776 100 q 528 29 619 29 q 363 63 442 29 q 226 154 285 96 q 132 291 167 213 q 97 460 97 369 q 128 618 97 540 q 217 756 160 696 q 353 853 274 817 q 528 890 432 890 q 740 835 638 890 m 669 161 l 807 161 l 807 199 q 758 213 774 201 q 724 256 743 225 l 588 449 q 733 604 733 490 q 675 720 733 676 q 524 764 617 764 l 253 764 l 253 722 q 288 720 275 722 q 307 710 301 718 q 314 685 313 701 q 315 639 315 668 l 315 285 q 313 239 315 256 q 304 214 311 222 q 283 203 297 206 q 246 200 269 200 l 246 161 l 511 161 l 511 200 q 471 202 486 200 q 447 208 456 204 q 435 219 439 213 q 431 235 432 226 l 431 435 l 469 435 l 669 161 m 479 717 q 570 683 533 717 q 607 596 607 650 q 443 481 607 481 l 431 481 l 431 708 q 479 717 457 717 z "},"¯":{"ha":463,"x_min":25,"x_max":438,"o":"m 438 844 l 438 936 l 25 936 l 25 844 l 438 844 z "},"ˉ":{"ha":463,"x_min":25,"x_max":438,"o":"m 438 844 l 438 936 l 25 936 l 25 844 l 438 844 z "},"°":{"ha":453,"x_min":24,"x_max":429,"o":"m 429 651 q 413 728 429 692 q 367 792 396 765 q 302 835 339 819 q 226 851 265 851 q 148 835 185 851 q 83 792 111 819 q 40 729 56 765 q 24 651 24 693 q 40 573 24 610 q 83 509 56 536 q 148 467 111 482 q 226 451 185 451 q 305 467 268 451 q 369 509 342 482 q 413 573 397 536 q 429 651 429 610 m 317 651 q 289 590 317 617 q 226 564 261 564 q 163 589 189 564 q 138 651 138 614 q 163 714 138 689 q 225 739 188 739 q 290 713 263 739 q 317 651 317 688 z "},"±":{"ha":682,"x_min":22,"x_max":660,"o":"m 660 564 l 413 564 l 413 825 l 275 825 l 275 564 l 22 564 l 22 426 l 275 426 l 275 190 l 413 190 l 413 426 l 658 426 l 660 564 m 657 132 l 26 132 l 26 -6 l 657 -6 l 657 132 z "},"²":{"ha":489,"x_min":24,"x_max":465,"o":"m 465 629 q 450 644 465 644 q 432 638 450 644 q 390 624 414 632 q 344 609 367 615 q 308 603 321 603 l 268 603 q 244 604 254 604 q 228 604 235 604 q 308 685 276 653 q 353 732 339 717 q 428 883 428 821 q 410 949 428 918 q 365 1001 393 979 q 299 1036 336 1024 q 221 1049 261 1049 q 128 1017 172 1049 l 129 1018 q 65 944 74 983 l 65 946 q 61 922 61 933 q 104 886 61 886 q 123 894 110 886 q 151 910 136 901 q 180 926 165 918 q 206 933 194 933 q 235 928 219 933 q 263 913 250 922 q 283 890 275 903 q 292 864 292 878 l 290 858 q 236 739 290 806 l 238 739 q 137 635 182 679 q 57 560 92 590 l 60 561 q 24 513 24 540 q 72 481 24 481 q 107 485 83 481 q 142 489 131 489 q 188 488 157 489 q 253 484 218 486 q 318 481 288 482 q 364 479 349 479 q 394 498 376 479 q 428 542 413 517 q 454 592 443 567 q 465 629 465 617 z "},"³":{"ha":440,"x_min":24,"x_max":417,"o":"m 417 729 q 397 797 417 769 l 397 796 q 275 874 346 871 q 367 969 329 935 q 404 1024 404 1003 q 379 1042 404 1042 q 353 1041 371 1042 q 317 1039 336 1040 q 280 1037 297 1038 q 254 1036 263 1036 q 225 1038 244 1036 q 184 1040 206 1039 q 143 1042 163 1040 q 114 1043 124 1043 q 88 1040 97 1043 q 73 1026 79 1036 q 60 1001 67 1017 q 43 964 54 986 q 26 917 26 932 q 38 894 26 906 q 63 899 49 894 q 93 909 78 904 q 123 919 108 914 q 149 924 138 924 q 169 922 151 924 q 196 919 188 919 l 203 919 q 177 891 197 914 q 135 842 157 868 q 97 793 114 815 q 79 767 79 771 q 108 738 79 738 q 126 741 115 738 q 148 749 136 744 q 171 756 160 753 q 190 760 182 760 q 249 744 224 760 q 274 696 274 728 l 275 690 q 265 653 271 669 q 249 623 258 636 q 224 599 239 610 q 185 576 208 588 q 76 551 128 551 q 24 514 24 551 q 128 475 24 475 q 226 497 175 475 q 320 554 278 518 q 390 635 363 590 q 417 729 417 681 m 65 1008 l 64 1007 l 65 1008 z "},"´":{"ha":640,"x_min":265,"x_max":511,"o":"m 511 1038 l 331 1038 l 265 768 l 318 768 l 511 1038 z "},"µ":{"ha":660,"x_min":22,"x_max":638,"o":"m 638 78 q 608 253 608 129 q 609 344 608 300 q 611 431 610 389 l 611 429 q 615 535 615 460 q 596 636 615 601 l 596 635 q 585 655 590 646 q 570 674 579 664 q 547 696 561 683 q 513 728 533 708 q 371 593 457 658 q 435 515 413 569 l 433 517 q 438 475 436 497 q 440 426 440 453 q 438 328 440 388 q 433 189 436 269 q 410 167 418 175 q 393 153 401 160 q 374 140 385 147 q 340 118 363 132 q 294 93 304 94 l 290 99 q 286 181 286 115 q 287 220 286 193 q 289 278 288 247 q 291 335 290 308 q 292 375 292 363 l 292 554 q 288 617 292 592 q 271 660 283 642 q 234 694 258 679 q 168 725 210 708 q 22 585 119 649 q 67 569 50 576 q 95 549 85 561 q 110 518 106 536 q 114 474 114 500 l 114 -265 l 286 -200 l 286 -8 q 352 49 314 18 q 439 118 390 81 q 451 -1 442 44 q 473 7 451 -1 q 524 28 494 15 q 586 53 554 40 q 638 78 618 67 z "},"μ":{"ha":660,"x_min":22,"x_max":638,"o":"m 638 78 q 608 253 608 129 q 609 344 608 300 q 611 431 610 389 l 611 429 q 615 535 615 460 q 596 636 615 601 l 596 635 q 585 655 590 646 q 570 674 579 664 q 547 696 561 683 q 513 728 533 708 q 371 593 457 658 q 435 515 413 569 l 433 517 q 438 475 436 497 q 440 426 440 453 q 438 328 440 388 q 433 189 436 269 q 410 167 418 175 q 393 153 401 160 q 374 140 385 147 q 340 118 363 132 q 294 93 304 94 l 290 99 q 286 181 286 115 q 287 220 286 193 q 289 278 288 247 q 291 335 290 308 q 292 375 292 363 l 292 554 q 288 617 292 592 q 271 660 283 642 q 234 694 258 679 q 168 725 210 708 q 22 585 119 649 q 67 569 50 576 q 95 549 85 561 q 110 518 106 536 q 114 474 114 500 l 114 -265 l 286 -200 l 286 -8 q 352 49 314 18 q 439 118 390 81 q 451 -1 442 44 q 473 7 451 -1 q 524 28 494 15 q 586 53 554 40 q 638 78 618 67 z "},"¶":{"ha":726,"x_min":21,"x_max":704,"o":"m 704 136 q 688 167 688 146 q 504 122 592 122 l 504 210 q 560 217 532 214 q 619 221 589 219 q 636 274 629 253 q 647 310 643 296 l 647 308 q 653 329 650 317 q 661 358 657 342 l 624 342 q 618 344 624 342 q 594 342 610 344 q 563 338 579 340 q 531 334 546 336 q 507 332 515 332 l 507 414 q 578 419 547 417 q 631 424 610 421 q 656 497 646 465 q 674 549 667 528 q 640 547 663 549 q 590 542 617 544 q 541 538 564 540 q 507 536 518 536 l 507 657 l 615 647 q 703 778 639 700 q 589 783 638 781 q 508 785 540 785 l 508 786 q 535 1036 508 956 q 319 944 435 969 q 342 790 342 901 l 342 781 q 161 713 226 768 l 163 713 q 97 647 124 679 q 53 578 69 614 q 28 500 36 542 q 21 407 21 458 q 349 -15 21 31 q 332 -244 349 -126 l 354 -257 q 504 -144 410 -197 q 502 -87 503 -118 q 501 -19 501 -56 q 622 31 574 -14 q 656 69 636 42 q 704 136 676 96 m 354 135 q 242 206 293 144 l 243 206 q 178 432 178 279 q 197 621 178 540 q 210 650 203 644 q 243 658 217 656 q 318 663 281 663 l 332 663 q 340 661 338 661 q 346 661 344 661 q 354 135 354 392 z "},"·":{"ha":239,"x_min":24,"x_max":215,"o":"m 215 326 q 185 392 215 364 q 118 421 156 421 q 52 392 81 421 q 24 326 24 364 q 51 260 24 288 q 118 232 79 232 q 186 260 157 232 q 215 326 215 288 z "},"∙":{"ha":239,"x_min":24,"x_max":215,"o":"m 215 326 q 185 392 215 364 q 118 421 156 421 q 52 392 81 421 q 24 326 24 364 q 51 260 24 288 q 118 232 79 232 q 186 260 157 232 q 215 326 215 288 z "},"¸":{"ha":435,"x_min":78,"x_max":376,"o":"m 376 -126 q 341 -47 376 -78 q 256 -15 306 -15 q 182 -33 224 -15 l 115 -106 q 151 -101 138 -103 q 169 -99 164 -99 q 224 -112 199 -99 q 249 -153 249 -126 q 219 -199 249 -183 q 158 -214 190 -214 q 96 -210 150 -214 l 78 -247 q 135 -256 108 -253 q 189 -258 163 -258 q 324 -225 272 -258 q 376 -126 376 -192 z "},"¹":{"ha":463,"x_min":90,"x_max":379,"o":"m 254 424 l 379 513 l 353 551 l 315 525 q 306 534 310 531 q 300 542 301 538 l 300 793 q 296 856 300 831 q 281 899 292 882 q 254 928 271 917 q 211 949 238 940 l 90 867 l 117 828 q 156 853 150 853 q 163 835 161 846 q 165 788 165 824 l 165 525 l 136 493 l 254 424 z "},"º":{"ha":390,"x_min":14,"x_max":346,"o":"m 201 586 q 346 653 274 633 l 346 974 q 189 1024 260 981 q 151 997 165 1007 q 122 980 136 986 q 90 969 108 974 q 43 960 72 965 l 43 756 q 42 724 43 736 q 39 703 42 713 q 31 683 36 693 q 14 660 25 674 l 31 632 l 49 632 q 201 586 97 632 m 239 894 l 239 683 l 151 715 l 151 921 q 239 894 203 913 z "},"»":{"ha":469,"x_min":25,"x_max":450,"o":"m 450 329 l 182 629 l 182 529 l 288 329 l 182 140 l 182 39 l 450 329 m 261 321 l 25 635 l 25 528 l 125 325 l 25 136 l 25 35 l 261 321 z "},"¼":{"ha":926,"x_min":24,"x_max":903,"o":"m 903 279 q 875 299 903 299 l 793 297 q 794 357 793 317 q 797 441 796 397 q 799 524 797 485 q 800 583 800 564 q 761 567 781 572 l 763 568 q 668 515 711 556 q 583 431 625 475 l 585 433 q 525 348 544 376 q 504 318 506 319 l 504 319 q 492 298 500 315 q 477 260 485 281 q 464 222 469 240 q 458 199 458 204 l 460 188 l 560 188 q 619 189 594 189 q 661 189 646 189 q 660 141 661 174 q 658 73 660 108 q 656 6 657 38 q 656 -42 656 -26 q 792 0 742 -11 l 793 188 l 836 188 q 857 199 846 188 q 878 226 868 211 q 896 257 889 242 q 903 279 903 272 m 900 931 l 825 997 l 24 28 l 99 -37 l 900 931 m 301 947 q 281 972 301 972 q 244 956 271 972 l 246 957 l 231 949 q 135 897 188 919 l 132 897 q 99 847 99 869 q 118 817 99 832 q 154 824 138 817 l 156 824 q 156 822 156 824 q 157 821 156 822 q 151 665 157 747 q 133 489 144 582 q 126 431 128 450 q 124 410 124 411 q 160 374 124 374 q 178 375 172 374 l 175 375 l 238 396 q 278 435 278 411 l 278 685 q 285 828 278 767 q 300 929 292 889 l 300 928 q 301 947 301 932 m 665 403 l 665 297 l 578 296 q 628 359 606 332 q 665 403 650 386 z "},"½":{"ha":974,"x_min":24,"x_max":950,"o":"m 950 104 q 929 126 950 126 q 903 121 921 126 q 866 108 886 115 q 826 96 846 101 q 797 90 807 90 l 754 90 q 728 92 739 92 q 711 92 718 92 q 842 222 813 188 q 921 379 921 314 q 903 444 921 414 q 854 498 885 475 q 785 534 824 521 q 707 547 747 547 q 660 538 686 547 q 612 515 635 529 q 570 481 589 500 q 546 440 551 461 l 547 442 q 542 418 542 432 q 586 381 542 381 q 619 392 601 381 q 656 419 636 404 l 654 419 q 690 429 672 429 q 722 424 706 429 q 751 408 738 418 q 772 385 764 399 q 781 358 781 372 l 779 354 q 713 218 779 297 q 581 90 688 189 q 510 -1 510 24 q 551 -32 510 -32 q 588 -28 564 -32 q 625 -25 613 -25 q 702 -27 647 -25 q 844 -32 757 -29 l 843 -32 q 843 -32 843 -32 q 844 -33 843 -33 q 893 -14 865 -33 l 896 -8 l 894 -10 q 933 56 921 33 q 947 90 944 79 q 949 102 950 100 q 950 104 947 104 m 903 931 l 828 997 l 24 28 l 101 -37 l 903 931 m 303 965 q 289 986 303 986 q 272 976 288 986 q 243 956 256 965 q 228 946 231 947 l 229 946 q 183 923 206 935 q 142 899 160 911 q 113 873 124 886 q 101 847 101 860 q 119 817 101 831 q 156 824 139 817 l 157 824 q 157 822 157 824 q 158 821 157 822 q 152 665 158 747 q 135 489 146 582 q 127 431 129 450 q 125 410 125 411 q 161 374 125 374 q 179 375 174 374 l 176 375 l 239 396 q 282 431 282 410 q 279 460 282 440 q 276 489 276 479 q 283 734 276 626 q 300 922 289 842 l 300 921 q 303 965 303 935 m 885 113 l 882 111 l 885 113 z "},"¾":{"ha":931,"x_min":24,"x_max":907,"o":"m 907 281 q 881 300 907 300 q 862 299 874 300 q 838 299 850 299 q 813 298 825 299 q 793 297 801 297 q 801 578 801 481 q 769 572 782 578 l 771 574 q 668 515 715 558 l 583 431 l 585 433 q 525 348 544 376 q 504 318 506 319 l 504 319 q 492 297 500 314 q 477 260 485 279 q 464 222 469 240 q 458 199 458 204 l 460 188 l 560 188 q 619 189 594 189 q 661 189 644 189 q 660 154 661 178 q 659 105 660 131 q 658 56 658 79 q 657 24 657 33 l 657 25 q 656 -1 656 14 q 656 -42 656 -18 q 792 0 742 -11 l 792 93 q 793 149 793 125 q 793 188 793 172 l 836 188 q 855 200 843 188 q 878 228 867 213 q 899 260 890 244 q 907 281 907 275 m 449 676 q 412 765 449 724 q 318 821 375 806 l 319 821 l 303 826 q 417 933 357 889 q 431 971 431 957 q 401 994 431 994 l 386 993 l 388 993 q 278 989 356 989 q 246 990 267 989 q 202 992 225 992 q 158 994 179 993 q 128 996 138 996 q 111 996 117 996 q 102 994 106 996 q 95 985 99 992 q 83 967 92 979 q 43 869 43 899 q 51 846 43 860 l 57 844 q 110 860 86 844 l 111 860 q 140 871 133 869 l 156 871 q 169 872 163 872 q 191 870 172 872 q 219 868 210 868 l 226 868 q 136 771 175 814 q 97 713 97 728 q 128 683 97 683 q 146 687 133 683 q 172 695 158 690 q 197 703 185 700 q 214 707 208 707 q 272 690 246 707 q 299 643 299 674 l 300 635 q 281 581 300 607 q 233 535 263 556 q 169 503 204 515 q 100 490 133 490 q 49 484 58 490 q 40 454 40 478 q 147 417 40 417 q 252 440 199 417 q 349 499 306 463 q 421 583 393 536 q 449 676 449 629 m 901 931 l 826 997 l 24 28 l 99 -37 l 901 931 m 667 401 l 667 368 q 666 342 667 360 q 664 297 665 325 q 645 297 657 297 q 619 296 633 296 q 595 295 607 296 q 575 294 583 294 q 626 358 608 339 l 626 357 q 650 383 640 372 q 667 401 660 394 z "},"¿":{"ha":428,"x_min":22,"x_max":406,"o":"m 326 910 q 313 939 326 925 q 279 963 299 953 q 239 980 260 974 q 204 986 218 986 q 181 971 194 986 q 153 935 167 956 q 131 896 140 915 q 122 867 122 876 q 137 836 122 851 q 171 808 151 821 q 211 788 190 796 q 243 781 232 781 q 272 794 264 781 l 271 793 q 290 818 281 803 q 308 849 300 833 q 322 881 317 865 q 326 910 326 897 m 406 210 q 378 261 406 261 q 335 244 343 261 q 325 208 328 228 q 313 171 322 188 q 264 154 303 154 q 204 185 225 154 l 206 183 q 183 272 183 226 q 208 336 183 296 q 260 415 213 356 l 260 414 q 283 443 274 431 q 300 465 293 456 l 300 464 q 336 512 322 493 q 357 545 350 531 q 366 574 364 560 q 368 607 368 588 q 174 767 368 764 q 143 733 161 757 q 108 682 125 710 q 76 627 90 654 q 60 585 63 600 l 61 586 l 58 575 q 99 526 58 526 q 128 549 124 526 l 126 547 q 156 600 142 583 l 185 601 q 228 588 213 601 q 243 554 243 575 l 243 556 l 242 553 q 149 413 242 507 q 36 253 46 306 l 38 256 q 22 178 22 214 q 40 103 22 138 q 86 46 57 69 q 154 9 115 22 q 238 -4 193 -4 q 335 17 286 -4 q 348 51 336 26 q 372 104 360 75 q 395 162 385 133 q 406 210 406 190 z "},"À":{"ha":1065,"x_min":22,"x_max":1043,"o":"m 1043 206 l 988 243 q 946 172 968 172 q 909 200 924 172 q 894 283 894 228 l 894 583 q 884 755 894 683 q 857 871 874 826 l 857 869 q 678 994 811 994 l 679 994 q 667 996 674 996 q 651 996 660 996 q 453 1006 463 996 l 490 1028 l 479 1043 l 492 1068 q 428 1045 467 1065 q 352 999 389 1025 q 288 944 315 972 q 261 896 261 915 q 397 835 261 835 l 497 835 q 410 636 474 756 q 338 648 378 639 q 249 671 297 657 q 203 542 238 593 q 342 518 275 524 q 22 133 147 238 l 188 75 l 186 75 q 378 9 289 32 q 544 -19 467 -14 l 543 -8 q 641 113 604 69 q 693 193 678 157 l 671 215 q 640 228 651 228 q 621 185 628 200 q 606 163 614 169 q 585 154 597 156 q 554 153 574 153 q 487 163 524 153 q 410 188 450 172 q 327 223 369 204 q 243 260 285 242 q 337 388 293 326 q 419 508 381 450 l 589 508 q 658 507 629 507 q 707 507 688 507 q 714 297 714 388 q 726 142 714 207 q 773 33 739 76 q 883 -33 807 -10 q 908 -1 885 -32 q 959 72 931 31 q 1013 151 988 113 q 1043 206 1038 189 m 707 685 q 706 665 707 678 q 704 633 706 653 q 663 631 685 632 q 618 631 642 631 l 493 632 q 585 829 546 717 q 595 830 590 829 q 604 831 600 831 q 685 798 663 831 q 707 685 707 765 m 642 1099 l 576 1368 l 396 1368 l 589 1099 l 642 1099 z "},"Á":{"ha":1065,"x_min":22,"x_max":1043,"o":"m 1043 206 l 988 243 q 946 172 968 172 q 909 200 924 172 q 894 283 894 228 l 894 583 q 884 755 894 683 q 857 871 874 826 l 857 869 q 678 994 811 994 l 679 994 q 667 996 674 996 q 651 996 660 996 q 453 1006 463 996 l 490 1028 l 479 1043 l 492 1068 q 428 1045 467 1065 q 352 999 389 1025 q 288 944 315 972 q 261 896 261 915 q 397 835 261 835 l 497 835 q 410 636 474 756 q 338 648 378 639 q 249 671 297 657 q 203 542 238 593 q 342 518 275 524 q 22 133 147 238 l 188 75 l 186 75 q 378 9 289 32 q 544 -19 467 -14 l 543 -8 q 641 113 604 69 q 693 193 678 157 l 671 215 q 640 228 651 228 q 621 185 628 200 q 606 163 614 169 q 585 154 597 156 q 554 153 574 153 q 487 163 524 153 q 410 188 450 172 q 327 223 369 204 q 243 260 285 242 q 337 388 293 326 q 419 508 381 450 l 589 508 q 658 507 629 507 q 707 507 688 507 q 714 297 714 388 q 726 142 714 207 q 773 33 739 76 q 883 -33 807 -10 q 908 -1 885 -32 q 959 72 931 31 q 1013 151 988 113 q 1043 206 1038 189 m 707 685 q 706 665 707 678 q 704 633 706 653 q 663 631 685 632 q 618 631 642 631 l 493 632 q 585 829 546 717 q 595 830 590 829 q 604 831 600 831 q 685 798 663 831 q 707 685 707 765 m 868 1368 l 688 1368 l 622 1099 l 675 1099 l 868 1368 z "},"Â":{"ha":1065,"x_min":22,"x_max":1043,"o":"m 1043 206 l 988 243 q 946 172 968 172 q 909 200 924 172 q 894 283 894 228 l 894 583 q 884 755 894 683 q 857 871 874 826 l 857 869 q 678 994 811 994 l 679 994 q 667 996 674 996 q 651 996 660 996 q 453 1006 463 996 l 490 1028 l 479 1043 l 492 1068 q 428 1045 467 1065 q 352 999 389 1025 q 288 944 315 972 q 261 896 261 915 q 397 835 261 835 l 497 835 q 410 636 474 756 q 338 648 378 639 q 249 671 297 657 q 203 542 238 593 q 342 518 275 524 q 22 133 147 238 l 188 75 l 186 75 q 378 9 289 32 q 544 -19 467 -14 l 543 -8 q 641 113 604 69 q 693 193 678 157 l 671 215 q 640 228 651 228 q 621 185 628 200 q 606 163 614 169 q 585 154 597 156 q 554 153 574 153 q 487 163 524 153 q 410 188 450 172 q 327 223 369 204 q 243 260 285 242 q 337 388 293 326 q 419 508 381 450 l 589 508 q 658 507 629 507 q 707 507 688 507 q 714 297 714 388 q 726 142 714 207 q 773 33 739 76 q 883 -33 807 -10 q 908 -1 885 -32 q 959 72 931 31 q 1013 151 988 113 q 1043 206 1038 189 m 707 685 q 706 665 707 678 q 704 633 706 653 q 663 631 685 632 q 618 631 642 631 l 493 632 q 585 829 546 717 q 595 830 590 829 q 604 831 600 831 q 685 798 663 831 q 707 685 707 765 m 804 1099 l 671 1369 l 514 1369 l 376 1099 l 435 1099 l 592 1242 l 747 1099 l 804 1099 z "},"Ã":{"ha":1065,"x_min":22,"x_max":1043,"o":"m 1043 206 l 988 243 q 946 172 968 172 q 909 200 924 172 q 894 283 894 228 l 894 583 q 884 755 894 683 q 857 871 874 826 l 857 869 q 678 994 811 994 l 679 994 q 667 996 674 996 q 651 996 660 996 q 453 1006 463 996 l 490 1028 l 479 1043 l 492 1068 q 428 1045 467 1065 q 352 999 389 1025 q 288 944 315 972 q 261 896 261 915 q 397 835 261 835 l 497 835 q 410 636 474 756 q 338 648 378 639 q 249 671 297 657 q 203 542 238 593 q 342 518 275 524 q 22 133 147 238 l 188 75 l 186 75 q 378 9 289 32 q 544 -19 467 -14 l 543 -8 q 641 113 604 69 q 693 193 678 157 l 671 215 q 640 228 651 228 q 621 185 628 200 q 606 163 614 169 q 585 154 597 156 q 554 153 574 153 q 487 163 524 153 q 410 188 450 172 q 327 223 369 204 q 243 260 285 242 q 337 388 293 326 q 419 508 381 450 l 589 508 q 658 507 629 507 q 707 507 688 507 q 714 297 714 388 q 726 142 714 207 q 773 33 739 76 q 883 -33 807 -10 q 908 -1 885 -32 q 959 72 931 31 q 1013 151 988 113 q 1043 206 1038 189 m 707 685 q 706 665 707 678 q 704 633 706 653 q 663 631 685 632 q 618 631 642 631 l 493 632 q 585 829 546 717 q 595 830 590 829 q 604 831 600 831 q 685 798 663 831 q 707 685 707 765 m 847 1279 l 807 1279 q 743 1218 783 1218 q 699 1228 728 1218 q 640 1249 671 1238 q 580 1271 608 1261 q 538 1281 551 1281 q 392 1099 417 1281 l 435 1099 q 494 1158 456 1158 q 531 1149 504 1158 q 588 1128 557 1140 q 649 1108 619 1117 q 696 1099 679 1099 q 847 1279 829 1099 z "},"Ä":{"ha":1065,"x_min":22,"x_max":1043,"o":"m 1043 206 l 988 243 q 946 172 968 172 q 894 283 899 172 l 894 583 q 857 871 892 781 l 857 869 q 678 994 811 994 l 679 994 q 667 996 674 996 q 651 996 660 996 q 453 1006 463 996 l 490 1028 l 479 1043 l 492 1068 q 356 1003 442 1063 q 261 896 261 938 q 397 835 261 835 l 497 835 q 410 636 474 756 q 338 648 378 639 q 249 671 297 657 q 203 542 238 593 q 342 518 275 524 q 22 133 147 238 l 188 75 l 186 75 q 378 9 289 32 q 544 -19 467 -14 l 543 -8 q 572 28 558 11 q 596 56 585 44 q 693 193 672 142 l 671 215 q 640 228 651 228 q 613 171 619 181 q 554 153 599 153 q 394 192 486 153 q 319 226 357 210 q 243 260 282 243 q 337 388 293 326 q 419 508 381 450 l 471 508 l 589 508 q 658 507 629 507 q 707 507 688 507 q 715 246 715 361 q 746 74 715 131 q 883 -33 783 -3 q 971 88 896 -15 q 1043 206 1031 168 m 707 685 q 706 665 707 678 q 704 633 706 653 q 663 631 685 632 q 618 631 642 631 l 572 631 l 493 632 q 585 829 546 717 q 686 794 660 836 q 707 685 707 763 m 904 1274 l 724 1274 q 667 1097 722 1210 l 810 1099 q 904 1274 869 1179 m 665 1274 l 485 1274 q 428 1097 483 1210 l 571 1099 q 665 1274 631 1179 z "},"Å":{"ha":1065,"x_min":22,"x_max":1043,"o":"m 1043 206 l 988 243 q 946 172 968 172 q 909 200 924 172 q 894 283 894 228 l 894 583 q 884 755 894 683 q 857 871 874 826 l 857 869 q 678 994 811 994 l 679 994 q 667 996 674 996 q 651 996 660 996 q 453 1006 463 996 l 490 1028 l 479 1043 l 492 1068 q 428 1045 467 1065 q 352 999 389 1025 q 288 944 315 972 q 261 896 261 915 q 397 835 261 835 l 497 835 q 410 636 474 756 q 338 648 378 639 q 249 671 297 657 q 203 542 238 593 q 342 518 275 524 q 22 133 147 238 l 188 75 l 186 75 q 378 9 289 32 q 544 -19 467 -14 l 543 -8 q 641 113 604 69 q 693 193 678 157 l 671 215 q 640 228 651 228 q 621 185 628 200 q 606 163 614 169 q 585 154 597 156 q 554 153 574 153 q 487 163 524 153 q 410 188 450 172 q 327 223 369 204 q 243 260 285 242 q 337 388 293 326 q 419 508 381 450 l 589 508 q 658 507 629 507 q 707 507 688 507 q 714 297 714 388 q 726 142 714 207 q 773 33 739 76 q 883 -33 807 -10 q 908 -1 885 -32 q 959 72 931 31 q 1013 151 988 113 q 1043 206 1038 189 m 707 685 q 706 665 707 678 q 704 633 706 653 q 663 631 685 632 q 618 631 642 631 l 493 632 q 585 829 546 717 q 595 830 590 829 q 604 831 600 831 q 685 798 663 831 q 707 685 707 765 m 743 1221 q 707 1306 743 1271 q 621 1342 671 1342 q 535 1306 571 1342 q 499 1221 499 1271 q 535 1134 499 1169 q 621 1099 571 1099 q 707 1134 671 1099 q 743 1221 743 1169 m 688 1221 q 667 1174 688 1193 q 621 1154 647 1154 q 574 1174 594 1154 q 554 1221 554 1193 q 574 1267 554 1247 q 621 1286 593 1286 q 668 1267 649 1286 q 688 1221 688 1247 z "},"Æ":{"ha":1615,"x_min":22,"x_max":1597,"o":"m 1582 1051 l 1532 1063 q 1533 1056 1532 1060 q 1533 1049 1533 1051 q 1522 1013 1533 1025 q 1492 994 1510 1000 q 1453 989 1474 989 q 1415 989 1433 989 q 1164 1029 1328 989 q 1043 865 1129 926 q 1088 656 1083 810 q 1043 658 1063 657 q 1010 658 1024 658 q 967 563 986 603 q 932 496 947 522 q 960 497 940 496 q 1000 497 979 497 q 1041 498 1022 497 q 1068 499 1060 499 q 1022 397 1042 440 q 986 325 1001 353 q 1026 342 1004 328 q 1070 381 1049 357 q 1113 435 1092 404 q 1151 499 1135 465 q 1203 499 1168 499 q 1278 500 1239 500 q 1353 501 1318 500 q 1406 501 1389 501 q 1507 492 1474 501 q 1544 642 1517 606 l 1531 664 q 1375 656 1486 656 l 1206 656 q 1214 758 1214 703 q 1210 842 1214 793 q 1317 828 1272 832 q 1394 824 1363 824 q 1524 838 1454 824 q 1582 1051 1575 931 m 1597 268 q 1576 288 1585 279 q 1560 303 1567 296 q 1257 175 1415 175 q 942 336 1049 175 q 893 450 897 401 q 892 613 892 456 q 903 656 892 632 q 932 707 914 681 q 973 758 950 733 q 1021 803 996 783 q 994 840 1010 831 q 930 815 958 825 q 878 801 901 804 q 857 871 869 840 l 857 869 q 651 996 811 996 q 453 1006 463 996 l 490 1028 l 479 1043 l 492 1068 q 428 1045 467 1065 q 352 999 389 1025 q 288 944 315 972 q 261 896 261 915 q 397 835 261 835 l 497 835 q 410 636 474 756 q 338 648 378 639 q 249 671 297 657 q 203 542 238 593 q 342 518 275 524 q 22 133 147 238 l 188 75 l 186 75 q 378 9 289 32 q 544 -19 467 -14 l 543 -8 q 641 113 604 69 q 693 193 678 157 l 671 215 q 640 228 651 228 q 621 185 628 200 q 606 163 614 169 q 585 154 597 156 q 554 153 574 153 q 487 163 524 153 q 410 188 450 172 q 327 223 369 204 q 243 260 285 242 q 337 388 293 326 q 419 508 381 450 l 589 508 q 658 507 629 507 q 707 507 688 507 q 714 297 714 388 q 726 142 714 207 q 773 33 739 76 q 883 -33 807 -10 q 908 4 894 -17 q 939 51 921 25 q 1222 -24 1061 -24 q 1522 71 1369 -24 q 1597 268 1536 174 m 707 685 q 706 665 707 678 q 704 633 706 653 q 663 631 685 632 q 618 631 642 631 l 493 632 q 585 829 546 717 q 595 830 590 829 q 604 831 600 831 q 685 798 663 831 q 707 685 707 765 z "},"Ç":{"ha":861,"x_min":22,"x_max":838,"o":"m 808 1019 q 784 1010 794 1019 q 762 990 774 1001 q 733 970 750 979 q 690 961 717 961 q 489 1008 582 961 l 479 999 l 481 1001 l 476 994 q 418 915 419 917 q 338 858 382 874 q 372 682 372 781 q 321 363 372 496 q 310 322 310 332 q 310 315 310 319 q 311 306 310 313 l 311 288 q 401 374 364 329 q 460 476 438 419 q 492 604 482 533 q 501 769 501 675 q 501 778 501 772 q 500 790 501 783 l 500 813 q 521 808 500 813 q 571 797 542 803 q 631 785 600 790 q 681 781 661 781 q 731 790 710 781 q 753 824 740 794 q 779 892 767 854 q 800 965 792 929 q 808 1019 808 1001 m 838 299 q 805 315 818 308 q 782 328 792 322 q 679 209 747 251 q 526 167 611 167 q 283 260 367 167 q 200 518 200 354 q 326 801 200 671 q 299 832 314 811 q 143 799 246 799 q 22 475 22 638 q 53 292 22 379 q 140 140 85 206 q 272 32 196 74 q 436 -15 347 -10 l 401 -28 l 335 -100 q 370 -95 357 -97 q 389 -93 383 -93 q 443 -107 418 -93 q 468 -147 468 -121 q 439 -193 468 -178 q 378 -208 410 -208 q 315 -204 369 -208 l 297 -242 q 355 -250 328 -247 q 408 -253 382 -253 q 544 -219 492 -253 q 596 -121 596 -186 q 514 -15 596 -39 q 746 65 642 -6 q 838 299 760 153 z "},"È":{"ha":938,"x_min":24,"x_max":913,"o":"m 897 1051 l 847 1063 q 848 1056 847 1060 q 849 1049 849 1051 q 837 1013 849 1025 q 807 994 825 1000 q 768 989 789 989 q 731 989 749 989 q 479 1029 643 989 q 358 865 444 926 q 403 656 399 810 q 358 658 378 657 q 325 658 339 658 q 282 563 301 603 q 247 496 263 522 q 275 497 256 496 q 315 497 294 497 q 356 498 338 497 q 383 499 375 499 q 337 397 357 440 q 301 325 317 353 q 342 342 319 328 q 385 381 364 357 q 428 435 407 404 q 467 499 450 465 q 519 499 483 499 q 593 500 554 500 q 669 501 633 500 q 721 501 704 501 q 822 492 789 501 q 860 642 832 606 l 846 664 q 690 656 801 656 l 521 656 q 529 758 529 703 q 525 842 529 793 q 633 828 588 832 q 710 824 678 824 q 839 838 769 824 q 897 1051 890 931 m 913 268 q 891 288 900 279 q 875 303 882 296 q 572 175 731 175 q 419 202 488 175 q 301 278 350 229 q 226 396 253 326 q 200 549 200 465 q 336 803 200 692 q 310 840 328 831 q 135 794 215 799 q 24 493 24 679 q 61 285 24 381 q 167 122 99 190 q 329 15 235 53 q 538 -24 424 -24 q 838 71 685 -24 q 913 268 851 174 m 579 1099 l 514 1368 l 333 1368 l 526 1099 l 579 1099 z "},"É":{"ha":938,"x_min":24,"x_max":913,"o":"m 897 1051 l 847 1063 q 848 1056 847 1060 q 849 1049 849 1051 q 837 1013 849 1025 q 807 994 825 1000 q 768 989 789 989 q 731 989 749 989 q 479 1029 643 989 q 358 865 444 926 q 403 656 399 810 q 358 658 378 657 q 325 658 339 658 q 282 563 301 603 q 247 496 263 522 q 275 497 256 496 q 315 497 294 497 q 356 498 338 497 q 383 499 375 499 q 337 397 357 440 q 301 325 317 353 q 342 342 319 328 q 385 381 364 357 q 428 435 407 404 q 467 499 450 465 q 519 499 483 499 q 593 500 554 500 q 669 501 633 500 q 721 501 704 501 q 822 492 789 501 q 860 642 832 606 l 846 664 q 690 656 801 656 l 521 656 q 529 758 529 703 q 525 842 529 793 q 633 828 588 832 q 710 824 678 824 q 839 838 769 824 q 897 1051 890 931 m 913 268 q 891 288 900 279 q 875 303 882 296 q 572 175 731 175 q 419 202 488 175 q 301 278 350 229 q 226 396 253 326 q 200 549 200 465 q 336 803 200 692 q 310 840 328 831 q 135 794 215 799 q 24 493 24 679 q 61 285 24 381 q 167 122 99 190 q 329 15 235 53 q 538 -24 424 -24 q 838 71 685 -24 q 913 268 851 174 m 846 1368 l 665 1368 l 600 1099 l 653 1099 l 846 1368 z "},"Ê":{"ha":938,"x_min":24,"x_max":913,"o":"m 897 1051 l 847 1063 q 848 1056 847 1060 q 849 1049 849 1051 q 837 1013 849 1025 q 807 994 825 1000 q 768 989 789 989 q 731 989 749 989 q 479 1029 643 989 q 358 865 444 926 q 403 656 399 810 q 358 658 378 657 q 325 658 339 658 q 282 563 301 603 q 247 496 263 522 q 275 497 256 496 q 315 497 294 497 q 356 498 338 497 q 383 499 375 499 q 337 397 357 440 q 301 325 317 353 q 342 342 319 328 q 385 381 364 357 q 428 435 407 404 q 467 499 450 465 q 519 499 483 499 q 593 500 554 500 q 669 501 633 500 q 721 501 704 501 q 822 492 789 501 q 860 642 832 606 l 846 664 q 690 656 801 656 l 521 656 q 529 758 529 703 q 525 842 529 793 q 633 828 588 832 q 710 824 678 824 q 839 838 769 824 q 897 1051 890 931 m 913 268 q 891 288 900 279 q 875 303 882 296 q 572 175 731 175 q 419 202 488 175 q 301 278 350 229 q 226 396 253 326 q 200 549 200 465 q 336 803 200 692 q 310 840 328 831 q 135 794 215 799 q 24 493 24 679 q 61 285 24 381 q 167 122 99 190 q 329 15 235 53 q 538 -24 424 -24 q 838 71 685 -24 q 913 268 851 174 m 721 1099 l 588 1369 l 431 1369 l 293 1099 l 351 1099 l 508 1242 l 664 1099 l 721 1099 z "},"Ë":{"ha":938,"x_min":24,"x_max":913,"o":"m 897 1051 l 847 1063 q 848 1056 847 1060 q 849 1049 849 1051 q 837 1013 849 1025 q 807 994 825 1000 q 768 989 789 989 q 731 989 749 989 q 479 1029 643 989 q 358 865 444 926 q 403 656 399 810 q 358 658 378 657 q 325 658 339 658 q 282 563 301 603 q 247 496 263 522 q 275 497 256 496 q 315 497 294 497 q 356 498 338 497 q 383 499 375 499 q 337 397 357 440 q 301 325 317 353 q 342 342 319 328 q 385 381 364 357 q 428 435 407 404 q 467 499 450 465 q 519 499 483 499 q 593 500 554 500 q 669 501 633 500 q 721 501 704 501 q 822 492 789 501 q 860 642 832 606 l 846 664 q 690 656 801 656 l 521 656 q 529 758 529 703 q 525 842 529 793 q 633 828 588 832 q 710 824 678 824 q 839 838 769 824 q 897 1051 890 931 m 913 268 q 891 288 900 279 q 875 303 882 296 q 572 175 731 175 q 419 202 488 175 q 301 278 350 229 q 226 396 253 326 q 200 549 200 465 q 336 803 200 692 q 310 840 328 831 q 135 794 215 799 q 24 493 24 679 q 61 285 24 381 q 167 122 99 190 q 329 15 235 53 q 538 -24 424 -24 q 838 71 685 -24 q 913 268 851 174 m 782 1275 l 601 1275 q 544 1099 600 1211 l 688 1100 q 782 1275 747 1181 m 543 1275 l 363 1275 q 306 1099 361 1211 l 449 1100 q 543 1275 508 1181 z "},"Ì":{"ha":686,"x_min":22,"x_max":663,"o":"m 663 1047 q 464 1004 563 1004 q 204 1064 340 1004 q 163 953 190 1008 q 94 843 135 899 l 132 811 q 189 856 165 856 q 238 850 201 856 q 317 838 274 844 q 401 825 360 831 q 464 819 442 819 q 444 690 444 774 q 446 610 444 664 q 449 499 447 557 q 453 387 451 440 q 454 307 454 333 q 436 132 454 164 q 367 158 413 132 q 277 222 322 185 q 198 298 232 258 q 164 363 164 338 q 185 410 164 386 q 233 442 206 433 l 233 444 q 217 482 233 458 q 76 408 131 465 q 22 271 22 350 q 153 81 22 176 q 374 -22 268 -1 q 394 14 376 -6 q 436 54 411 33 q 492 97 461 75 q 551 143 522 119 q 603 191 585 169 q 631 237 622 213 q 643 290 640 261 q 647 360 646 318 q 647 385 647 374 q 646 406 647 396 l 646 404 q 638 836 638 597 q 663 1047 638 915 m 447 1099 l 382 1368 l 201 1368 l 394 1099 l 447 1099 z "},"Í":{"ha":686,"x_min":22,"x_max":671,"o":"m 663 1047 q 464 1004 563 1004 q 204 1064 340 1004 q 163 953 190 1008 q 94 843 135 899 l 132 811 q 189 856 165 856 q 238 850 201 856 q 317 838 274 844 q 401 825 360 831 q 464 819 442 819 q 444 690 444 774 q 446 610 444 664 q 449 499 447 557 q 453 387 451 440 q 454 307 454 333 q 436 132 454 164 q 367 158 413 132 q 277 222 322 185 q 198 298 232 258 q 164 363 164 338 q 185 410 164 386 q 233 442 206 433 l 233 444 q 217 482 233 458 q 76 408 131 465 q 22 271 22 350 q 153 81 22 176 q 374 -22 268 -1 q 394 14 376 -6 q 436 54 411 33 q 492 97 461 75 q 551 143 522 119 q 603 191 585 169 q 631 237 622 213 q 643 290 640 261 q 647 360 646 318 q 647 385 647 374 q 646 406 647 396 l 646 404 q 638 836 638 597 q 663 1047 638 915 m 671 1368 l 490 1368 l 425 1099 l 478 1099 l 671 1368 z "},"Î":{"ha":686,"x_min":22,"x_max":663,"o":"m 663 1047 q 464 1004 563 1004 q 204 1064 340 1004 q 163 953 190 1008 q 94 843 135 899 l 132 811 q 189 856 165 856 q 238 850 201 856 q 317 838 274 844 q 401 825 360 831 q 464 819 442 819 q 444 690 444 774 q 446 610 444 664 q 449 499 447 557 q 453 387 451 440 q 454 307 454 333 q 436 132 454 164 q 367 158 413 132 q 277 222 322 185 q 198 298 232 258 q 164 363 164 338 q 185 410 164 386 q 233 442 206 433 l 233 444 q 217 482 233 458 q 76 408 131 465 q 22 271 22 350 q 153 81 22 176 q 374 -22 268 -1 q 394 14 376 -6 q 436 54 411 33 q 492 97 461 75 q 551 143 522 119 q 603 191 585 169 q 631 237 622 213 q 643 290 640 261 q 647 360 646 318 q 647 385 647 374 q 646 406 647 396 l 646 404 q 638 836 638 597 q 663 1047 638 915 m 644 1099 l 511 1369 l 354 1369 l 217 1099 l 275 1099 l 432 1242 l 588 1099 l 644 1099 z "},"Ï":{"ha":686,"x_min":22,"x_max":685,"o":"m 663 1047 q 464 1004 563 1004 q 204 1064 340 1004 q 163 953 190 1008 q 94 843 135 899 l 132 811 q 189 856 165 856 q 238 850 201 856 q 317 838 274 844 q 401 825 360 831 q 464 819 442 819 q 444 690 444 774 q 446 610 444 664 q 449 499 447 557 q 453 387 451 440 q 454 307 454 333 q 436 132 454 164 q 367 158 413 132 q 277 222 322 185 q 198 298 232 258 q 164 363 164 338 q 185 410 164 386 q 233 442 206 433 l 233 444 q 217 482 233 458 q 76 408 131 465 q 22 271 22 350 q 153 81 22 176 q 374 -22 268 -1 q 394 14 376 -6 q 436 54 411 33 q 492 97 461 75 q 551 143 522 119 q 603 191 585 169 q 631 237 622 213 q 643 290 640 261 q 647 360 646 318 q 647 385 647 374 q 646 406 647 396 l 646 404 q 638 836 638 597 q 663 1047 638 915 m 685 1275 l 504 1275 q 447 1099 503 1211 l 590 1100 q 685 1275 650 1181 m 446 1275 l 265 1275 q 208 1099 264 1211 l 351 1100 q 446 1275 411 1181 z "},"Ð":{"ha":1160,"x_min":25,"x_max":1135,"o":"m 1135 565 q 1119 678 1135 622 q 1076 785 1104 735 q 1008 876 1049 835 q 917 943 968 917 q 513 1014 776 1014 q 472 1010 503 1014 q 404 1003 440 1007 q 336 995 368 999 q 293 992 304 992 l 286 992 q 305 1021 296 1008 q 322 1043 314 1033 q 283 1069 310 1057 q 240 1022 263 1050 q 200 963 218 993 q 170 904 182 933 q 158 856 158 875 q 226 817 158 817 q 281 821 244 817 q 358 829 318 825 q 433 838 397 833 q 488 842 469 842 q 680 819 593 842 q 829 753 767 796 q 926 649 892 711 q 960 507 960 586 q 931 304 960 414 q 825 157 892 157 q 606 199 740 157 q 389 261 419 254 l 392 261 l 346 272 q 417 324 386 303 q 469 361 449 346 l 468 361 q 518 436 503 392 l 751 436 l 751 526 l 535 526 q 537 551 536 538 q 538 579 538 564 q 535 677 538 640 q 533 721 533 714 q 554 756 533 746 q 594 776 575 765 q 590 822 590 793 q 487 801 526 811 q 424 776 447 790 q 392 744 401 763 q 376 696 382 725 q 372 647 375 689 q 365 526 369 606 l 164 526 l 164 436 l 356 436 q 319 358 347 390 q 257 300 317 356 q 218 306 236 306 q 169 298 190 306 q 130 273 147 290 q 97 227 113 256 q 65 156 82 199 q 25 68 40 89 l 49 49 l 47 50 l 74 32 q 176 129 108 129 q 231 117 189 129 q 322 90 272 106 q 422 56 372 74 q 503 28 472 39 q 536 17 533 18 q 842 -25 696 -25 q 942 146 910 88 q 1007 242 974 194 q 1072 339 1040 289 q 1119 447 1104 390 q 1135 565 1133 503 z "},"Ñ":{"ha":1017,"x_min":25,"x_max":1004,"o":"m 1004 207 q 981 221 992 218 l 982 221 l 957 236 l 940 194 q 881 335 906 199 q 863 506 863 438 q 918 853 863 664 l 917 853 l 953 960 l 951 958 q 963 991 958 978 q 969 1014 967 1004 q 808 986 871 986 q 588 1043 693 986 q 510 988 543 1013 q 458 946 478 964 l 460 946 q 364 836 413 906 q 318 903 338 875 q 285 951 299 932 l 286 950 q 279 971 279 964 q 322 1013 279 990 q 303 1039 311 1028 q 289 1057 294 1050 q 214 1020 249 1040 q 154 978 179 1000 q 115 935 129 957 q 100 896 100 914 q 160 768 100 858 q 239 629 229 658 q 261 456 261 568 q 25 139 261 279 q 66 120 39 133 q 122 92 93 107 q 176 63 150 76 q 215 44 203 50 q 431 -26 353 -8 q 495 31 474 11 q 518 51 517 50 q 590 144 550 83 l 590 143 l 610 172 q 571 201 583 194 q 503 153 528 156 q 501 154 503 153 l 497 154 q 447 160 475 154 q 388 178 418 167 q 330 203 358 189 q 281 233 301 218 l 286 238 l 286 236 q 350 290 319 257 q 403 363 381 324 q 440 443 426 401 q 454 524 454 485 q 415 740 454 614 l 413 743 q 465 836 429 817 q 646 792 546 792 q 699 794 674 792 q 749 799 725 796 q 703 703 721 744 q 676 621 686 661 q 662 537 665 581 q 658 436 658 493 q 704 124 658 263 q 722 84 711 101 q 751 50 733 67 q 798 16 769 33 q 869 -24 826 -1 q 1004 207 982 135 m 819 1279 l 779 1279 q 715 1218 756 1218 q 672 1228 700 1218 q 612 1249 643 1238 q 552 1271 581 1261 q 510 1281 524 1281 q 364 1099 389 1281 l 407 1099 q 467 1158 428 1158 q 503 1149 476 1158 q 560 1128 529 1140 q 622 1108 592 1117 q 668 1099 651 1099 q 819 1279 801 1099 z "},"Ò":{"ha":1119,"x_min":24,"x_max":1103,"o":"m 1103 579 q 1025 864 1103 778 l 1026 863 q 910 969 969 933 l 911 969 q 572 1064 775 1064 q 510 1062 543 1064 q 440 1054 476 1060 q 336 894 440 950 q 400 671 400 781 q 356 486 400 599 q 313 365 313 378 l 321 365 q 329 364 325 364 q 365 390 335 364 q 435 450 394 417 q 521 732 521 629 q 481 875 521 814 q 561 882 504 882 q 932 581 872 882 l 932 582 q 935 557 932 575 q 942 517 939 539 q 947 474 944 494 q 950 440 950 453 q 886 208 950 251 q 665 143 792 143 q 492 175 574 143 q 349 263 410 207 q 251 397 288 319 q 215 567 215 475 q 281 781 215 669 l 279 779 q 343 854 314 831 l 326 868 l 326 890 q 160 839 243 846 q 102 778 128 814 q 59 699 76 743 q 33 608 42 656 q 24 510 24 560 q 64 318 24 414 q 615 -17 206 -17 q 625 -17 619 -17 q 642 -15 632 -17 l 668 -15 q 1103 579 1103 186 m 579 1099 l 514 1368 l 333 1368 l 526 1099 l 579 1099 z "},"Ó":{"ha":1119,"x_min":24,"x_max":1103,"o":"m 1103 579 q 1025 864 1103 778 l 1026 863 q 910 969 969 933 l 911 969 q 572 1064 775 1064 q 510 1062 543 1064 q 440 1054 476 1060 q 336 894 440 950 q 400 671 400 781 q 356 486 400 599 q 313 365 313 378 l 321 365 q 329 364 325 364 q 365 390 335 364 q 435 450 394 417 q 521 732 521 629 q 481 875 521 814 q 561 882 504 882 q 932 581 872 882 l 932 582 q 935 557 932 575 q 942 517 939 539 q 947 474 944 494 q 950 440 950 453 q 886 208 950 251 q 665 143 792 143 q 492 175 574 143 q 349 263 410 207 q 251 397 288 319 q 215 567 215 475 q 281 781 215 669 l 279 779 q 343 854 314 831 l 326 868 l 326 890 q 160 839 243 846 q 102 778 128 814 q 59 699 76 743 q 33 608 42 656 q 24 510 24 560 q 64 318 24 414 q 615 -17 206 -17 q 625 -17 619 -17 q 642 -15 632 -17 l 668 -15 q 1103 579 1103 186 m 813 1368 l 632 1368 l 567 1099 l 619 1099 l 813 1368 z "},"Ô":{"ha":1119,"x_min":24,"x_max":1103,"o":"m 1103 579 q 1025 864 1103 778 l 1026 863 q 910 969 969 933 l 911 969 q 572 1064 775 1064 q 510 1062 543 1064 q 440 1054 476 1060 q 336 894 440 950 q 400 671 400 781 q 356 486 400 599 q 313 365 313 378 l 321 365 q 329 364 325 364 q 365 390 335 364 q 435 450 394 417 q 521 732 521 629 q 481 875 521 814 q 561 882 504 882 q 932 581 872 882 l 932 582 q 935 557 932 575 q 942 517 939 539 q 947 474 944 494 q 950 440 950 453 q 886 208 950 251 q 665 143 792 143 q 492 175 574 143 q 349 263 410 207 q 251 397 288 319 q 215 567 215 475 q 281 781 215 669 l 279 779 q 343 854 314 831 l 326 868 l 326 890 q 160 839 243 846 q 102 778 128 814 q 59 699 76 743 q 33 608 42 656 q 24 510 24 560 q 64 318 24 414 q 615 -17 206 -17 q 625 -17 619 -17 q 642 -15 632 -17 l 668 -15 q 1103 579 1103 186 m 788 1099 l 654 1369 l 497 1369 l 360 1099 l 418 1099 l 575 1242 l 731 1099 l 788 1099 z "},"Õ":{"ha":1119,"x_min":24,"x_max":1103,"o":"m 1103 579 q 1025 864 1103 778 l 1026 863 q 910 969 969 933 l 911 969 q 572 1064 775 1064 q 510 1062 543 1064 q 440 1054 476 1060 q 336 894 440 950 q 400 671 400 781 q 356 486 400 599 q 313 365 313 378 l 321 365 q 329 364 325 364 q 365 390 335 364 q 435 450 394 417 q 521 732 521 629 q 481 875 521 814 q 561 882 504 882 q 932 581 872 882 l 932 582 q 935 557 932 575 q 942 517 939 539 q 947 474 944 494 q 950 440 950 453 q 886 208 950 251 q 665 143 792 143 q 492 175 574 143 q 349 263 410 207 q 251 397 288 319 q 215 567 215 475 q 281 781 215 669 l 279 779 q 343 854 314 831 l 326 868 l 326 890 q 160 839 243 846 q 102 778 128 814 q 59 699 76 743 q 33 608 42 656 q 24 510 24 560 q 64 318 24 414 q 615 -17 206 -17 q 625 -17 619 -17 q 642 -15 632 -17 l 668 -15 q 1103 579 1103 186 m 808 1279 l 768 1279 q 704 1218 744 1218 q 660 1228 689 1218 q 601 1249 632 1238 q 541 1271 569 1261 q 499 1281 513 1281 q 353 1099 378 1281 l 396 1099 q 456 1158 417 1158 q 492 1149 465 1158 q 549 1128 518 1140 q 610 1108 581 1117 q 657 1099 640 1099 q 808 1279 790 1099 z "},"Ö":{"ha":1119,"x_min":24,"x_max":1103,"o":"m 1103 579 q 1025 864 1103 778 l 1026 863 q 910 969 969 933 l 911 969 q 572 1064 775 1064 q 510 1062 543 1064 q 440 1054 476 1060 q 336 894 440 950 q 400 671 400 781 q 356 486 400 599 q 313 365 313 378 l 321 365 q 329 364 325 364 q 365 390 335 364 q 435 450 394 417 q 521 732 521 629 q 481 875 521 814 q 561 882 504 882 q 932 581 872 882 l 932 582 q 935 557 932 575 q 942 517 939 539 q 947 474 944 494 q 950 440 950 453 q 886 208 950 251 q 665 143 792 143 q 492 175 574 143 q 349 263 410 207 q 251 397 288 319 q 215 567 215 475 q 281 781 215 669 l 279 779 q 343 854 314 831 l 326 868 l 326 890 q 160 839 243 846 q 102 778 128 814 q 59 699 76 743 q 33 608 42 656 q 24 510 24 560 q 64 318 24 414 q 615 -17 206 -17 q 625 -17 619 -17 q 642 -15 632 -17 l 668 -15 q 1103 579 1103 186 m 922 1278 l 742 1278 q 685 1101 740 1214 l 828 1103 q 922 1278 888 1183 m 683 1278 l 503 1278 q 446 1101 501 1214 l 589 1103 q 683 1278 649 1183 z "},"×":{"ha":694,"x_min":24,"x_max":671,"o":"m 671 600 l 579 692 l 350 468 l 121 697 l 25 600 l 253 372 l 24 144 l 117 53 l 347 281 l 576 53 l 669 151 l 443 376 l 671 600 z "},"Ø":{"ha":1119,"x_min":24,"x_max":1103,"o":"m 846 767 q 932 581 908 696 l 932 582 q 935 557 932 575 q 942 517 939 539 q 947 474 944 494 q 950 440 950 453 q 886 208 950 251 q 665 143 792 143 q 468 185 561 143 l 846 767 m 936 1053 l 890 983 q 572 1064 760 1064 q 510 1062 543 1064 q 440 1054 476 1060 q 336 894 440 950 q 400 671 400 781 q 356 486 400 599 q 313 365 313 378 l 321 365 q 329 364 325 364 q 365 390 335 364 q 435 450 394 417 q 521 732 521 629 q 481 875 521 814 q 561 882 504 882 q 785 821 694 882 l 397 224 q 215 567 215 347 q 281 781 215 669 l 279 779 q 343 854 314 831 l 326 868 l 326 890 q 160 839 243 846 q 102 778 128 814 q 59 699 76 743 q 33 608 42 656 q 24 510 24 560 q 44 369 24 438 q 102 242 65 301 q 187 135 139 182 q 289 57 235 88 l 246 -8 l 314 -53 l 364 24 q 615 -17 476 -17 q 625 -17 619 -17 q 642 -15 632 -17 l 668 -15 q 1103 579 1103 186 q 1025 864 1103 778 l 1026 863 q 991 903 1008 885 q 956 936 974 921 l 1004 1010 l 936 1053 z "},"Ù":{"ha":1015,"x_min":22,"x_max":1003,"o":"m 1003 181 q 979 199 989 192 q 963 213 969 207 q 925 167 943 167 q 857 326 869 167 q 855 395 856 344 q 854 533 854 446 q 857 748 854 632 q 865 1001 860 864 l 865 1000 q 867 1034 867 1015 q 868 1075 868 1053 q 639 974 792 1015 q 668 865 664 932 l 668 207 q 554 161 611 161 q 293 243 454 161 q 358 321 333 289 q 397 378 383 353 q 415 426 410 403 q 419 476 419 449 q 347 739 419 576 q 276 951 276 903 q 342 1022 276 1006 q 333 1053 338 1040 q 326 1074 329 1065 q 108 975 186 1031 q 81 906 81 956 q 107 785 81 843 l 106 786 q 156 650 138 692 l 156 651 q 185 570 169 611 q 211 490 200 529 q 230 417 222 451 q 238 354 238 382 q 164 225 238 278 q 22 156 129 199 q 492 -24 269 29 q 686 133 588 35 q 867 -26 738 36 q 932 51 913 19 l 931 49 q 1003 181 972 94 m 531 1099 l 465 1368 l 285 1368 l 478 1099 l 531 1099 z "},"Ú":{"ha":1015,"x_min":22,"x_max":1003,"o":"m 1003 181 q 979 199 989 192 q 963 213 969 207 q 925 167 943 167 q 857 326 869 167 q 855 395 856 344 q 854 533 854 446 q 857 748 854 632 q 865 1001 860 864 l 865 1000 q 867 1034 867 1015 q 868 1075 868 1053 q 639 974 792 1015 q 668 865 664 932 l 668 207 q 554 161 611 161 q 293 243 454 161 q 358 321 333 289 q 397 378 383 353 q 415 426 410 403 q 419 476 419 449 q 347 739 419 576 q 276 951 276 903 q 342 1022 276 1006 q 333 1053 338 1040 q 326 1074 329 1065 q 108 975 186 1031 q 81 906 81 956 q 107 785 81 843 l 106 786 q 156 650 138 692 l 156 651 q 185 570 169 611 q 211 490 200 529 q 230 417 222 451 q 238 354 238 382 q 164 225 238 278 q 22 156 129 199 q 492 -24 269 29 q 686 133 588 35 q 867 -26 738 36 q 932 51 913 19 l 931 49 q 1003 181 972 94 m 736 1368 l 556 1368 l 490 1099 l 543 1099 l 736 1368 z "},"Û":{"ha":1015,"x_min":22,"x_max":1003,"o":"m 1003 181 q 979 199 989 192 q 963 213 969 207 q 925 167 943 167 q 857 326 869 167 q 855 395 856 344 q 854 533 854 446 q 857 748 854 632 q 865 1001 860 864 l 865 1000 q 867 1034 867 1015 q 868 1075 868 1053 q 639 974 792 1015 q 668 865 664 932 l 668 207 q 554 161 611 161 q 293 243 454 161 q 358 321 333 289 q 397 378 383 353 q 415 426 410 403 q 419 476 419 449 q 347 739 419 576 q 276 951 276 903 q 342 1022 276 1006 q 333 1053 338 1040 q 326 1074 329 1065 q 108 975 186 1031 q 81 906 81 956 q 107 785 81 843 l 106 786 q 156 650 138 692 l 156 651 q 185 570 169 611 q 211 490 200 529 q 230 417 222 451 q 238 354 238 382 q 164 225 238 278 q 22 156 129 199 q 492 -24 269 29 q 686 133 588 35 q 867 -26 738 36 q 932 51 913 19 l 931 49 q 1003 181 972 94 m 792 1099 l 658 1369 l 501 1369 l 364 1099 l 422 1099 l 579 1242 l 735 1099 l 792 1099 z "},"Ü":{"ha":1015,"x_min":22,"x_max":1003,"o":"m 1003 181 q 979 199 989 192 q 963 213 969 207 q 925 167 943 167 q 857 326 869 167 q 855 395 856 344 q 854 533 854 446 q 857 748 854 632 q 865 1001 860 864 l 865 1000 q 867 1034 867 1015 q 868 1075 868 1053 q 639 974 792 1015 q 668 865 664 932 l 668 207 q 554 161 611 161 q 293 243 454 161 q 358 321 333 289 q 397 378 383 353 q 415 426 410 403 q 419 476 419 449 q 347 739 419 576 q 276 951 276 903 q 342 1022 276 1006 q 333 1053 338 1040 q 326 1074 329 1065 q 108 975 186 1031 q 81 906 81 956 q 107 785 81 843 l 106 786 q 156 650 138 692 l 156 651 q 185 570 169 611 q 211 490 200 529 q 230 417 222 451 q 238 354 238 382 q 164 225 238 278 q 22 156 129 199 q 492 -24 269 29 q 686 133 588 35 q 867 -26 738 36 q 932 51 913 19 l 931 49 q 1003 181 972 94 m 850 1275 l 669 1275 q 613 1099 668 1211 l 756 1100 q 850 1275 815 1181 m 611 1275 l 431 1275 q 374 1099 429 1211 l 517 1100 q 611 1275 576 1181 z "},"Ý":{"ha":839,"x_min":24,"x_max":815,"o":"m 815 985 q 799 1019 800 1018 q 710 1001 757 1018 q 624 955 663 983 q 559 891 585 926 q 533 818 533 856 q 536 792 533 817 q 543 730 539 768 q 551 644 547 692 q 560 551 556 597 q 567 462 564 504 q 569 392 569 419 q 555 353 569 371 q 519 320 540 335 q 470 297 497 306 q 418 289 443 289 q 215 428 286 289 q 326 501 303 478 q 375 624 375 550 q 263 863 375 738 l 264 863 q 194 958 194 944 l 196 968 l 196 967 q 247 1010 207 992 l 279 1011 l 258 1031 q 257 1043 257 1036 q 256 1060 257 1050 q 190 1033 221 1046 q 131 1007 158 1021 l 132 1007 q 98 993 117 1004 q 63 965 79 982 q 35 930 46 949 q 24 894 24 911 q 114 731 24 850 q 206 550 206 611 q 140 449 206 493 l 142 450 q 83 417 111 432 q 26 388 54 401 q 62 306 47 339 q 91 249 76 272 q 125 208 106 225 q 175 176 144 192 q 318 143 239 143 q 393 154 360 143 l 392 153 q 574 276 449 167 q 575 238 574 264 q 578 185 576 213 q 582 131 581 157 q 583 93 583 106 q 543 -43 583 1 q 244 11 349 11 q 176 2 210 11 q 115 -24 142 -7 q 73 -63 89 -40 q 57 -112 57 -86 q 72 -161 57 -139 q 111 -199 86 -183 q 171 -223 136 -214 q 246 -232 206 -232 q 433 -192 346 -232 q 615 -242 546 -242 q 673 -219 644 -242 q 724 -164 701 -197 q 762 -92 747 -131 q 778 -22 776 -54 q 751 -16 763 -19 q 728 -8 739 -12 q 694 -85 722 -85 q 615 -68 667 -85 q 690 38 664 -24 l 690 36 q 721 104 717 86 l 719 103 q 771 435 771 218 q 769 494 771 457 q 763 577 767 532 q 756 672 760 622 q 748 767 751 721 q 742 849 744 813 q 740 908 740 886 q 815 985 740 953 m 351 -156 q 244 -168 294 -168 q 144 -154 188 -168 l 146 -154 q 113 -118 113 -136 q 182 -90 113 -90 q 265 -112 221 -90 q 351 -156 310 -133 m 665 1368 l 485 1368 l 419 1099 l 472 1099 l 665 1368 z "},"Þ":{"ha":894,"x_min":24,"x_max":872,"o":"m 217 1010 l 214 1017 l 213 1017 q 217 1010 215 1011 m 872 838 q 713 799 799 799 q 492 843 585 799 q 385 740 438 790 q 304 647 332 690 q 295 678 300 656 q 286 724 290 700 q 278 767 282 747 q 274 794 275 788 q 262 819 274 796 q 237 869 250 842 q 212 922 224 897 q 200 953 200 947 l 201 956 q 201 958 201 957 q 200 960 200 958 q 209 971 200 967 q 226 975 218 975 l 244 975 q 215 1011 222 996 l 203 1024 q 144 985 175 1008 q 88 936 114 961 q 45 888 63 911 q 28 850 28 865 q 39 825 28 843 q 65 788 50 807 q 93 750 79 768 q 111 725 107 732 q 140 621 140 672 l 140 253 q 24 51 50 203 q 49 33 38 40 q 67 21 60 26 q 82 61 75 46 q 97 85 89 76 q 115 98 104 94 q 143 104 126 101 l 143 -169 q 129 -310 143 -236 q 146 -303 131 -310 q 183 -287 161 -297 q 230 -265 204 -276 q 278 -243 256 -253 q 317 -226 300 -233 q 336 -218 333 -219 l 336 64 q 413 33 374 49 q 489 6 451 18 q 560 -15 526 -7 q 621 -25 594 -24 q 692 100 638 25 l 692 99 q 768 178 740 151 q 810 217 796 206 q 831 231 825 228 q 842 239 836 233 q 856 294 856 254 q 852 369 856 319 q 845 475 849 419 q 838 581 842 531 q 835 656 835 631 q 872 838 835 725 m 675 240 l 675 243 q 671 192 672 217 q 663 167 669 167 q 617 176 650 167 q 539 198 585 185 q 440 228 493 211 q 336 263 388 246 l 336 319 q 341 438 336 388 q 356 528 346 489 q 383 597 367 567 q 425 654 400 628 q 592 621 501 621 q 624 622 610 621 q 650 624 639 622 q 642 526 642 588 q 658 339 642 494 q 661 322 658 335 q 667 293 664 308 q 673 263 671 278 q 675 240 675 249 z "},"ß":{"ha":721,"x_min":22,"x_max":700,"o":"m 700 688 q 665 724 689 724 l 653 724 q 653 723 653 724 q 656 722 654 722 q 589 694 621 694 q 425 736 551 694 l 410 729 q 368 664 386 692 q 338 618 350 636 l 336 636 l 336 635 q 332 801 332 719 l 332 818 q 421 800 369 800 q 431 801 426 800 l 440 801 q 558 986 501 847 q 533 1014 556 1014 q 508 997 518 1014 l 510 999 q 432 969 469 969 q 324 1014 389 969 q 186 863 261 907 q 167 756 179 810 q 138 647 154 703 l 138 649 q 127 624 133 635 q 108 603 121 614 q 75 581 96 593 q 22 550 54 568 q 142 485 132 515 l 142 488 q 204 -268 176 -81 l 242 -268 q 339 525 318 22 l 374 564 q 472 531 408 546 q 414 403 414 440 q 424 365 414 394 q 446 301 433 336 q 468 230 458 265 q 478 174 478 194 q 472 127 478 150 q 453 76 467 104 q 419 15 440 49 q 367 -61 397 -18 q 328 -121 328 -112 q 350 -139 328 -139 q 379 -129 365 -139 l 378 -129 q 489 -43 439 -87 q 575 46 539 1 q 631 133 611 90 q 650 214 650 176 q 638 285 650 240 q 610 373 625 329 q 583 452 596 417 q 571 499 571 488 q 583 544 571 521 q 613 590 594 567 q 653 638 631 614 q 700 688 676 663 z "},"à":{"ha":640,"x_min":31,"x_max":632,"o":"m 276 768 l 211 1038 l 31 1038 l 224 768 l 276 768 m 632 167 l 625 185 q 585 218 594 204 q 553 172 560 172 q 540 197 546 172 q 531 260 535 222 q 524 340 526 297 q 521 419 521 383 q 522 463 521 442 q 524 506 522 485 l 524 504 q 531 534 524 507 q 546 592 538 561 q 561 651 554 624 q 568 682 568 678 l 568 685 q 492 675 528 675 q 292 707 408 675 q 189 643 235 661 l 190 643 q 38 628 142 628 q 46 372 46 519 q 44 334 46 360 q 42 281 43 308 q 40 228 42 254 q 39 190 39 203 q 45 134 39 160 q 67 83 51 108 q 109 32 83 58 q 174 -28 135 6 q 376 118 325 67 q 468 -18 414 33 q 626 161 574 75 l 625 158 l 632 167 m 360 549 q 344 351 344 476 l 344 292 q 353 190 344 229 q 312 158 343 171 q 256 144 281 144 q 211 164 228 144 q 194 211 194 183 q 197 262 194 228 q 201 333 199 296 q 205 406 203 371 q 207 457 207 440 q 203 571 207 514 q 324 546 278 546 q 344 547 335 546 q 360 549 353 547 z "},"á":{"ha":640,"x_min":38,"x_max":632,"o":"m 525 1038 l 344 1038 l 279 768 l 332 768 l 525 1038 m 632 167 l 625 185 q 585 218 594 204 q 553 172 560 172 q 540 197 546 172 q 531 260 535 222 q 524 340 526 297 q 521 419 521 383 q 522 463 521 442 q 524 506 522 485 l 524 504 q 531 534 524 507 q 546 592 538 561 q 561 651 554 624 q 568 682 568 678 l 568 685 q 492 675 528 675 q 292 707 408 675 q 189 643 235 661 l 190 643 q 38 628 142 628 q 46 372 46 519 q 44 334 46 360 q 42 281 43 308 q 40 228 42 254 q 39 190 39 203 q 45 134 39 160 q 67 83 51 108 q 109 32 83 58 q 174 -28 135 6 q 376 118 325 67 q 468 -18 414 33 q 626 161 574 75 l 625 158 l 632 167 m 360 549 q 344 351 344 476 l 344 292 q 353 190 344 229 q 312 158 343 171 q 256 144 281 144 q 211 164 228 144 q 194 211 194 183 q 197 262 194 228 q 201 333 199 296 q 205 406 203 371 q 207 457 207 440 q 203 571 207 514 q 324 546 278 546 q 344 547 335 546 q 360 549 353 547 z "},"â":{"ha":640,"x_min":38,"x_max":632,"o":"m 507 768 l 374 1039 l 217 1039 l 79 768 l 138 768 l 294 911 l 450 768 l 507 768 m 632 167 l 625 185 q 585 218 594 204 q 553 172 560 172 q 540 197 546 172 q 531 260 535 222 q 524 340 526 297 q 521 419 521 383 q 522 463 521 442 q 524 506 522 485 l 524 504 q 531 534 524 507 q 546 592 538 561 q 561 651 554 624 q 568 682 568 678 l 568 685 q 492 675 528 675 q 292 707 408 675 q 189 643 235 661 l 190 643 q 38 628 142 628 q 46 372 46 519 q 44 334 46 360 q 42 281 43 308 q 40 228 42 254 q 39 190 39 203 q 45 134 39 160 q 67 83 51 108 q 109 32 83 58 q 174 -28 135 6 q 376 118 325 67 q 468 -18 414 33 q 626 161 574 75 l 625 158 l 632 167 m 360 549 q 344 351 344 476 l 344 292 q 353 190 344 229 q 312 158 343 171 q 256 144 281 144 q 211 164 228 144 q 194 211 194 183 q 197 262 194 228 q 201 333 199 296 q 205 406 203 371 q 207 457 207 440 q 203 571 207 514 q 324 546 278 546 q 344 547 335 546 q 360 549 353 547 z "},"ã":{"ha":640,"x_min":38,"x_max":632,"o":"m 543 949 l 503 949 q 439 888 479 888 q 395 897 424 888 q 335 919 367 907 q 276 940 304 931 q 233 950 247 950 q 88 768 113 950 l 131 768 q 190 828 151 828 q 226 819 200 828 q 284 798 253 810 q 345 777 315 786 q 392 768 375 768 q 543 949 525 768 m 632 167 l 625 185 q 585 218 594 204 q 553 172 560 172 q 540 197 546 172 q 531 260 535 222 q 524 340 526 297 q 521 419 521 383 q 522 463 521 442 q 524 506 522 485 l 524 504 q 531 534 524 507 q 546 592 538 561 q 561 651 554 624 q 568 682 568 678 l 568 685 q 492 675 528 675 q 292 707 408 675 q 189 643 235 661 l 190 643 q 38 628 142 628 q 46 372 46 519 q 44 334 46 360 q 42 281 43 308 q 40 228 42 254 q 39 190 39 203 q 45 134 39 160 q 67 83 51 108 q 109 32 83 58 q 174 -28 135 6 q 376 118 325 67 q 468 -18 414 33 q 626 161 574 75 l 625 158 l 632 167 m 360 549 q 344 351 344 476 l 344 292 q 353 190 344 229 q 312 158 343 171 q 256 144 281 144 q 211 164 228 144 q 194 211 194 183 q 197 262 194 228 q 201 333 199 296 q 205 406 203 371 q 207 457 207 440 q 203 571 207 514 q 324 546 278 546 q 344 547 335 546 q 360 549 353 547 z "},"ä":{"ha":640,"x_min":38,"x_max":632,"o":"m 565 944 l 385 944 q 328 768 383 881 l 471 769 q 565 944 531 850 m 326 944 l 146 944 q 89 768 144 881 l 232 769 q 326 944 292 850 m 632 167 l 625 185 q 585 218 594 204 q 553 172 560 172 q 540 197 546 172 q 531 260 535 222 q 524 340 526 297 q 521 419 521 383 q 522 463 521 442 q 524 506 522 485 l 524 504 q 531 534 524 507 q 546 592 538 561 q 561 651 554 624 q 568 682 568 678 l 568 685 q 492 675 528 675 q 292 707 408 675 q 189 643 235 661 l 190 643 q 38 628 142 628 q 46 372 46 519 q 44 334 46 360 q 42 281 43 308 q 40 228 42 254 q 39 190 39 203 q 45 134 39 160 q 67 83 51 108 q 109 32 83 58 q 174 -28 135 6 q 376 118 325 67 q 468 -18 414 33 q 626 161 574 75 l 625 158 l 632 167 m 360 549 q 344 351 344 476 l 344 292 q 353 190 344 229 q 312 158 343 171 q 256 144 281 144 q 211 164 228 144 q 194 211 194 183 q 197 262 194 228 q 201 333 199 296 q 205 406 203 371 q 207 457 207 440 q 203 571 207 514 q 324 546 278 546 q 344 547 335 546 q 360 549 353 547 z "},"å":{"ha":640,"x_min":38,"x_max":632,"o":"m 413 890 q 376 976 413 940 q 290 1011 340 1011 q 204 976 240 1011 q 168 890 168 940 q 204 803 168 839 q 290 768 240 768 q 376 803 340 768 q 413 890 413 839 m 632 167 l 625 185 q 585 218 594 204 q 553 172 560 172 q 540 197 546 172 q 531 260 535 222 q 524 340 526 297 q 521 419 521 383 q 522 463 521 442 q 524 506 522 485 l 524 504 q 531 534 524 507 q 546 592 538 561 q 561 651 554 624 q 568 682 568 678 l 568 685 q 492 675 528 675 q 292 707 408 675 q 189 643 235 661 l 190 643 q 38 628 142 628 q 46 372 46 519 q 44 334 46 360 q 42 281 43 308 q 40 228 42 254 q 39 190 39 203 q 45 134 39 160 q 67 83 51 108 q 109 32 83 58 q 174 -28 135 6 q 376 118 325 67 q 468 -18 414 33 q 626 161 574 75 l 625 158 l 632 167 m 357 890 q 337 843 357 863 q 290 824 317 824 q 244 843 264 824 q 224 890 224 863 q 243 936 224 917 q 290 956 263 956 q 338 936 318 956 q 357 890 357 917 m 360 549 q 344 351 344 476 l 344 292 q 353 190 344 229 q 312 158 343 171 q 256 144 281 144 q 211 164 228 144 q 194 211 194 183 q 197 262 194 228 q 201 333 199 296 q 205 406 203 371 q 207 457 207 440 q 203 571 207 514 q 324 546 278 546 q 344 547 335 546 q 360 549 353 547 z "},"æ":{"ha":803,"x_min":38,"x_max":783,"o":"m 626 471 l 600 439 l 600 440 q 553 385 574 408 q 519 346 533 361 q 527 470 524 417 q 533 560 531 524 q 626 471 576 513 m 354 519 l 354 504 q 353 469 354 490 q 349 428 351 449 q 346 390 347 407 q 344 364 344 372 l 344 292 q 353 189 344 261 q 310 158 342 171 q 256 144 279 144 q 211 164 228 144 q 194 211 194 183 q 197 262 194 228 q 201 333 199 296 q 205 406 203 371 q 207 457 207 440 q 203 571 207 514 q 324 546 278 546 q 353 547 346 546 l 354 519 m 783 574 q 626 700 693 629 q 515 675 582 675 q 292 707 411 675 q 189 643 240 665 l 190 643 q 38 628 142 628 q 46 372 46 519 q 44 334 46 360 q 42 281 43 308 q 40 228 42 254 q 39 190 39 203 q 46 135 39 161 q 68 83 53 108 q 110 31 83 58 q 174 -28 136 4 q 372 114 319 63 q 479 -17 400 43 q 546 -26 518 -26 q 567 -26 553 -26 q 597 -24 582 -25 q 625 -22 613 -22 q 642 -21 638 -21 q 656 13 643 -8 q 685 57 669 35 q 713 96 700 79 q 725 113 725 113 l 724 111 q 781 211 758 160 q 742 219 758 215 q 714 226 725 224 q 663 154 685 154 q 608 160 635 154 q 561 175 582 165 q 528 199 540 185 q 515 231 515 213 q 600 347 515 250 l 599 347 q 708 478 663 422 q 783 574 754 535 z "},"ç":{"ha":422,"x_min":24,"x_max":413,"o":"m 413 165 l 389 208 q 314 131 335 131 q 210 185 294 131 q 200 307 200 200 l 200 404 q 201 484 200 444 q 203 561 201 524 q 257 529 233 542 q 297 510 281 517 l 301 503 q 363 576 354 560 l 363 575 q 394 616 379 597 q 408 650 408 635 q 378 674 408 674 l 374 672 q 349 650 360 654 q 325 658 339 651 q 298 675 311 665 q 273 695 285 685 q 256 714 261 706 q 136 629 207 665 l 138 631 q 24 615 89 615 q 44 375 44 517 q 44 336 44 361 q 42 285 43 311 q 40 238 40 260 q 39 208 39 217 q 49 124 39 158 q 84 63 60 89 q 146 19 108 38 q 238 -17 183 0 q 182 -33 213 -21 l 115 -106 q 151 -101 138 -103 q 169 -99 164 -99 q 224 -112 199 -99 q 249 -153 249 -126 q 220 -197 249 -181 q 158 -214 192 -214 q 96 -210 150 -214 l 78 -247 q 135 -256 108 -253 q 189 -258 163 -258 q 324 -225 272 -258 q 376 -126 376 -192 q 344 -49 376 -81 q 264 -15 311 -18 q 356 75 319 29 q 413 165 393 121 z "},"è":{"ha":485,"x_min":24,"x_max":463,"o":"m 463 574 q 306 700 372 629 q 35 622 210 642 l 24 606 q 31 559 29 582 q 33 515 33 536 q 33 499 33 508 q 32 478 33 490 l 32 440 l 32 442 q 28 360 29 399 q 26 289 26 322 q 151 18 26 36 l 150 18 l 161 14 l 160 14 q 321 -21 233 -21 q 334 13 321 -10 q 363 57 347 35 q 391 96 378 79 q 404 113 404 113 l 403 111 q 460 211 438 160 q 421 219 438 215 q 393 226 404 224 q 342 154 364 154 q 288 160 314 154 q 240 175 261 165 q 207 199 219 185 q 194 231 194 213 q 279 347 194 250 l 278 347 q 463 574 401 493 m 306 471 l 279 439 l 279 440 q 233 385 253 408 q 199 346 213 361 q 206 470 203 417 q 213 560 210 524 q 306 471 256 513 m 276 768 l 211 1038 l 31 1038 l 224 768 l 276 768 z "},"é":{"ha":485,"x_min":24,"x_max":483,"o":"m 463 574 q 306 700 372 629 q 35 622 210 642 l 24 606 q 31 559 29 582 q 33 515 33 536 q 33 499 33 508 q 32 478 33 490 l 32 440 l 32 442 q 28 360 29 399 q 26 289 26 322 q 151 18 26 36 l 150 18 l 161 14 l 160 14 q 321 -21 233 -21 q 334 13 321 -10 q 363 57 347 35 q 391 96 378 79 q 404 113 404 113 l 403 111 q 460 211 438 160 q 421 219 438 215 q 393 226 404 224 q 342 154 364 154 q 288 160 314 154 q 240 175 261 165 q 207 199 219 185 q 194 231 194 213 q 279 347 194 250 l 278 347 q 463 574 401 493 m 306 471 l 279 439 l 279 440 q 233 385 253 408 q 199 346 213 361 q 206 470 203 417 q 213 560 210 524 q 306 471 256 513 m 483 1038 l 303 1038 l 238 768 l 290 768 l 483 1038 z "},"ê":{"ha":485,"x_min":24,"x_max":463,"o":"m 463 574 q 306 700 372 629 q 35 622 210 642 l 24 606 q 31 559 29 582 q 33 515 33 536 q 33 499 33 508 q 32 478 33 490 l 32 440 l 32 442 q 28 360 29 399 q 26 289 26 322 q 151 18 26 36 l 150 18 l 161 14 l 160 14 q 321 -21 233 -21 q 334 13 321 -10 q 363 57 347 35 q 391 96 378 79 q 404 113 404 113 l 403 111 q 460 211 438 160 q 421 219 438 215 q 393 226 404 224 q 342 154 364 154 q 288 160 314 154 q 240 175 261 165 q 207 199 219 185 q 194 231 194 213 q 279 347 194 250 l 278 347 q 463 574 401 493 m 306 471 l 279 439 l 279 440 q 233 385 253 408 q 199 346 213 361 q 206 470 203 417 q 213 560 210 524 q 306 471 256 513 m 451 768 l 318 1039 l 161 1039 l 24 768 l 82 768 l 239 911 l 394 768 l 451 768 z "},"ë":{"ha":485,"x_min":19,"x_max":496,"o":"m 496 944 l 315 944 q 258 768 314 881 l 401 769 q 496 944 461 850 m 257 944 l 76 944 q 19 768 75 881 l 163 769 q 257 944 222 850 m 463 574 q 306 700 372 629 q 35 622 210 642 l 24 606 q 31 559 29 582 q 33 515 33 536 q 33 499 33 508 q 32 478 33 490 l 32 440 l 32 442 q 28 360 29 399 q 26 289 26 322 q 151 18 26 36 l 150 18 l 161 14 l 160 14 q 321 -21 233 -21 q 334 13 321 -10 q 363 57 347 35 q 391 96 378 79 q 404 113 404 113 l 403 111 q 460 211 438 160 q 421 219 438 215 q 393 226 404 224 q 342 154 364 154 q 288 160 314 154 q 240 175 261 165 q 207 199 219 185 q 194 231 194 213 q 279 347 194 250 l 278 347 q 463 574 401 493 m 306 471 l 279 439 l 279 440 q 233 385 253 408 q 199 346 213 361 q 206 470 203 417 q 213 560 210 524 q 306 471 256 513 z "},"ì":{"ha":375,"x_min":-142,"x_max":353,"o":"m 353 169 l 342 189 q 322 193 331 192 q 308 196 314 194 q 278 156 293 156 q 254 204 254 156 l 254 479 q 250 576 254 539 q 233 638 246 614 q 197 678 221 661 q 136 713 174 694 q 21 557 118 654 q 96 533 83 557 q 101 447 101 522 q 101 390 101 428 q 100 310 100 351 q 99 229 100 268 q 99 172 99 190 q 133 33 99 78 q 254 -24 168 -11 q 353 169 308 50 m 104 768 l 39 1038 l -142 1038 l 51 768 l 104 768 z "},"í":{"ha":375,"x_min":21,"x_max":386,"o":"m 353 169 l 342 189 q 322 193 331 192 q 308 196 314 194 q 278 156 293 156 q 254 204 254 156 l 254 479 q 250 576 254 539 q 233 638 246 614 q 197 678 221 661 q 136 713 174 694 q 21 557 118 654 q 96 533 83 557 q 101 447 101 522 q 101 390 101 428 q 100 310 100 351 q 99 229 100 268 q 99 172 99 190 q 133 33 99 78 q 254 -24 168 -11 q 353 169 308 50 m 386 1038 l 206 1038 l 140 768 l 193 768 l 386 1038 z "},"î":{"ha":375,"x_min":-74,"x_max":354,"o":"m 353 169 l 342 189 q 322 193 331 192 q 308 196 314 194 q 278 156 293 156 q 254 204 254 156 l 254 479 q 250 576 254 539 q 233 638 246 614 q 197 678 221 661 q 136 713 174 694 q 21 557 118 654 q 96 533 83 557 q 101 447 101 522 q 101 390 101 428 q 100 310 100 351 q 99 229 100 268 q 99 172 99 190 q 133 33 99 78 q 254 -24 168 -11 q 353 169 308 50 m 354 768 l 221 1039 l 64 1039 l -74 768 l -15 768 l 142 911 l 297 768 l 354 768 z "},"ï":{"ha":375,"x_min":-64,"x_max":413,"o":"m 413 944 l 232 944 q 175 768 231 881 l 318 769 q 413 944 378 850 m 174 944 l -7 944 q -64 768 -8 881 l 79 769 q 174 944 139 850 m 353 169 l 342 189 q 322 193 331 192 q 308 196 314 194 q 278 156 293 156 q 254 204 254 156 l 254 479 q 250 576 254 539 q 233 638 246 614 q 197 678 221 661 q 136 713 174 694 q 21 557 118 654 q 96 533 83 557 q 101 447 101 522 q 101 390 101 428 q 100 310 100 351 q 99 229 100 268 q 99 172 99 190 q 133 33 99 78 q 254 -24 168 -11 q 353 169 308 50 z "},"ð":{"ha":613,"x_min":24,"x_max":590,"o":"m 590 447 q 568 576 590 518 l 569 575 q 545 631 564 599 q 498 697 526 663 q 436 766 469 732 q 368 829 403 800 l 369 829 l 351 846 l 454 900 l 426 953 l 306 889 q 274 936 274 921 q 285 949 274 949 q 322 935 296 949 q 328 1008 322 981 q 182 982 233 1000 l 183 983 q 93 925 119 968 l 93 926 q 83 893 83 915 q 128 794 83 847 l 40 749 l 68 696 l 172 750 q 203 723 190 735 q 225 704 215 711 q 24 607 146 635 q 56 421 51 532 l 56 426 q 54 232 54 426 q 58 152 54 183 q 76 98 63 121 q 115 58 90 75 q 181 21 140 40 q 258 -8 217 3 q 349 -24 300 -18 q 388 32 360 -6 q 449 113 417 69 q 510 197 481 156 q 551 263 539 238 q 590 447 590 344 m 422 340 q 383 142 422 229 q 299 171 304 168 q 239 231 249 194 l 239 229 q 218 540 218 318 q 269 660 218 646 l 268 660 l 282 664 l 279 663 q 308 635 289 658 q 346 581 326 611 q 381 520 365 550 q 401 474 397 490 l 400 475 q 422 340 422 392 z "},"ñ":{"ha":690,"x_min":10,"x_max":668,"o":"m 668 161 q 644 186 668 186 q 618 169 628 186 l 619 169 q 585 143 603 143 q 565 194 565 143 l 565 283 q 566 315 565 293 q 567 360 567 336 q 567 404 567 383 q 568 435 568 425 q 556 555 568 506 q 517 636 543 604 q 451 684 492 668 q 351 704 410 700 q 243 592 328 638 q 135 715 222 669 q 10 582 90 633 q 45 560 32 572 q 65 527 58 549 q 72 472 71 506 q 74 383 74 438 q 74 353 74 372 q 72 311 74 335 l 72 238 q 94 44 72 75 q 231 -19 129 -6 q 299 80 274 39 q 332 144 324 121 l 332 143 q 338 164 338 153 q 317 185 338 185 q 301 179 308 185 q 285 167 293 174 q 272 156 278 161 q 261 151 265 151 l 250 165 q 251 238 250 189 q 251 342 251 288 q 252 444 251 396 q 253 517 253 493 q 321 550 296 550 q 392 451 392 550 q 391 405 392 436 q 390 338 390 374 q 388 270 389 303 q 388 221 388 238 q 393 120 388 164 q 417 47 399 76 q 469 -1 435 17 q 561 -22 503 -18 q 667 150 617 47 l 667 156 q 668 161 668 158 m 529 949 l 489 949 q 425 888 465 888 q 381 897 410 888 q 322 919 353 907 q 262 940 290 931 q 219 950 233 950 q 74 768 99 950 l 117 768 q 176 828 138 828 q 213 819 186 828 q 270 798 239 810 q 331 777 301 786 q 378 768 361 768 q 529 949 511 768 z "},"ò":{"ha":621,"x_min":24,"x_max":599,"o":"m 599 390 q 576 495 599 443 q 513 593 553 547 q 417 676 472 639 q 299 738 363 714 q 254 677 276 701 q 202 635 232 653 q 129 607 172 618 q 24 586 86 596 q 40 329 40 508 q 40 306 40 321 q 39 276 39 292 q 38 249 39 263 q 38 229 38 236 q 100 76 38 132 l 99 78 q 361 -21 210 -21 q 413 68 364 21 l 439 97 l 438 97 q 490 157 465 128 q 538 217 515 186 l 536 215 q 599 390 599 299 m 426 322 q 397 149 426 188 l 386 147 q 243 204 308 147 q 218 251 229 218 q 207 339 207 285 l 207 492 q 209 543 207 519 q 214 586 211 567 q 313 539 272 564 q 378 483 353 514 q 415 413 404 451 q 426 322 426 374 m 276 768 l 211 1038 l 31 1038 l 224 768 l 276 768 z "},"ó":{"ha":621,"x_min":24,"x_max":599,"o":"m 599 390 q 576 495 599 443 q 513 593 553 547 q 417 676 472 639 q 299 738 363 714 q 254 677 276 701 q 202 635 232 653 q 129 607 172 618 q 24 586 86 596 q 40 329 40 508 q 40 306 40 321 q 39 276 39 292 q 38 249 39 263 q 38 229 38 236 q 100 76 38 132 l 99 78 q 361 -21 210 -21 q 413 68 364 21 l 439 97 l 438 97 q 490 157 465 128 q 538 217 515 186 l 536 215 q 599 390 599 299 m 426 322 q 397 149 426 188 l 386 147 q 243 204 308 147 q 218 251 229 218 q 207 339 207 285 l 207 492 q 209 543 207 519 q 214 586 211 567 q 313 539 272 564 q 378 483 353 514 q 415 413 404 451 q 426 322 426 374 m 567 1038 l 386 1038 l 321 768 l 374 768 l 567 1038 z "},"ô":{"ha":621,"x_min":24,"x_max":599,"o":"m 599 390 q 576 495 599 443 q 513 593 553 547 q 417 676 472 639 q 299 738 363 714 q 254 677 276 701 q 202 635 232 653 q 129 607 172 618 q 24 586 86 596 q 40 329 40 508 q 40 306 40 321 q 39 276 39 292 q 38 249 39 263 q 38 229 38 236 q 100 76 38 132 l 99 78 q 361 -21 210 -21 q 413 68 364 21 l 439 97 l 438 97 q 490 157 465 128 q 538 217 515 186 l 536 215 q 599 390 599 299 m 426 322 q 397 149 426 188 l 386 147 q 243 204 308 147 q 218 251 229 218 q 207 339 207 285 l 207 492 q 209 543 207 519 q 214 586 211 567 q 313 539 272 564 q 378 483 353 514 q 415 413 404 451 q 426 322 426 374 m 493 768 l 360 1039 l 203 1039 l 65 768 l 124 768 l 281 911 l 436 768 l 493 768 z "},"õ":{"ha":621,"x_min":24,"x_max":599,"o":"m 599 390 q 576 495 599 443 q 513 593 553 547 q 417 676 472 639 q 299 738 363 714 q 254 677 276 701 q 202 635 232 653 q 129 607 172 618 q 24 586 86 596 q 40 329 40 508 q 40 306 40 321 q 39 276 39 292 q 38 249 39 263 q 38 229 38 236 q 100 76 38 132 l 99 78 q 361 -21 210 -21 q 413 68 364 21 l 439 97 l 438 97 q 490 157 465 128 q 538 217 515 186 l 536 215 q 599 390 599 299 m 426 322 q 397 149 426 188 l 386 147 q 243 204 308 147 q 218 251 229 218 q 207 339 207 285 l 207 492 q 209 543 207 519 q 214 586 211 567 q 313 539 272 564 q 378 483 353 514 q 415 413 404 451 q 426 322 426 374 m 543 949 l 503 949 q 439 888 479 888 q 395 897 424 888 q 335 919 367 907 q 276 940 304 931 q 233 950 247 950 q 88 768 113 950 l 131 768 q 190 828 151 828 q 226 819 200 828 q 284 798 253 810 q 345 777 315 786 q 392 768 375 768 q 543 949 525 768 z "},"ö":{"ha":621,"x_min":24,"x_max":599,"o":"m 551 944 l 371 944 q 314 768 369 881 l 457 769 q 551 944 517 850 m 313 944 l 132 944 q 75 768 131 881 l 218 769 q 313 944 278 850 m 599 390 q 576 495 599 443 q 513 593 553 547 q 417 676 472 639 q 299 738 363 714 q 254 677 276 701 q 202 635 232 653 q 129 607 172 618 q 24 586 86 596 q 40 329 40 508 q 40 306 40 321 q 39 276 39 292 q 38 249 39 263 q 38 229 38 236 q 100 76 38 132 l 99 78 q 361 -21 210 -21 q 413 68 364 21 l 439 97 l 438 97 q 490 157 465 128 q 538 217 515 186 l 536 215 q 599 390 599 299 m 426 322 q 397 149 426 188 l 386 147 q 243 204 308 147 q 218 251 229 218 q 207 339 207 285 l 207 492 q 209 543 207 519 q 214 586 211 567 q 313 539 272 564 q 378 483 353 514 q 415 413 404 451 q 426 322 426 374 z "},"÷":{"ha":675,"x_min":21,"x_max":654,"o":"m 438 586 q 422 614 438 599 q 386 642 407 629 q 344 663 365 654 q 313 671 324 671 q 283 657 293 671 l 285 658 q 226 542 226 596 q 228 533 226 538 l 228 524 q 356 469 303 469 q 385 497 371 482 q 412 529 400 513 q 431 560 424 546 q 438 586 438 575 m 654 401 l 21 401 l 21 265 l 651 265 l 654 401 m 433 115 q 418 144 433 129 q 383 172 403 160 q 342 192 363 185 q 308 200 321 200 q 279 185 294 200 q 251 150 264 171 q 231 107 239 129 q 222 71 222 85 q 235 44 222 57 q 269 20 249 31 q 311 3 289 10 q 351 -3 333 -3 q 433 115 433 68 z "},"ø":{"ha":621,"x_min":14,"x_max":599,"o":"m 210 303 q 208 364 208 317 q 207 492 207 411 q 209 543 207 519 q 214 586 211 567 q 347 514 303 553 l 210 303 m 388 471 q 426 322 426 414 q 397 149 426 188 l 386 147 q 344 152 368 147 q 298 167 321 157 q 256 191 275 176 q 228 226 236 206 l 388 471 m 500 749 l 442 660 q 299 738 372 711 q 254 677 276 701 q 202 635 232 653 q 129 607 172 618 q 24 586 86 596 q 40 329 40 508 q 40 306 40 321 q 39 276 39 292 q 38 249 39 263 q 38 229 38 236 q 78 100 38 149 l 14 0 l 61 -31 l 119 60 q 361 -21 225 -21 q 413 68 364 21 l 439 97 l 438 97 q 490 157 465 128 q 538 217 515 186 l 536 215 q 599 390 599 299 q 486 622 599 515 l 547 718 l 500 749 z "},"ù":{"ha":744,"x_min":22,"x_max":722,"o":"m 722 179 l 679 204 q 646 167 663 167 q 628 174 635 167 q 618 201 622 182 q 613 251 614 219 q 611 333 611 283 q 613 374 611 347 q 615 432 614 401 q 617 490 615 463 q 618 531 618 517 q 599 631 618 596 l 599 629 q 515 722 581 667 q 372 588 457 650 q 436 510 415 565 l 435 513 q 440 472 438 493 q 442 424 442 450 q 440 328 442 388 q 435 186 438 269 q 406 160 419 171 q 379 143 392 149 l 381 144 q 357 140 365 140 q 282 285 282 140 q 284 340 282 303 q 288 417 286 376 q 292 494 290 457 q 294 549 294 531 q 289 611 294 585 q 269 657 283 638 q 230 691 254 676 q 168 719 206 706 q 22 579 119 643 q 95 544 75 565 q 115 485 115 524 l 114 469 l 114 471 q 109 388 111 447 q 107 232 107 328 q 110 168 107 194 q 121 119 113 142 q 146 78 129 97 q 190 35 163 58 q 294 -24 242 -7 l 307 -21 l 444 117 q 574 -26 467 7 q 662 92 625 42 q 722 179 699 143 m 356 768 l 290 1038 l 110 1038 l 303 768 l 356 768 z "},"ú":{"ha":744,"x_min":22,"x_max":722,"o":"m 722 179 l 679 204 q 646 167 663 167 q 628 174 635 167 q 618 201 622 182 q 613 251 614 219 q 611 333 611 283 q 613 374 611 347 q 615 432 614 401 q 617 490 615 463 q 618 531 618 517 q 599 631 618 596 l 599 629 q 515 722 581 667 q 372 588 457 650 q 436 510 415 565 l 435 513 q 440 472 438 493 q 442 424 442 450 q 440 328 442 388 q 435 186 438 269 q 406 160 419 171 q 379 143 392 149 l 381 144 q 357 140 365 140 q 282 285 282 140 q 284 340 282 303 q 288 417 286 376 q 292 494 290 457 q 294 549 294 531 q 289 611 294 585 q 269 657 283 638 q 230 691 254 676 q 168 719 206 706 q 22 579 119 643 q 95 544 75 565 q 115 485 115 524 l 114 469 l 114 471 q 109 388 111 447 q 107 232 107 328 q 110 168 107 194 q 121 119 113 142 q 146 78 129 97 q 190 35 163 58 q 294 -24 242 -7 l 307 -21 l 444 117 q 574 -26 467 7 q 662 92 625 42 q 722 179 699 143 m 567 1038 l 386 1038 l 321 768 l 374 768 l 567 1038 z "},"û":{"ha":744,"x_min":22,"x_max":722,"o":"m 722 179 l 679 204 q 646 167 663 167 q 628 174 635 167 q 618 201 622 182 q 613 251 614 219 q 611 333 611 283 q 613 374 611 347 q 615 432 614 401 q 617 490 615 463 q 618 531 618 517 q 599 631 618 596 l 599 629 q 515 722 581 667 q 372 588 457 650 q 436 510 415 565 l 435 513 q 440 472 438 493 q 442 424 442 450 q 440 328 442 388 q 435 186 438 269 q 406 160 419 171 q 379 143 392 149 l 381 144 q 357 140 365 140 q 282 285 282 140 q 284 340 282 303 q 288 417 286 376 q 292 494 290 457 q 294 549 294 531 q 289 611 294 585 q 269 657 283 638 q 230 691 254 676 q 168 719 206 706 q 22 579 119 643 q 95 544 75 565 q 115 485 115 524 l 114 469 l 114 471 q 109 388 111 447 q 107 232 107 328 q 110 168 107 194 q 121 119 113 142 q 146 78 129 97 q 190 35 163 58 q 294 -24 242 -7 l 307 -21 l 444 117 q 574 -26 467 7 q 662 92 625 42 q 722 179 699 143 m 563 768 l 429 1039 l 272 1039 l 135 768 l 193 768 l 350 911 l 506 768 l 563 768 z "},"ü":{"ha":744,"x_min":22,"x_max":722,"o":"m 635 944 l 454 944 q 397 768 453 881 l 540 769 q 635 944 600 850 m 396 944 l 215 944 q 158 768 214 881 l 301 769 q 396 944 361 850 m 722 179 l 679 204 q 646 167 663 167 q 628 174 635 167 q 618 201 622 182 q 613 251 614 219 q 611 333 611 283 q 613 374 611 347 q 615 432 614 401 q 617 490 615 463 q 618 531 618 517 q 599 631 618 596 l 599 629 q 515 722 581 667 q 372 588 457 650 q 436 510 415 565 l 435 513 q 440 472 438 493 q 442 424 442 450 q 440 328 442 388 q 435 186 438 269 q 406 160 419 171 q 379 143 392 149 l 381 144 q 357 140 365 140 q 282 285 282 140 q 284 340 282 303 q 288 417 286 376 q 292 494 290 457 q 294 549 294 531 q 289 611 294 585 q 269 657 283 638 q 230 691 254 676 q 168 719 206 706 q 22 579 119 643 q 95 544 75 565 q 115 485 115 524 l 114 469 l 114 471 q 109 388 111 447 q 107 232 107 328 q 110 168 107 194 q 121 119 113 142 q 146 78 129 97 q 190 35 163 58 q 294 -24 242 -7 l 307 -21 l 444 117 q 574 -26 467 7 q 662 92 625 42 q 722 179 699 143 z "},"ý":{"ha":567,"x_min":24,"x_max":567,"o":"m 544 671 q 510 692 544 692 q 463 681 486 692 q 422 651 440 669 q 392 610 403 633 q 381 564 381 588 q 383 523 381 550 q 388 465 385 496 q 392 407 390 435 q 394 365 394 379 q 390 283 394 331 q 291 438 331 381 q 228 528 251 494 q 196 583 206 563 q 186 628 186 603 q 213 651 186 651 q 247 643 224 651 l 285 688 q 215 714 246 714 q 159 699 192 714 q 97 660 126 683 q 45 608 67 636 q 24 556 24 581 q 49 463 24 531 l 49 464 q 94 383 75 410 l 93 385 q 224 183 201 225 q 288 -44 288 65 q 275 -101 288 -92 l 279 -100 q 272 -101 278 -101 q 235 -92 256 -101 q 195 -66 214 -82 q 164 -31 176 -50 q 151 6 151 -12 q 185 79 151 38 q 174 103 185 90 q 151 115 163 115 l 133 115 l 140 114 q 84 54 106 79 q 51 8 63 29 q 35 -31 39 -12 q 31 -69 31 -49 q 328 -294 31 -226 q 364 -142 338 -236 q 433 83 390 -47 q 497 296 474 201 q 524 458 521 390 q 526 523 525 490 q 530 583 528 556 q 535 631 532 611 q 542 658 538 651 q 543 665 542 661 q 544 671 544 669 m 567 1038 l 386 1038 l 321 768 l 374 768 l 567 1038 z "},"þ":{"ha":676,"x_min":24,"x_max":656,"o":"m 656 428 q 635 528 656 481 q 579 615 615 576 q 494 680 543 653 q 385 719 444 707 q 276 611 357 650 q 256 760 265 690 q 236 883 247 831 q 209 968 225 936 q 169 1003 193 1000 l 154 992 q 110 928 147 963 q 33 861 72 893 q 65 844 51 854 q 88 815 78 835 q 103 760 97 794 q 111 667 108 725 q 115 524 114 610 q 117 317 117 438 q 116 256 117 290 q 114 179 115 222 q 24 29 29 126 l 68 43 l 68 42 l 111 53 l 113 -190 q 96 -285 113 -237 l 114 -299 q 199 -241 153 -258 q 292 -207 244 -224 q 275 49 275 -122 q 436 -47 382 11 q 477 35 450 -10 q 533 119 504 79 q 585 189 561 158 q 614 231 608 219 q 656 428 656 311 m 497 263 q 474 156 497 210 q 286 222 375 203 l 286 542 q 324 547 308 544 q 347 549 339 549 q 416 534 388 549 q 463 486 444 519 q 489 398 481 453 q 497 263 497 343 z "},"ÿ":{"ha":567,"x_min":24,"x_max":579,"o":"m 579 944 l 399 944 q 342 768 397 881 l 485 769 q 579 944 544 850 m 340 944 l 160 944 q 103 768 158 881 l 246 769 q 340 944 306 850 m 544 671 q 510 692 544 692 q 463 681 486 692 q 422 651 440 669 q 392 610 403 633 q 381 564 381 588 q 383 523 381 550 q 388 465 385 496 q 392 407 390 435 q 394 365 394 379 q 390 283 394 331 q 291 438 331 381 q 228 528 251 494 q 196 583 206 563 q 186 628 186 603 q 213 651 186 651 q 247 643 224 651 l 285 688 q 215 714 246 714 q 159 699 192 714 q 97 660 126 683 q 45 608 67 636 q 24 556 24 581 q 49 463 24 531 l 49 464 q 94 383 75 410 l 93 385 q 224 183 201 225 q 288 -44 288 65 q 275 -101 288 -92 l 279 -100 q 272 -101 278 -101 q 235 -92 256 -101 q 195 -66 214 -82 q 164 -31 176 -50 q 151 6 151 -12 q 185 79 151 38 q 174 103 185 90 q 151 115 163 115 l 133 115 l 140 114 q 84 54 106 79 q 51 8 63 29 q 35 -31 39 -12 q 31 -69 31 -49 q 328 -294 31 -226 q 364 -142 338 -236 q 433 83 390 -49 q 497 296 474 201 q 524 458 521 390 q 526 523 525 490 q 530 583 528 556 q 535 631 532 611 q 542 658 538 651 q 543 665 542 661 q 544 671 544 669 z "},"Ł":{"ha":865,"x_min":21,"x_max":863,"o":"m 863 1049 q 835 1054 847 1051 q 815 1060 822 1057 q 772 994 796 994 q 722 1001 753 994 q 656 1019 690 1008 q 588 1043 621 1029 q 533 1069 556 1057 q 471 989 503 1021 q 407 939 439 957 l 408 939 l 389 928 l 390 928 q 346 904 364 914 q 317 889 328 894 l 318 889 q 250 740 250 851 q 256 653 250 704 q 276 539 263 603 l 110 503 l 125 432 l 290 468 q 310 297 310 363 q 268 246 310 246 q 188 247 188 246 q 191 248 188 247 q 201 249 194 249 q 169 244 182 247 q 144 228 156 240 q 118 190 132 215 q 83 121 104 164 q 44 42 60 72 q 21 1 28 13 l 68 -28 q 165 67 108 67 q 230 60 189 67 q 320 44 271 54 q 423 24 369 35 q 526 4 476 14 q 619 -12 576 -6 q 688 -18 661 -18 q 775 -10 733 -18 q 786 39 776 8 q 808 101 796 69 q 831 157 821 132 q 844 190 842 182 q 808 203 824 200 l 801 214 q 743 165 776 165 q 670 172 713 165 q 580 188 628 178 q 481 210 532 197 q 382 235 431 222 q 497 406 497 333 q 495 456 497 429 q 490 513 493 483 l 656 549 l 640 619 l 479 583 q 463 657 471 619 q 449 729 456 694 q 440 794 443 764 q 436 847 436 825 q 450 888 436 879 q 481 881 461 888 q 524 865 501 874 q 565 847 546 856 q 594 838 585 839 l 593 838 q 694 815 639 815 q 738 822 721 815 q 767 842 754 828 q 793 881 781 857 q 822 940 806 904 q 863 1049 858 1017 z "},"ł":{"ha":328,"x_min":-40,"x_max":318,"o":"m 318 171 l 279 206 q 222 153 243 153 q 211 163 217 153 q 201 188 206 174 q 195 218 197 203 q 193 243 193 233 l 193 419 l 279 451 l 254 519 l 193 497 q 203 751 194 628 q 229 990 211 874 q 126 959 179 975 q 33 943 72 943 q 36 902 33 929 q 43 845 39 875 q 50 788 47 815 q 53 747 53 761 q 40 442 53 679 l -40 413 l -15 344 l 38 364 q 35 301 36 326 q 35 263 35 276 q 44 149 35 197 q 75 65 54 100 q 129 8 96 31 q 208 -28 163 -14 q 277 101 250 51 q 318 171 304 151 z "},"≠":{"ha":926,"x_min":88,"x_max":836,"o":"m 836 233 l 836 358 l 478 358 l 554 554 l 836 554 l 836 681 l 604 681 l 742 1038 l 635 1038 l 494 681 l 88 681 l 88 554 l 446 554 l 369 358 l 88 358 l 88 233 l 321 233 l 181 -124 l 288 -124 l 429 233 l 836 233 z "},"∞":{"ha":983,"x_min":33,"x_max":951,"o":"m 951 357 q 932 469 951 417 q 878 559 913 521 q 795 619 843 597 q 692 640 747 640 q 608 631 644 640 q 542 599 571 621 q 488 542 513 578 q 440 453 464 506 q 393 528 415 499 q 347 576 371 558 q 298 601 324 593 q 242 608 272 608 q 158 589 196 608 q 92 535 119 569 q 49 456 64 501 q 33 358 33 410 q 50 262 33 307 q 97 183 67 217 q 169 128 126 149 q 265 108 213 108 q 486 267 404 108 q 547 172 519 210 q 601 113 575 135 q 653 81 626 90 q 714 72 681 72 q 808 97 764 72 q 883 160 851 121 q 933 251 915 200 q 951 357 951 303 m 913 357 q 899 268 913 308 q 859 199 885 228 q 797 153 833 169 q 717 136 761 136 q 601 176 650 136 q 506 315 551 217 q 576 489 563 465 q 721 588 633 588 q 797 568 761 588 q 858 517 832 549 q 898 443 883 485 q 913 357 913 401 m 421 400 q 358 246 381 285 q 226 161 307 161 q 163 177 192 161 q 114 220 135 193 q 82 283 93 247 q 71 360 71 319 q 83 433 71 399 q 116 492 94 467 q 169 531 138 517 q 239 546 200 546 q 421 400 356 546 z "},"≤":{"ha":926,"x_min":88,"x_max":838,"o":"m 838 224 l 838 360 l 260 593 l 838 828 l 838 963 l 89 650 l 89 536 l 838 224 m 838 -51 l 838 75 l 88 75 l 88 -51 l 838 -51 z "},"≥":{"ha":926,"x_min":88,"x_max":838,"o":"m 838 536 l 838 650 l 89 963 l 89 826 l 665 593 l 89 358 l 89 224 l 838 536 m 838 -51 l 838 75 l 88 75 l 88 -51 l 838 -51 z "},"∂":{"ha":681,"x_min":40,"x_max":672,"o":"m 672 624 q 608 872 672 779 q 424 964 543 964 q 278 916 338 964 q 165 760 218 868 l 197 760 q 401 868 272 868 q 575 799 514 868 q 636 613 636 729 q 628 486 636 563 q 415 615 561 615 q 272 581 340 615 q 153 490 204 547 q 71 358 101 432 q 40 206 40 285 q 103 40 40 101 q 271 -21 165 -21 q 581 215 465 -21 q 672 624 672 404 m 615 426 q 563 269 597 343 q 485 139 529 194 q 391 51 442 83 q 288 18 340 18 q 190 63 224 18 q 156 178 156 107 q 176 325 156 253 q 231 453 196 397 q 315 544 267 510 q 421 579 364 579 q 615 426 563 579 z "},"∑":{"ha":983,"x_min":26,"x_max":960,"o":"m 960 143 l 932 147 q 863 19 911 58 q 722 -19 815 -19 l 168 -19 l 594 508 l 213 974 l 715 974 q 883 800 864 974 l 911 800 l 893 1029 l 26 1029 l 26 1004 l 479 450 l 26 -114 l 26 -139 l 917 -139 l 960 143 z "},"∏":{"ha":1143,"x_min":31,"x_max":1113,"o":"m 1113 -139 l 1113 -112 q 1006 -90 1033 -112 q 979 -7 979 -68 l 979 897 q 985 947 979 926 q 1005 979 990 967 q 1046 997 1019 992 q 1113 1003 1072 1003 l 1113 1028 l 31 1028 l 31 1003 q 97 997 71 1003 q 139 979 124 992 q 160 947 154 967 q 165 897 165 926 l 165 -7 q 138 -90 165 -68 q 31 -112 110 -112 l 31 -139 l 436 -139 l 436 -112 q 370 -108 396 -112 q 329 -90 344 -103 q 308 -58 314 -78 q 301 -7 301 -37 l 301 975 l 840 975 l 840 -7 q 834 -59 840 -39 q 813 -91 828 -79 q 772 -108 799 -103 q 707 -112 746 -112 l 707 -139 l 1113 -139 z "},"π":{"ha":738,"x_min":29,"x_max":682,"o":"m 682 169 l 658 169 q 583 94 650 94 q 499 211 499 94 q 505 363 499 286 q 525 522 511 440 l 682 522 l 682 621 l 250 621 q 167 611 201 621 q 108 579 133 601 q 63 519 82 557 q 29 426 44 482 l 54 426 q 88 474 72 456 q 119 503 103 493 q 153 518 135 514 q 196 522 171 522 l 215 522 q 208 426 211 475 q 200 334 204 378 q 190 253 196 290 q 176 194 185 217 q 161 169 174 189 q 135 124 149 149 q 109 76 121 100 q 97 38 97 51 q 115 -3 97 13 q 158 -19 133 -19 q 247 122 218 -19 q 290 522 276 263 l 450 522 q 430 362 436 438 q 424 215 424 286 q 543 -19 424 -19 q 682 169 660 -19 z "},"∫":{"ha":376,"x_min":-1,"x_max":378,"o":"m 378 1190 q 351 1242 378 1221 q 293 1264 324 1264 q 188 1192 226 1264 q 146 1001 149 1119 l 133 558 l 133 503 q 140 297 133 403 q 160 79 146 192 q 164 33 163 53 q 165 -1 165 13 q 139 -43 165 -43 q 126 -36 135 -43 q 106 -22 117 -29 q 83 -7 94 -14 q 58 0 71 0 q -1 -67 -1 0 q 21 -126 -1 -103 q 78 -149 43 -149 q 143 -130 115 -149 q 190 -68 171 -111 q 219 44 208 -25 q 232 211 229 113 q 240 567 240 519 q 215 1017 240 731 q 211 1076 213 1051 q 210 1115 210 1100 q 236 1158 210 1158 q 250 1153 240 1158 q 271 1140 260 1147 q 294 1126 282 1132 q 315 1121 307 1121 q 361 1141 344 1121 q 378 1190 378 1161 z "},"√":{"ha":767,"x_min":58,"x_max":764,"o":"m 764 1268 l 714 1268 l 538 165 l 263 724 l 58 621 l 82 578 l 217 639 l 553 -53 l 764 1268 z "},"≈":{"ha":926,"x_min":90,"x_max":836,"o":"m 836 743 l 793 743 q 676 622 778 622 q 486 683 628 622 q 275 744 347 744 q 144 683 192 744 q 90 511 97 621 l 133 511 q 250 632 156 632 q 439 571 301 632 q 646 511 575 511 q 724 528 689 511 q 783 577 758 546 q 822 651 808 608 q 836 743 836 693 m 836 399 l 793 399 q 676 276 779 276 q 486 338 628 276 q 274 399 344 399 q 143 337 189 399 q 90 167 97 275 l 133 167 q 250 286 154 286 q 439 225 297 286 q 646 165 576 165 q 724 183 689 165 q 783 231 758 200 q 822 306 808 263 q 836 399 835 349 z "},"⋲":{"ha":926,"x_min":90,"x_max":836,"o":"m 836 743 l 793 743 q 676 622 778 622 q 486 683 628 622 q 275 744 347 744 q 144 683 192 744 q 90 511 97 621 l 133 511 q 250 632 156 632 q 439 571 301 632 q 646 511 575 511 q 724 528 689 511 q 783 577 758 546 q 822 651 808 608 q 836 743 836 693 m 836 399 l 793 399 q 676 276 779 276 q 486 338 628 276 q 274 399 344 399 q 143 337 189 399 q 90 167 97 275 l 133 167 q 250 286 154 286 q 439 225 297 286 q 646 165 576 165 q 724 183 689 165 q 783 231 758 200 q 822 306 808 263 q 836 399 835 349 z "},"Δ":{"ha":850,"x_min":18,"x_max":832,"o":"m 832 0 l 443 940 l 18 0 l 832 0 m 671 56 l 103 56 l 401 711 l 671 56 z "},"∆":{"ha":850,"x_min":18,"x_max":832,"o":"m 832 0 l 443 940 l 18 0 l 832 0 m 671 56 l 103 56 l 401 711 l 671 56 z "},"◊":{"ha":686,"x_min":40,"x_max":643,"o":"m 643 504 l 342 1024 l 40 504 l 342 -29 l 643 504 m 539 504 l 342 150 l 144 504 l 342 843 l 539 504 z "},"⁄":{"ha":174,"x_min":-271,"x_max":435,"o":"m 435 943 l 347 943 l -271 -46 l -182 -46 l 435 943 z "},"":{"ha":685,"x_min":6,"x_max":654,"o":"m 614 942 l 433 942 q 376 765 432 878 l 519 767 q 614 942 579 847 m 654 167 l 643 186 q 624 190 632 189 q 610 193 615 192 q 579 153 594 153 q 556 201 556 153 l 556 476 q 543 611 556 582 q 440 697 524 656 l 439 693 l 243 646 q 226 721 240 685 l 226 719 q 210 817 211 764 l 213 817 q 290 803 246 803 q 314 810 304 803 q 330 829 324 818 q 341 854 336 840 q 350 881 346 868 l 349 875 q 375 964 375 942 q 358 992 375 992 q 349 986 354 992 q 335 974 343 981 q 319 963 328 968 q 303 957 311 957 q 192 988 254 957 q 167 926 182 956 q 138 874 153 897 q 113 832 124 850 q 99 804 101 814 q 82 650 82 756 q 6 564 82 599 l 8 540 q 63 524 46 538 q 88 488 81 510 q 94 438 94 467 q 93 376 93 410 l 93 279 q 95 182 93 238 q 101 67 97 126 q 109 -51 104 7 q 120 -156 114 -110 q 135 -230 126 -201 q 153 -258 143 -258 q 167 -244 161 -258 q 178 -208 174 -231 q 188 -154 183 -185 q 196 -89 192 -124 l 194 -92 q 246 450 246 136 l 246 533 l 364 554 q 411 524 411 553 q 407 492 411 518 q 403 444 403 465 q 402 387 403 425 q 401 307 401 349 q 401 226 401 265 q 400 169 400 188 q 435 31 400 75 q 556 -26 469 -14 q 654 167 610 47 z "},"":{"ha":685,"x_min":6,"x_max":664,"o":"m 664 171 l 625 206 q 568 153 589 153 q 558 163 563 153 q 549 188 553 174 q 542 218 544 203 q 539 243 539 233 l 539 433 q 548 729 539 590 q 575 990 557 868 q 560 987 578 993 q 514 972 542 981 q 454 954 486 963 q 397 944 422 946 q 400 961 400 958 q 383 989 400 989 q 374 983 379 989 q 360 972 368 978 q 344 960 353 965 q 328 954 336 954 q 299 958 318 954 q 258 967 279 961 q 219 978 238 972 q 192 988 200 983 q 167 926 182 956 q 138 874 153 897 q 113 832 124 850 q 99 804 101 814 q 82 650 82 756 q 6 564 82 599 l 8 540 q 64 524 46 538 q 88 488 82 510 q 94 438 94 467 q 93 376 93 410 q 95 237 93 310 q 101 93 97 164 q 109 -42 104 22 q 120 -153 114 -106 q 135 -230 126 -201 q 153 -258 143 -258 q 167 -244 161 -258 q 178 -208 174 -231 q 188 -154 183 -185 q 196 -89 192 -124 l 194 -92 q 246 450 246 136 l 246 533 l 331 533 l 331 646 l 243 646 q 226 721 240 685 l 226 719 q 210 817 211 764 l 213 817 q 315 800 254 800 q 339 808 329 800 q 355 826 349 815 q 366 851 361 838 q 375 878 371 865 l 374 872 q 378 885 376 879 q 382 896 379 890 q 394 784 390 821 q 399 747 399 747 q 397 687 399 725 q 394 601 396 649 q 390 503 392 554 q 385 406 388 453 q 382 319 383 358 q 381 258 381 281 q 421 65 381 133 q 554 -28 461 -3 q 623 101 596 51 q 664 171 650 151 z "},"":{"ha":2011,"x_min":31,"x_max":1981,"o":"m 1981 -54 l 1981 1111 l 31 1111 l 31 -54 l 1981 -54 m 1946 781 q 1915 711 1946 740 q 1844 682 1885 682 l 1642 682 q 1593 619 1593 682 l 1593 200 q 1619 142 1593 158 l 1619 64 q 1519 183 1519 86 l 1519 631 q 1679 764 1519 764 q 1708 763 1689 764 q 1747 760 1726 761 q 1785 758 1767 760 q 1814 757 1804 757 q 1869 786 1869 757 q 1813 813 1869 813 q 1785 812 1803 813 q 1747 810 1767 811 q 1708 808 1726 808 q 1681 807 1690 807 q 1519 929 1519 807 l 1519 1111 l 1599 1111 l 1599 929 q 1650 881 1599 881 l 1856 881 q 1920 851 1894 881 q 1946 781 1946 821 m 1408 189 q 1376 101 1408 135 q 1289 67 1343 67 l 897 67 q 828 94 856 67 q 800 164 800 122 q 825 235 800 206 q 890 265 850 265 l 1278 265 l 1278 192 l 903 192 q 875 167 875 192 q 906 138 875 138 l 1253 138 q 1338 200 1338 138 l 1338 306 q 1275 368 1338 368 l 928 368 q 835 403 869 368 q 800 496 800 438 l 800 619 q 837 722 800 682 q 936 761 874 761 l 1278 761 q 1401 656 1383 761 l 1332 656 q 1272 685 1304 685 l 933 685 q 876 625 876 685 l 876 493 q 986 435 876 435 q 1031 437 999 435 q 1101 441 1064 439 q 1170 445 1138 443 q 1218 447 1203 447 q 1408 319 1408 447 l 1408 189 m 704 1111 l 703 161 q 673 89 703 119 q 601 58 643 58 q 497 238 497 58 q 498 265 497 247 q 499 303 499 283 q 499 340 499 322 q 500 364 500 357 q 500 383 500 375 q 499 400 500 393 q 415 494 461 444 q 327 584 369 543 q 252 651 285 625 q 208 678 219 678 q 189 670 196 678 q 178 653 182 663 q 174 635 175 643 q 174 625 174 626 l 174 194 q 222 135 174 135 l 335 135 q 369 164 353 143 l 443 164 q 336 64 424 64 l 222 64 q 100 197 100 64 l 100 656 q 133 724 100 697 q 214 750 165 750 q 286 724 260 750 l 535 478 q 578 374 578 435 l 578 164 q 604 135 578 135 q 621 145 613 135 q 629 164 629 156 l 626 1111 l 704 1111 z "},"ı":{"ha":375,"x_min":21,"x_max":353,"o":"m 353 169 l 342 189 q 322 193 331 192 q 308 196 314 194 q 278 156 293 156 q 254 204 254 156 l 254 479 q 250 576 254 539 q 233 638 246 614 q 197 678 221 661 q 136 713 174 694 q 21 557 118 654 q 96 533 83 557 q 101 447 101 522 q 101 390 101 428 q 100 310 100 351 q 99 229 100 268 q 99 172 99 190 q 133 33 99 78 q 254 -24 168 -11 q 353 169 308 50 z "},"ſ":{"ha":404,"x_min":4,"x_max":383,"o":"m 383 1006 q 347 1028 365 1010 q 322 983 336 988 q 210 1028 272 996 q 146 875 185 924 q 106 760 111 832 q 104 721 104 753 q 104 633 104 689 q 4 551 79 590 q 96 504 86 528 q 103 440 101 493 q 110 290 106 388 q 124 52 115 193 q 153 -278 133 -89 l 192 -278 q 269 193 243 -19 q 294 579 294 406 q 244 843 294 743 q 308 831 290 831 q 342 846 329 831 q 363 886 356 861 q 375 942 371 911 q 383 1006 379 974 z "},"Ω":{"ha":1028,"x_min":39,"x_max":988,"o":"m 988 0 l 988 213 l 964 213 q 857 126 957 126 l 669 126 l 669 172 q 887 306 808 210 q 965 543 965 401 q 931 705 965 632 q 835 830 896 778 q 693 911 775 882 q 517 940 611 940 q 338 910 421 940 q 193 828 254 881 q 97 701 132 775 q 63 540 63 628 q 84 414 63 475 q 144 303 106 353 q 238 219 183 254 q 357 172 292 185 l 357 126 l 174 126 q 63 213 69 126 l 39 213 l 39 0 l 418 0 l 403 204 q 229 538 229 271 q 249 676 229 611 q 307 788 269 740 q 397 863 344 836 q 513 890 449 890 q 632 863 579 890 q 722 785 685 835 q 779 670 760 736 q 799 528 799 604 q 624 204 799 260 l 608 0 l 988 0 z "},"Ω":{"ha":1028,"x_min":39,"x_max":988,"o":"m 988 0 l 988 213 l 964 213 q 857 126 957 126 l 669 126 l 669 172 q 887 306 808 210 q 965 543 965 401 q 931 705 965 632 q 835 830 896 778 q 693 911 775 882 q 517 940 611 940 q 338 910 421 940 q 193 828 254 881 q 97 701 132 775 q 63 540 63 628 q 84 414 63 475 q 144 303 106 353 q 238 219 183 254 q 357 172 292 185 l 357 126 l 174 126 q 63 213 69 126 l 39 213 l 39 0 l 418 0 l 403 204 q 229 538 229 271 q 249 676 229 611 q 307 788 269 740 q 397 863 344 836 q 513 890 449 890 q 632 863 579 890 q 722 785 685 835 q 779 670 760 736 q 799 528 799 604 q 624 204 799 260 l 608 0 l 988 0 z "}}}
